<svg id="Layer_1" data-name="Layer 1" xmlns="http://www.w3.org/2000/svg" width="27" height="22" viewBox="0 0 27 22"><defs><style>.cls-1{fill:#fff;}</style></defs><title>icon-raw-data</title><path class="cls-1" d="M27,1.37a1.41,1.41,0,0,0-.17-1A0.76,0.76,0,0,0,26.2,0H1.38A1.31,1.31,0,0,0,.46.41a1.62,1.62,0,0,0-.46,1v18.8a2.32,2.32,0,0,0,.46,1.18,1.65,1.65,0,0,0,.91.65H26.2a1.14,1.14,0,0,0,.62-0.65A2.14,2.14,0,0,0,27,20.17V1.37ZM7,19H2V16H7v3Zm0-4H2V12H7v3Zm0-4H2V8H7v3Zm6,8H8V16h5v3Zm0-4H8V12h5v3Zm0-4H8V8h5v3Zm6,8H14V16h5v3Zm0-4H14V12h5v3Zm0-4H14V8h5v3Zm6,8H20V16h5v3Zm0-4H20V12h5v3Zm0-4H20V8h5v3Z"/></svg>