<svg id="Layer_1" data-name="Layer 1" xmlns="http://www.w3.org/2000/svg" width="439.97" height="393.18" viewBox="0 0 439.97 393.18"><defs><style>.cls-1{fill:#001970;}.cls-2{fill:#7c756c;}.cls-3{fill:#323232;}.cls-4{fill:#ece8e5;}.cls-5{fill:#716c5c;}.cls-6,.cls-7{fill:none;stroke-miterlimit:10;}.cls-6{stroke:#b1a89c;}.cls-7{stroke:#dfdcd6;}.cls-8{fill:#282763;}.cls-9{fill:#c9920e;}.cls-10{fill:#fff;}</style></defs><title>homepage-feature-left</title><path class="cls-1" d="M184.79,128.65l-4.35-12.52h-0.08q0.17,2.79.17,5.23v7.29h-2.23v-15h3.46l4.16,11.93H186l4.29-11.93h3.47v15h-2.36v-7.41q0-1.12.06-2.91t0.1-2.17h-0.08l-4.5,12.5h-2.16Z"/><path class="cls-1" d="M209.44,113.66v9.7a5.76,5.76,0,0,1-.71,2.91,4.75,4.75,0,0,1-2.06,1.92,7.16,7.16,0,0,1-3.22.67,6,6,0,0,1-4.34-1.48,5.34,5.34,0,0,1-1.55-4.06v-9.66H200v9.48a3.79,3.79,0,0,0,.86,2.74,3.55,3.55,0,0,0,2.65.88q3.47,0,3.47-3.64v-9.46h2.45Z"/><path class="cls-1" d="M221.92,124.58a3.77,3.77,0,0,1-1.45,3.14,6.29,6.29,0,0,1-4,1.14,9.52,9.52,0,0,1-4.16-.79v-2.32a11.32,11.32,0,0,0,2.18.76,9.24,9.24,0,0,0,2.15.28,3.42,3.42,0,0,0,2.15-.55,1.81,1.81,0,0,0,.69-1.49,1.86,1.86,0,0,0-.64-1.43,9.57,9.57,0,0,0-2.62-1.38,6.94,6.94,0,0,1-2.89-1.9,4,4,0,0,1-.84-2.56,3.59,3.59,0,0,1,1.33-3,5.53,5.53,0,0,1,3.58-1.08,10.51,10.51,0,0,1,4.29.94l-0.78,2a9.36,9.36,0,0,0-3.57-.84,2.74,2.74,0,0,0-1.8.52,1.7,1.7,0,0,0-.62,1.37,1.93,1.93,0,0,0,.25,1,2.51,2.51,0,0,0,.81.78,13.7,13.7,0,0,0,2,1,11.11,11.11,0,0,1,2.42,1.28,3.77,3.77,0,0,1,1.13,1.34A4,4,0,0,1,221.92,124.58Z"/><path class="cls-1" d="M224.82,128.65v-15h2.45v15h-2.45Z"/><path class="cls-1" d="M237.61,115.54a4,4,0,0,0-3.32,1.5,7.86,7.86,0,0,0,0,8.31,4.11,4.11,0,0,0,3.37,1.42,8.82,8.82,0,0,0,1.85-.19q0.89-.19,1.86-0.49v2.1a11.25,11.25,0,0,1-4,.67,6.39,6.39,0,0,1-5.06-2,8.34,8.34,0,0,1-1.76-5.71,9.21,9.21,0,0,1,.86-4.09,6.11,6.11,0,0,1,2.48-2.69,7.49,7.49,0,0,1,3.8-.93,9.44,9.44,0,0,1,4.25,1l-0.88,2a13.13,13.13,0,0,0-1.6-.63A5.79,5.79,0,0,0,237.61,115.54Z"/><path class="cls-2" d="M84.91,175.42H78.54V164h6.37v1.18h-5v3.68h4.73V170H79.87v4.2h5v1.19Z"/><path class="cls-2" d="M87.14,164.53a0.86,0.86,0,0,1,.22-0.65,0.81,0.81,0,0,1,1.09,0,0.84,0.84,0,0,1,.23.65,0.86,0.86,0,0,1-.23.65,0.76,0.76,0,0,1-.54.21,0.75,0.75,0,0,1-.55-0.21A0.88,0.88,0,0,1,87.14,164.53Zm1.41,10.88h-1.3v-8.56h1.3v8.56Z"/><path class="cls-2" d="M98.3,166.85v0.82l-1.59.19a2.79,2.79,0,0,1,.56,1.71,2.53,2.53,0,0,1-.86,2,3.47,3.47,0,0,1-2.36.75,3.94,3.94,0,0,1-.72-0.06,1.28,1.28,0,0,0-.83,1.1,0.56,0.56,0,0,0,.29.52,2.11,2.11,0,0,0,1,.17h1.52a3.39,3.39,0,0,1,2.14.59,2,2,0,0,1,.75,1.7,2.43,2.43,0,0,1-1.14,2.17,6.11,6.11,0,0,1-3.33.75,4.55,4.55,0,0,1-2.59-.62,2,2,0,0,1-.91-1.77,2,2,0,0,1,.5-1.35,2.54,2.54,0,0,1,1.41-.77,1.36,1.36,0,0,1-.55-0.46,1.22,1.22,0,0,1-.22-0.73,1.38,1.38,0,0,1,.25-0.82,2.63,2.63,0,0,1,.79-0.68,2.31,2.31,0,0,1-1.08-.93,2.73,2.73,0,0,1-.42-1.5,2.77,2.77,0,0,1,.84-2.17,3.44,3.44,0,0,1,2.39-.76,4.33,4.33,0,0,1,1.21.16h3Zm-6.83,10a1.16,1.16,0,0,0,.59,1.05,3.24,3.24,0,0,0,1.68.36,4.69,4.69,0,0,0,2.42-.49,1.5,1.5,0,0,0,.79-1.32,1,1,0,0,0-.43-1,3.34,3.34,0,0,0-1.62-.27H93.34a2,2,0,0,0-1.37.42A1.51,1.51,0,0,0,91.47,176.85Zm0.7-7.26a1.74,1.74,0,0,0,.51,1.36,2,2,0,0,0,1.41.46,1.65,1.65,0,0,0,1.9-1.84,1.7,1.7,0,0,0-1.92-1.93,1.9,1.9,0,0,0-1.41.49A2,2,0,0,0,92.18,169.6Z"/><path class="cls-2" d="M105.92,175.42v-5.54a2.24,2.24,0,0,0-.48-1.56,1.94,1.94,0,0,0-1.49-.52,2.44,2.44,0,0,0-2,.73,3.72,3.72,0,0,0-.62,2.41v4.48h-1.3V163.26h1.3v3.68a8,8,0,0,1-.06,1.1h0.08a2.64,2.64,0,0,1,1.09-1,3.54,3.54,0,0,1,1.61-.36,3.3,3.3,0,0,1,2.36.75,3.14,3.14,0,0,1,.79,2.37v5.59h-1.3Z"/><path class="cls-2" d="M112.64,174.5a4.26,4.26,0,0,0,.66-0.05,4.42,4.42,0,0,0,.51-0.11v1a2.41,2.41,0,0,1-.62.17,4.7,4.7,0,0,1-.74.07q-2.48,0-2.48-2.62v-5.09h-1.23v-0.62l1.23-.54,0.55-1.83h0.75v2h2.48v1h-2.48v5a1.73,1.73,0,0,0,.37,1.19A1.28,1.28,0,0,0,112.64,174.5Z"/><path class="cls-2" d="M121.39,175.42v-5.54a2.24,2.24,0,0,0-.48-1.56,1.94,1.94,0,0,0-1.49-.52,2.44,2.44,0,0,0-2,.73,3.72,3.72,0,0,0-.62,2.41v4.48h-1.3V163.26h1.3v3.68a8,8,0,0,1-.06,1.1h0.08a2.64,2.64,0,0,1,1.09-1,3.54,3.54,0,0,1,1.61-.36,3.3,3.3,0,0,1,2.36.75,3.14,3.14,0,0,1,.79,2.37v5.59h-1.3Z"/><path class="cls-2" d="M124.63,171.72v-1.19h3.84v1.19h-3.84Z"/><path class="cls-2" d="M137.5,166.85v0.82l-1.59.19a2.79,2.79,0,0,1,.56,1.71,2.53,2.53,0,0,1-.86,2,3.47,3.47,0,0,1-2.36.75,3.94,3.94,0,0,1-.72-0.06,1.28,1.28,0,0,0-.83,1.1,0.56,0.56,0,0,0,.29.52,2.11,2.11,0,0,0,1,.17h1.52a3.39,3.39,0,0,1,2.14.59,2,2,0,0,1,.75,1.7,2.43,2.43,0,0,1-1.14,2.17,6.11,6.11,0,0,1-3.33.75,4.55,4.55,0,0,1-2.59-.62,2,2,0,0,1-.91-1.77,2,2,0,0,1,.5-1.35,2.54,2.54,0,0,1,1.41-.77,1.36,1.36,0,0,1-.55-0.46,1.22,1.22,0,0,1-.22-0.73,1.38,1.38,0,0,1,.25-0.82,2.63,2.63,0,0,1,.79-0.68,2.31,2.31,0,0,1-1.08-.93,2.73,2.73,0,0,1-.42-1.5,2.77,2.77,0,0,1,.84-2.17,3.44,3.44,0,0,1,2.39-.76,4.33,4.33,0,0,1,1.21.16h3Zm-6.83,10a1.16,1.16,0,0,0,.59,1.05,3.24,3.24,0,0,0,1.68.36,4.69,4.69,0,0,0,2.42-.49,1.5,1.5,0,0,0,.79-1.32,1,1,0,0,0-.43-1,3.34,3.34,0,0,0-1.62-.27h-1.55a2,2,0,0,0-1.37.42A1.51,1.51,0,0,0,130.68,176.85Zm0.7-7.26a1.74,1.74,0,0,0,.51,1.36,2,2,0,0,0,1.41.46,1.65,1.65,0,0,0,1.9-1.84,1.7,1.7,0,0,0-1.92-1.93,1.9,1.9,0,0,0-1.41.49A2,2,0,0,0,131.38,169.6Z"/><path class="cls-2" d="M143.17,166.7a5.07,5.07,0,0,1,1,.09L144,168a4.42,4.42,0,0,0-.94-0.12,2.28,2.28,0,0,0-1.78.84,3.08,3.08,0,0,0-.74,2.1v4.59h-1.3v-8.56h1.07l0.15,1.59h0.06a3.75,3.75,0,0,1,1.15-1.29A2.59,2.59,0,0,1,143.17,166.7Z"/><path class="cls-2" d="M151.06,175.42l-0.26-1.22h-0.06a3.6,3.6,0,0,1-1.28,1.09,3.9,3.9,0,0,1-1.59.29,2.86,2.86,0,0,1-2-.66,2.39,2.39,0,0,1-.72-1.87q0-2.59,4.15-2.72l1.45,0v-0.53a2.17,2.17,0,0,0-.43-1.49,1.78,1.78,0,0,0-1.39-.48,5.65,5.65,0,0,0-2.42.66l-0.4-1a6.23,6.23,0,0,1,2.9-.73,3.26,3.26,0,0,1,2.27.68,2.84,2.84,0,0,1,.74,2.18v5.84h-1Zm-2.93-.91a2.63,2.63,0,0,0,1.9-.66,2.46,2.46,0,0,0,.69-1.86v-0.77l-1.3.05a4.71,4.71,0,0,0-2.23.48,1.45,1.45,0,0,0-.68,1.32,1.34,1.34,0,0,0,.43,1.07A1.77,1.77,0,0,0,148.13,174.5Z"/><path class="cls-2" d="M160.52,174.27h-0.07a3,3,0,0,1-2.69,1.3,3.18,3.18,0,0,1-2.61-1.15,5.06,5.06,0,0,1-.93-3.27,5.14,5.14,0,0,1,.94-3.29,3.16,3.16,0,0,1,2.61-1.17,3.11,3.11,0,0,1,2.67,1.27h0.1l-0.05-.62,0-.6v-3.48h1.3v12.16h-1.05Zm-2.59.22a2.36,2.36,0,0,0,1.93-.72,3.65,3.65,0,0,0,.6-2.33v-0.27a4.3,4.3,0,0,0-.61-2.6,2.3,2.3,0,0,0-1.93-.78,2,2,0,0,0-1.75.89,4.41,4.41,0,0,0-.61,2.5,4.23,4.23,0,0,0,.6,2.48A2,2,0,0,0,157.93,174.49Z"/><path class="cls-2" d="M168.11,175.57a3.93,3.93,0,0,1-3-1.16,4.48,4.48,0,0,1-1.1-3.21,5,5,0,0,1,1-3.29,3.39,3.39,0,0,1,2.74-1.22,3.23,3.23,0,0,1,2.55,1.06,4.06,4.06,0,0,1,.94,2.79v0.82h-5.9a3.4,3.4,0,0,0,.76,2.29,2.64,2.64,0,0,0,2,.78,6.9,6.9,0,0,0,2.73-.58V175a6.86,6.86,0,0,1-1.3.43A7.31,7.31,0,0,1,168.11,175.57Zm-0.35-7.79a2.12,2.12,0,0,0-1.64.67,3.1,3.1,0,0,0-.72,1.86h4.48a2.85,2.85,0,0,0-.55-1.88A1.92,1.92,0,0,0,167.76,167.78Z"/><path class="cls-2" d="M182.89,175.42l-0.26-1.22h-0.06a3.6,3.6,0,0,1-1.28,1.09,3.9,3.9,0,0,1-1.59.29,2.86,2.86,0,0,1-2-.66A2.39,2.39,0,0,1,177,173q0-2.59,4.15-2.72l1.45,0v-0.53a2.17,2.17,0,0,0-.43-1.49,1.78,1.78,0,0,0-1.39-.48,5.65,5.65,0,0,0-2.42.66l-0.4-1a6.23,6.23,0,0,1,2.9-.73,3.26,3.26,0,0,1,2.27.68,2.84,2.84,0,0,1,.74,2.18v5.84h-1ZM180,174.5a2.63,2.63,0,0,0,1.9-.66,2.46,2.46,0,0,0,.69-1.86v-0.77l-1.3.05a4.71,4.71,0,0,0-2.23.48,1.45,1.45,0,0,0-.68,1.32,1.34,1.34,0,0,0,.43,1.07A1.77,1.77,0,0,0,180,174.5Z"/><path class="cls-2" d="M188.4,175.42l-3.25-8.56h1.39l1.84,5.08a24,24,0,0,1,.73,2.31h0.06a17.53,17.53,0,0,1,.54-1.71q0.46-1.3,2.05-5.68h1.39l-3.25,8.56H188.4Z"/><path class="cls-2" d="M198.16,175.57a3.93,3.93,0,0,1-3-1.16,4.48,4.48,0,0,1-1.1-3.21,5,5,0,0,1,1-3.29,3.39,3.39,0,0,1,2.74-1.22,3.23,3.23,0,0,1,2.55,1.06,4.06,4.06,0,0,1,.94,2.79v0.82h-5.9a3.4,3.4,0,0,0,.76,2.29,2.64,2.64,0,0,0,2,.78,6.9,6.9,0,0,0,2.73-.58V175a6.86,6.86,0,0,1-1.3.43A7.31,7.31,0,0,1,198.16,175.57Zm-0.35-7.79a2.12,2.12,0,0,0-1.64.67,3.1,3.1,0,0,0-.72,1.86h4.48a2.85,2.85,0,0,0-.55-1.88A1.92,1.92,0,0,0,197.81,167.78Z"/><path class="cls-2" d="M207.43,166.7a5.07,5.07,0,0,1,1,.09l-0.18,1.2a4.42,4.42,0,0,0-.94-0.12,2.28,2.28,0,0,0-1.78.84,3.08,3.08,0,0,0-.74,2.1v4.59h-1.3v-8.56h1.07l0.15,1.59h0.06a3.75,3.75,0,0,1,1.15-1.29A2.59,2.59,0,0,1,207.43,166.7Z"/><path class="cls-2" d="M215.32,175.42l-0.26-1.22H215a3.6,3.6,0,0,1-1.28,1.09,3.9,3.9,0,0,1-1.59.29,2.86,2.86,0,0,1-2-.66,2.39,2.39,0,0,1-.72-1.87q0-2.59,4.15-2.72l1.45,0v-0.53a2.17,2.17,0,0,0-.43-1.49,1.78,1.78,0,0,0-1.39-.48,5.65,5.65,0,0,0-2.42.66l-0.4-1a6.23,6.23,0,0,1,2.9-.73,3.26,3.26,0,0,1,2.27.68,2.84,2.84,0,0,1,.74,2.18v5.84h-1Zm-2.93-.91a2.63,2.63,0,0,0,1.9-.66A2.46,2.46,0,0,0,215,172v-0.77l-1.3.05a4.71,4.71,0,0,0-2.23.48,1.45,1.45,0,0,0-.68,1.32,1.34,1.34,0,0,0,.43,1.07A1.77,1.77,0,0,0,212.39,174.5Z"/><path class="cls-2" d="M226,166.85v0.82l-1.59.19a2.79,2.79,0,0,1,.56,1.71,2.53,2.53,0,0,1-.86,2,3.47,3.47,0,0,1-2.36.75,3.94,3.94,0,0,1-.72-0.06,1.28,1.28,0,0,0-.83,1.1,0.56,0.56,0,0,0,.29.52,2.11,2.11,0,0,0,1,.17H223a3.39,3.39,0,0,1,2.14.59,2,2,0,0,1,.75,1.7,2.43,2.43,0,0,1-1.14,2.17,6.11,6.11,0,0,1-3.33.75,4.55,4.55,0,0,1-2.59-.62,2,2,0,0,1-.91-1.77,2,2,0,0,1,.5-1.35,2.54,2.54,0,0,1,1.41-.77,1.36,1.36,0,0,1-.55-0.46,1.22,1.22,0,0,1-.22-0.73,1.38,1.38,0,0,1,.25-0.82,2.63,2.63,0,0,1,.79-0.68,2.31,2.31,0,0,1-1.08-.93,2.73,2.73,0,0,1-.42-1.5,2.77,2.77,0,0,1,.84-2.17,3.44,3.44,0,0,1,2.39-.76,4.33,4.33,0,0,1,1.21.16h3Zm-6.83,10a1.16,1.16,0,0,0,.59,1.05,3.24,3.24,0,0,0,1.68.36,4.69,4.69,0,0,0,2.42-.49,1.5,1.5,0,0,0,.79-1.32,1,1,0,0,0-.43-1,3.34,3.34,0,0,0-1.62-.27H221a2,2,0,0,0-1.37.42A1.51,1.51,0,0,0,219.13,176.85Zm0.7-7.26a1.74,1.74,0,0,0,.51,1.36,2,2,0,0,0,1.41.46,1.65,1.65,0,0,0,1.9-1.84,1.7,1.7,0,0,0-1.92-1.93,1.9,1.9,0,0,0-1.41.49A2,2,0,0,0,219.83,169.6Z"/><path class="cls-2" d="M231.33,175.57a3.93,3.93,0,0,1-3-1.16,4.48,4.48,0,0,1-1.1-3.21,5,5,0,0,1,1-3.29A3.39,3.39,0,0,1,231,166.7a3.23,3.23,0,0,1,2.55,1.06,4.06,4.06,0,0,1,.94,2.79v0.82h-5.9a3.4,3.4,0,0,0,.76,2.29,2.64,2.64,0,0,0,2,.78,6.9,6.9,0,0,0,2.73-.58V175a6.86,6.86,0,0,1-1.3.43A7.31,7.31,0,0,1,231.33,175.57ZM231,167.78a2.12,2.12,0,0,0-1.64.67,3.1,3.1,0,0,0-.72,1.86h4.48a2.85,2.85,0,0,0-.55-1.88A1.92,1.92,0,0,0,231,167.78Z"/><path class="cls-2" d="M246.37,173.08a2.15,2.15,0,0,1-.89,1.84,4.19,4.19,0,0,1-2.5.65,5.44,5.44,0,0,1-2.66-.54v-1.2a6.45,6.45,0,0,0,1.32.49,5.54,5.54,0,0,0,1.36.18,3.1,3.1,0,0,0,1.56-.32,1.12,1.12,0,0,0,.11-1.84,6.8,6.8,0,0,0-1.69-.84,9.18,9.18,0,0,1-1.7-.78,2.32,2.32,0,0,1-.75-0.75,2,2,0,0,1-.25-1,1.92,1.92,0,0,1,.85-1.65,4,4,0,0,1,2.34-.61,6.83,6.83,0,0,1,2.7.56l-0.46,1.05a6.2,6.2,0,0,0-2.34-.53,2.69,2.69,0,0,0-1.39.29,0.89,0.89,0,0,0-.47.8,1,1,0,0,0,.18.59,1.74,1.74,0,0,0,.57.46,12.82,12.82,0,0,0,1.5.63,5.6,5.6,0,0,1,2.06,1.12A2,2,0,0,1,246.37,173.08Z"/><path class="cls-2" d="M251.9,175.57a3.66,3.66,0,0,1-2.88-1.14,4.71,4.71,0,0,1-1-3.24,4.85,4.85,0,0,1,1-3.32A3.73,3.73,0,0,1,252,166.7a5.83,5.83,0,0,1,1.23.13,4,4,0,0,1,1,.31l-0.4,1.1a6,6,0,0,0-.94-0.29,4.18,4.18,0,0,0-.9-0.11q-2.61,0-2.61,3.33a4,4,0,0,0,.64,2.42,2.22,2.22,0,0,0,1.89.84,5.77,5.77,0,0,0,2.2-.46v1.15A4.68,4.68,0,0,1,251.9,175.57Z"/><path class="cls-2" d="M263.49,171.13a4.72,4.72,0,0,1-1.05,3.27,3.72,3.72,0,0,1-2.91,1.18,3.86,3.86,0,0,1-2-.54,3.56,3.56,0,0,1-1.37-1.55,5.39,5.39,0,0,1-.48-2.36,4.71,4.71,0,0,1,1-3.26,3.7,3.7,0,0,1,2.91-1.17,3.62,3.62,0,0,1,2.86,1.2A4.7,4.7,0,0,1,263.49,171.13Zm-6.52,0a4.06,4.06,0,0,0,.66,2.5,2.6,2.6,0,0,0,3.86,0,4,4,0,0,0,.66-2.5,4,4,0,0,0-.66-2.48,2.32,2.32,0,0,0-1.95-.85,2.28,2.28,0,0,0-1.92.84A4,4,0,0,0,257,171.13Z"/><path class="cls-2" d="M269.67,166.7a5.07,5.07,0,0,1,1,.09l-0.18,1.2a4.42,4.42,0,0,0-.94-0.12,2.28,2.28,0,0,0-1.78.84,3.08,3.08,0,0,0-.74,2.1v4.59h-1.3v-8.56h1.07l0.15,1.59H267a3.75,3.75,0,0,1,1.15-1.29A2.59,2.59,0,0,1,269.67,166.7Z"/><path class="cls-2" d="M275.91,175.57a3.93,3.93,0,0,1-3-1.16,4.48,4.48,0,0,1-1.1-3.21,5,5,0,0,1,1-3.29,3.39,3.39,0,0,1,2.74-1.22,3.23,3.23,0,0,1,2.55,1.06,4.06,4.06,0,0,1,.94,2.79v0.82h-5.9a3.4,3.4,0,0,0,.76,2.29,2.64,2.64,0,0,0,2,.78,6.9,6.9,0,0,0,2.73-.58V175a6.86,6.86,0,0,1-1.3.43A7.31,7.31,0,0,1,275.91,175.57Zm-0.35-7.79a2.12,2.12,0,0,0-1.64.67,3.1,3.1,0,0,0-.72,1.86h4.48a2.85,2.85,0,0,0-.55-1.88A1.92,1.92,0,0,0,275.56,167.78Z"/><path class="cls-2" d="M286.79,173.08a2.15,2.15,0,0,1-.89,1.84,4.19,4.19,0,0,1-2.5.65,5.44,5.44,0,0,1-2.66-.54v-1.2a6.45,6.45,0,0,0,1.32.49,5.54,5.54,0,0,0,1.36.18,3.1,3.1,0,0,0,1.56-.32,1.12,1.12,0,0,0,.11-1.84,6.8,6.8,0,0,0-1.69-.84,9.18,9.18,0,0,1-1.7-.78A2.32,2.32,0,0,1,281,170a2,2,0,0,1-.25-1,1.92,1.92,0,0,1,.85-1.65,4,4,0,0,1,2.34-.61,6.83,6.83,0,0,1,2.7.56l-0.46,1.05a6.2,6.2,0,0,0-2.34-.53,2.69,2.69,0,0,0-1.39.29,0.89,0.89,0,0,0-.47.8,1,1,0,0,0,.18.59,1.74,1.74,0,0,0,.57.46,12.82,12.82,0,0,0,1.5.63,5.6,5.6,0,0,1,2.06,1.12A2,2,0,0,1,286.79,173.08Z"/><path class="cls-2" d="M6.77,199.88l3-5.71h1.44l-3.81,7v4.43H6.09v-4.37l-3.8-7.06H3.74Z"/><path class="cls-2" d="M16.24,205.74a3.93,3.93,0,0,1-3-1.16,4.48,4.48,0,0,1-1.1-3.21,5,5,0,0,1,1-3.29,3.39,3.39,0,0,1,2.74-1.22,3.23,3.23,0,0,1,2.55,1.06,4.06,4.06,0,0,1,.94,2.79v0.82h-5.9a3.39,3.39,0,0,0,.76,2.29,2.64,2.64,0,0,0,2,.78A6.91,6.91,0,0,0,19,204v1.16a6.92,6.92,0,0,1-1.3.43A7.31,7.31,0,0,1,16.24,205.74ZM15.89,198a2.12,2.12,0,0,0-1.64.67,3.09,3.09,0,0,0-.72,1.86H18a2.85,2.85,0,0,0-.55-1.88A1.92,1.92,0,0,0,15.89,198Z"/><path class="cls-2" d="M26.87,205.59l-0.26-1.22H26.55a3.61,3.61,0,0,1-1.28,1.09,3.91,3.91,0,0,1-1.59.29,2.86,2.86,0,0,1-2-.66,2.39,2.39,0,0,1-.72-1.87q0-2.59,4.15-2.72l1.45,0v-0.53a2.17,2.17,0,0,0-.43-1.49,1.78,1.78,0,0,0-1.39-.48,5.65,5.65,0,0,0-2.42.66l-0.4-1a6.06,6.06,0,0,1,1.39-.54,6,6,0,0,1,1.51-.2,3.26,3.26,0,0,1,2.27.68,2.84,2.84,0,0,1,.74,2.18v5.84h-1Zm-2.93-.91a2.63,2.63,0,0,0,1.9-.66,2.46,2.46,0,0,0,.69-1.86v-0.77l-1.3.05a4.71,4.71,0,0,0-2.23.48,1.45,1.45,0,0,0-.68,1.32,1.34,1.34,0,0,0,.43,1.07A1.77,1.77,0,0,0,23.94,204.67Z"/><path class="cls-2" d="M34.41,196.87a5.08,5.08,0,0,1,1,.09l-0.18,1.2a4.42,4.42,0,0,0-.94-0.12,2.28,2.28,0,0,0-1.78.84,3.08,3.08,0,0,0-.74,2.1v4.59H30.5V197h1.07l0.15,1.59h0.06a3.75,3.75,0,0,1,1.15-1.29A2.58,2.58,0,0,1,34.41,196.87Z"/><path class="cls-3" d="M11.32,361.28h-9v-1.89l3.23-3.26q1.43-1.47,1.87-2A4.48,4.48,0,0,0,8.07,353a2.67,2.67,0,0,0,.19-1,1.46,1.46,0,0,0-.43-1.15,1.65,1.65,0,0,0-1.14-.38,3.27,3.27,0,0,0-1.45.34,7.48,7.48,0,0,0-1.47,1l-1.48-1.75a9.63,9.63,0,0,1,1.57-1.14,5.78,5.78,0,0,1,1.36-.51,7,7,0,0,1,1.65-.18,4.89,4.89,0,0,1,2.13.44,3.39,3.39,0,0,1,1.43,1.23,3.27,3.27,0,0,1,.51,1.81,4.43,4.43,0,0,1-.31,1.67,6.4,6.4,0,0,1-1,1.6,23.65,23.65,0,0,1-2.31,2.33l-1.65,1.56V359h5.6v2.29Z"/><path class="cls-3" d="M21.53,354.85a9,9,0,0,1-1.1,5,3.83,3.83,0,0,1-3.4,1.62,3.78,3.78,0,0,1-3.35-1.67,8.83,8.83,0,0,1-1.13-4.93,9,9,0,0,1,1.1-5A3.81,3.81,0,0,1,17,348.23a3.79,3.79,0,0,1,3.36,1.69A8.85,8.85,0,0,1,21.53,354.85Zm-6.28,0a10,10,0,0,0,.41,3.39,1.41,1.41,0,0,0,1.38,1,1.43,1.43,0,0,0,1.37-1,13.73,13.73,0,0,0,0-6.77,1.42,1.42,0,0,0-2.74,0A10,10,0,0,0,15.24,354.85Z"/><path class="cls-3" d="M31.8,354.85a9,9,0,0,1-1.1,5,3.83,3.83,0,0,1-3.4,1.62,3.78,3.78,0,0,1-3.35-1.67,8.83,8.83,0,0,1-1.13-4.93,9,9,0,0,1,1.1-5,3.81,3.81,0,0,1,3.38-1.61,3.79,3.79,0,0,1,3.36,1.69A8.85,8.85,0,0,1,31.8,354.85Zm-6.28,0a10,10,0,0,0,.41,3.39,1.41,1.41,0,0,0,1.38,1,1.43,1.43,0,0,0,1.37-1,13.73,13.73,0,0,0,0-6.77,1.42,1.42,0,0,0-2.74,0A10,10,0,0,0,25.52,354.85Z"/><path class="cls-3" d="M37.59,348.26a4.87,4.87,0,0,1,3,.84,2.68,2.68,0,0,1,1.13,2.26,3,3,0,0,1-.54,1.75,4.64,4.64,0,0,1-1.76,1.38,6.23,6.23,0,0,1,2.07,1.61,3,3,0,0,1,.63,1.84,3.06,3.06,0,0,1-1.24,2.54,5.17,5.17,0,0,1-3.26,1,5.44,5.44,0,0,1-3.31-.9,3,3,0,0,1-1.2-2.54,3.37,3.37,0,0,1,.58-2,4.85,4.85,0,0,1,1.88-1.5A4.82,4.82,0,0,1,34,353.08a3.25,3.25,0,0,1-.48-1.73,2.66,2.66,0,0,1,1.14-2.23A4.86,4.86,0,0,1,37.59,348.26Zm-2,9.6a1.42,1.42,0,0,0,.53,1.18,2.76,2.76,0,0,0,3,0,1.45,1.45,0,0,0,.5-1.15,1.57,1.57,0,0,0-.5-1.1,6.38,6.38,0,0,0-1.61-1.09Q35.59,356.54,35.59,357.86Zm2-7.61a1.69,1.69,0,0,0-1.12.36,1.18,1.18,0,0,0-.43,1,1.46,1.46,0,0,0,.34.94,3.72,3.72,0,0,0,1.23.86,3.43,3.43,0,0,0,1.2-.83,1.5,1.5,0,0,0,.34-1,1.16,1.16,0,0,0-.44-1A1.74,1.74,0,0,0,37.58,350.25Z"/><path class="cls-3" d="M11.32,273.5h-9v-1.89l3.23-3.26q1.43-1.47,1.87-2a4.48,4.48,0,0,0,.63-1.05,2.67,2.67,0,0,0,.19-1,1.46,1.46,0,0,0-.43-1.15,1.65,1.65,0,0,0-1.14-.38,3.27,3.27,0,0,0-1.45.34,7.48,7.48,0,0,0-1.47,1l-1.48-1.75a9.63,9.63,0,0,1,1.57-1.14,5.77,5.77,0,0,1,1.36-.51,7,7,0,0,1,1.65-.18,4.89,4.89,0,0,1,2.13.44,3.39,3.39,0,0,1,1.43,1.23,3.27,3.27,0,0,1,.51,1.81,4.43,4.43,0,0,1-.31,1.67,6.39,6.39,0,0,1-1,1.59,23.64,23.64,0,0,1-2.31,2.33l-1.65,1.56v0.12h5.6v2.29Z"/><path class="cls-3" d="M21.53,267.08a9,9,0,0,1-1.1,5,3.83,3.83,0,0,1-3.4,1.62A3.78,3.78,0,0,1,13.67,272a8.83,8.83,0,0,1-1.13-4.93,9,9,0,0,1,1.1-5A3.81,3.81,0,0,1,17,260.45a3.79,3.79,0,0,1,3.36,1.69A8.85,8.85,0,0,1,21.53,267.08Zm-6.28,0a10,10,0,0,0,.41,3.39,1.41,1.41,0,0,0,1.38,1,1.43,1.43,0,0,0,1.37-1,13.73,13.73,0,0,0,0-6.77,1.42,1.42,0,0,0-2.74,0A10,10,0,0,0,15.24,267.08Z"/><path class="cls-3" d="M29.6,273.5H26.89v-7.44l0-1.22,0-1.34q-0.68.68-.94,0.89l-1.48,1.19-1.31-1.63,4.14-3.3H29.6V273.5Z"/><path class="cls-3" d="M33.08,268q0-3.81,1.61-5.68a6,6,0,0,1,4.83-1.86,8.76,8.76,0,0,1,1.72.13v2.17a7,7,0,0,0-1.55-.18,5.31,5.31,0,0,0-2.28.42,2.84,2.84,0,0,0-1.32,1.25,5.73,5.73,0,0,0-.52,2.35h0.11a3,3,0,0,1,2.79-1.49,3.45,3.45,0,0,1,2.7,1.08,4.3,4.3,0,0,1,1,3A4.49,4.49,0,0,1,41,272.48a4.27,4.27,0,0,1-3.22,1.2,4.6,4.6,0,0,1-2.48-.66,4.28,4.28,0,0,1-1.63-1.92A7.33,7.33,0,0,1,33.08,268Zm4.64,3.46a1.61,1.61,0,0,0,1.34-.58,2.62,2.62,0,0,0,.47-1.67,2.3,2.3,0,0,0-.44-1.48,1.59,1.59,0,0,0-1.31-.54,2,2,0,0,0-1.41.54,1.65,1.65,0,0,0-.58,1.25,2.83,2.83,0,0,0,.55,1.77A1.68,1.68,0,0,0,37.72,271.51Z"/><rect class="cls-4" x="75.35" y="333.43" width="227.32" height="37.92"/><rect class="cls-1" x="75.35" y="333.43" width="113.66" height="37.92"/><rect class="cls-4" x="75.35" y="248.24" width="227.32" height="37.92"/><rect class="cls-1" x="75.35" y="248.24" width="111.39" height="37.92"/><path class="cls-5" d="M153.94,194a7.56,7.56,0,0,1,.38-2.42,6,6,0,0,1,1.09-2h0.79a6.88,6.88,0,0,0-1.06,2.07,7.7,7.7,0,0,0-.35,2.32,7.41,7.41,0,0,0,.36,2.29,7.1,7.1,0,0,0,1,2h-0.78a5.76,5.76,0,0,1-1.09-1.94A7.37,7.37,0,0,1,153.94,194Z"/><path class="cls-5" d="M164.31,193.14a5.21,5.21,0,0,1-.58,2.76,2.15,2.15,0,0,1-3.54,0,5.11,5.11,0,0,1-.6-2.74,5.21,5.21,0,0,1,.58-2.77,2.16,2.16,0,0,1,3.54,0A5.09,5.09,0,0,1,164.31,193.14Zm-3.9,0a5.23,5.23,0,0,0,.37,2.27,1.32,1.32,0,0,0,2.34,0,7.18,7.18,0,0,0,0-4.51,1.32,1.32,0,0,0-2.34,0A5.19,5.19,0,0,0,160.41,193.14Z"/><path class="cls-5" d="M167.82,194.41v-0.74h2.4v0.74h-2.4Z"/><path class="cls-5" d="M178.14,191.26a1.63,1.63,0,0,1-.38,1.12,1.92,1.92,0,0,1-1.09.58v0a2,2,0,0,1,1.27.55,1.61,1.61,0,0,1,.42,1.15,1.87,1.87,0,0,1-.71,1.57,3.22,3.22,0,0,1-2,.55,5.86,5.86,0,0,1-1-.09,3.55,3.55,0,0,1-.92-0.3v-0.77a4.68,4.68,0,0,0,2,.47q1.85,0,1.85-1.45,0-1.3-2-1.3h-0.7v-0.7h0.71a2.14,2.14,0,0,0,1.32-.37,1.21,1.21,0,0,0,.49-1,1,1,0,0,0-.36-0.82,1.48,1.48,0,0,0-1-.3,3,3,0,0,0-.88.13,3.94,3.94,0,0,0-.95.47l-0.41-.55a3.43,3.43,0,0,1,1-.54,3.68,3.68,0,0,1,1.21-.2,2.47,2.47,0,0,1,1.62.48A1.6,1.6,0,0,1,178.14,191.26Z"/><path class="cls-5" d="M184.16,193.14a5.21,5.21,0,0,1-.58,2.76,2.15,2.15,0,0,1-3.54,0,5.11,5.11,0,0,1-.6-2.74,5.21,5.21,0,0,1,.58-2.77,2.16,2.16,0,0,1,3.54,0A5.09,5.09,0,0,1,184.16,193.14Zm-3.9,0a5.23,5.23,0,0,0,.37,2.27,1.32,1.32,0,0,0,2.34,0,7.18,7.18,0,0,0,0-4.51,1.32,1.32,0,0,0-2.34,0A5.19,5.19,0,0,0,180.26,193.14Z"/><path class="cls-5" d="M189.88,193.14a5.21,5.21,0,0,1-.58,2.76,2.15,2.15,0,0,1-3.54,0,5.11,5.11,0,0,1-.6-2.74,5.21,5.21,0,0,1,.58-2.77,2.16,2.16,0,0,1,3.54,0A5.09,5.09,0,0,1,189.88,193.14Zm-3.9,0a5.23,5.23,0,0,0,.37,2.27,1.32,1.32,0,0,0,2.34,0,7.18,7.18,0,0,0,0-4.51,1.32,1.32,0,0,0-2.34,0A5.19,5.19,0,0,0,186,193.14Z"/><path class="cls-5" d="M198,194.82a1.75,1.75,0,0,1-.68,1.47,3,3,0,0,1-1.86.53,4.64,4.64,0,0,1-2-.33v-0.8a5.16,5.16,0,0,0,1,.29,5,5,0,0,0,1,.11,2.07,2.07,0,0,0,1.25-.31,1,1,0,0,0,.42-0.88,1.13,1.13,0,0,0-.15-0.61,1.38,1.38,0,0,0-.5-0.44,7,7,0,0,0-1.06-.45,3.39,3.39,0,0,1-1.42-.84,1.87,1.87,0,0,1-.43-1.27,1.58,1.58,0,0,1,.62-1.31,2.58,2.58,0,0,1,1.64-.49,4.84,4.84,0,0,1,2,.39l-0.26.72a4.42,4.42,0,0,0-1.72-.37,1.66,1.66,0,0,0-1,.28,0.93,0.93,0,0,0-.37.79,1.2,1.2,0,0,0,.14.61,1.29,1.29,0,0,0,.46.43,5.75,5.75,0,0,0,1,.44,3.94,3.94,0,0,1,1.55.86A1.69,1.69,0,0,1,198,194.82Z"/><path class="cls-5" d="M202.5,190.22a2.33,2.33,0,0,0-1.86.78,3.16,3.16,0,0,0-.68,2.15,3.22,3.22,0,0,0,.66,2.17,2.33,2.33,0,0,0,1.87.76,6.39,6.39,0,0,0,1.7-.27v0.73a5.25,5.25,0,0,1-1.83.28,3.1,3.1,0,0,1-2.43-1,3.94,3.94,0,0,1-.86-2.72,4.29,4.29,0,0,1,.41-1.93,3,3,0,0,1,1.19-1.28,3.61,3.61,0,0,1,1.83-.45,4.42,4.42,0,0,1,2,.41l-0.35.71A3.78,3.78,0,0,0,202.5,190.22Z"/><path class="cls-5" d="M210.24,196.72l-0.89-2.27h-2.86l-0.88,2.27h-0.84l2.82-7.17h0.7l2.81,7.17h-0.86Zm-1.15-3-0.83-2.21q-0.16-.42-0.33-1a9.33,9.33,0,0,1-.31,1l-0.84,2.21h2.31Z"/><path class="cls-5" d="M212.08,196.72v-7.14h0.83V196h3.15v0.75h-4Z"/><path class="cls-5" d="M221.25,196.72h-4v-7.14h4v0.74H218.1v2.3h3v0.73h-3V196h3.15v0.74Z"/><path class="cls-5" d="M227,194a7.35,7.35,0,0,1-.38,2.39,5.73,5.73,0,0,1-1.09,1.93h-0.78a7,7,0,0,0,1-2,7.43,7.43,0,0,0,.36-2.29,7.7,7.7,0,0,0-.35-2.32,6.88,6.88,0,0,0-1.06-2.07h0.79a6,6,0,0,1,1.09,2A7.61,7.61,0,0,1,227,194Z"/><line class="cls-6" x1="75.35" y1="204.64" x2="302.67" y2="204.64"/><line class="cls-7" y1="309.82" x2="421.55" y2="309.82"/><line class="cls-7" y1="222.41" x2="421.55" y2="222.41"/><line class="cls-7" y1="392.68" x2="421.55" y2="392.68"/><line class="cls-6" x1="75.73" y1="199.71" x2="75.73" y2="210.32"/><line class="cls-6" x1="189.01" y1="201.23" x2="189.01" y2="208.81"/><line class="cls-6" x1="302.67" y1="199.34" x2="302.67" y2="209.94"/><path class="cls-8" d="M245.45,0h-72a9,9,0,0,0-9,9V81a9,9,0,0,0,9,9h72a9,9,0,0,0,9-9V9A9,9,0,0,0,245.45,0Zm6.19,81a6.19,6.19,0,0,1-6.19,6.19h-72A6.19,6.19,0,0,1,167.26,81V9a6.19,6.19,0,0,1,6.19-6.19h72A6.19,6.19,0,0,1,251.63,9V81Z"/><path class="cls-8" d="M190.39,65.35a13.75,13.75,0,0,0-5.07.42c-5.45,1.46-8.93,5.53-7.93,9.27a6.07,6.07,0,0,0,4.31,4,11.32,11.32,0,0,0,3.49.52,14.36,14.36,0,0,0,3.7-.5c4.71-1.26,8.11-4.63,8.09-8v-37l28.5-4v31a13.73,13.73,0,0,0-5.07.42,12.86,12.86,0,0,0-6.21,3.62,5.6,5.6,0,0,0,2.6,9.7,12.86,12.86,0,0,0,7.19,0c4.78-1.28,8.19-4.7,8.09-8.1V13.19L190.39,19V65.35Zm2.11,2.58V20.83L230,15.61V66.82c0.07,2.42-2.74,5-6.53,6a10.73,10.73,0,0,1-6,0,3.53,3.53,0,0,1-1.68-6.28,10.73,10.73,0,0,1,5.19-3,11.26,11.26,0,0,1,5.34-.19l1.29,0.3v-36l-32.72,4.57V71.11c0,2.4-2.79,5-6.53,6a10.73,10.73,0,0,1-6,0,4.06,4.06,0,0,1-2.92-2.58c-0.67-2.51,2.27-5.57,6.43-6.69a12.23,12.23,0,0,1,3.15-.42,9.69,9.69,0,0,1,2.19.24Z"/><polygon class="cls-9" points="227.6 20.71 194.88 25.37 194.88 27.5 227.6 22.85 227.6 20.71"/><path class="cls-1" d="M390.6,350.22q0-6.75,2.85-10t8.54-3.3a15.53,15.53,0,0,1,3,.23V341a12.47,12.47,0,0,0-2.74-.31,9.4,9.4,0,0,0-4,.75,5,5,0,0,0-2.34,2.21,10.13,10.13,0,0,0-.92,4.15h0.2a5.28,5.28,0,0,1,4.93-2.64,6.1,6.1,0,0,1,4.77,1.91,7.6,7.6,0,0,1,1.73,5.29,7.94,7.94,0,0,1-2.05,5.76,7.55,7.55,0,0,1-5.69,2.12,8.15,8.15,0,0,1-4.39-1.17,7.57,7.57,0,0,1-2.89-3.4A13,13,0,0,1,390.6,350.22Zm8.21,6.13a2.85,2.85,0,0,0,2.36-1,4.63,4.63,0,0,0,.82-2.95,4.07,4.07,0,0,0-.77-2.62,2.81,2.81,0,0,0-2.33-1,3.56,3.56,0,0,0-2.5.95,2.91,2.91,0,0,0-1,2.21,5,5,0,0,0,1,3.13A3,3,0,0,0,398.81,356.35Z"/><path class="cls-1" d="M425.34,355.17H422.6v4.71h-4.7v-4.71h-9.7v-3.34l10-14.68h4.43v14.29h2.74v3.73Zm-7.43-3.73v-3.86q0-1,.08-2.8t0.13-2.13H418a17.24,17.24,0,0,1-1.38,2.49l-4.17,6.3h5.47Z"/><path class="cls-1" d="M431.85,351.75a4.45,4.45,0,0,1-.71,2.74,2.45,2.45,0,0,1-2.07.92,2.39,2.39,0,0,1-2-.94,4.43,4.43,0,0,1-.71-2.71q0-3.62,2.74-3.62a2.43,2.43,0,0,1,2.06.94A4.35,4.35,0,0,1,431.85,351.75Zm-3.51,0a4.71,4.71,0,0,0,.18,1.5,0.61,0.61,0,0,0,.57.5q0.76,0,.76-2t-0.76-2a0.61,0.61,0,0,0-.57.49A4.63,4.63,0,0,0,428.33,351.76Zm9-3.47-6.43,11.59H429l6.43-11.59h1.9Zm2.66,8.09a4.43,4.43,0,0,1-.71,2.73,2.45,2.45,0,0,1-2.07.92,2.38,2.38,0,0,1-2-.94,4.41,4.41,0,0,1-.71-2.71q0-3.62,2.74-3.62a2.44,2.44,0,0,1,2.06.94A4.35,4.35,0,0,1,440,356.38Zm-3.51,0a4.71,4.71,0,0,0,.18,1.5,0.62,0.62,0,0,0,.57.5q0.76,0,.76-2t-0.76-2a0.61,0.61,0,0,0-.57.49A4.64,4.64,0,0,0,436.45,356.39Z"/><path class="cls-1" d="M346.16,167.4a4.94,4.94,0,0,1-.6,2.69,2,2,0,0,1-1.75.91,1.92,1.92,0,0,1-1.7-.93,4.91,4.91,0,0,1-.61-2.67,5,5,0,0,1,.58-2.67,1.92,1.92,0,0,1,1.72-.9,2,2,0,0,1,1.74.93A4.81,4.81,0,0,1,346.16,167.4Zm-3.58,0a5.25,5.25,0,0,0,.29,2,1,1,0,0,0,.94.66q1.28,0,1.28-2.66t-1.28-2.64a1,1,0,0,0-.94.66A5.18,5.18,0,0,0,342.58,167.4ZM351,164l-6.34,11.42h-1.15L349.88,164H351Zm2,8a4.92,4.92,0,0,1-.6,2.68,2,2,0,0,1-1.75.91,1.91,1.91,0,0,1-1.71-.93,6.33,6.33,0,0,1,0-5.34,1.92,1.92,0,0,1,1.72-.9,2,2,0,0,1,1.73.92A4.73,4.73,0,0,1,353,172Zm-3.59,0a5.24,5.24,0,0,0,.29,2,1,1,0,0,0,.95.66,1,1,0,0,0,1-.65,4.88,4.88,0,0,0,.31-2,4.77,4.77,0,0,0-.31-2,1,1,0,0,0-1-.64,1,1,0,0,0-.95.64A5.11,5.11,0,0,0,349.46,172Z"/><path class="cls-1" d="M362.16,174.5a4.26,4.26,0,0,0,.66-0.05,4.42,4.42,0,0,0,.51-0.11v1a2.41,2.41,0,0,1-.62.17,4.7,4.7,0,0,1-.74.07q-2.48,0-2.48-2.62v-5.09h-1.23v-0.62l1.23-.54,0.55-1.83h0.75v2h2.48v1h-2.48v5a1.73,1.73,0,0,0,.37,1.19A1.28,1.28,0,0,0,362.16,174.5Z"/><path class="cls-1" d="M370.31,175.42l-0.26-1.22H370a3.6,3.6,0,0,1-1.28,1.09,3.9,3.9,0,0,1-1.59.29,2.86,2.86,0,0,1-2-.66,2.39,2.39,0,0,1-.72-1.87q0-2.59,4.15-2.72l1.45,0v-0.53a2.17,2.17,0,0,0-.43-1.49,1.78,1.78,0,0,0-1.39-.48,5.65,5.65,0,0,0-2.42.66l-0.4-1a6.23,6.23,0,0,1,2.9-.73,3.26,3.26,0,0,1,2.27.68,2.84,2.84,0,0,1,.74,2.18v5.84h-1Zm-2.93-.91a2.63,2.63,0,0,0,1.9-.66A2.46,2.46,0,0,0,370,172v-0.77l-1.3.05a4.71,4.71,0,0,0-2.23.48,1.45,1.45,0,0,0-.68,1.32,1.34,1.34,0,0,0,.43,1.07A1.77,1.77,0,0,0,367.38,174.5Z"/><path class="cls-1" d="M375.23,171a15.22,15.22,0,0,1,1-1.25l2.77-2.93h1.54l-3.47,3.65,3.71,4.91h-1.57l-3-4-1,.84v3.2h-1.28V163.26h1.28v6.45q0,0.43-.06,1.33h0.06Z"/><path class="cls-1" d="M382.23,164.53a0.86,0.86,0,0,1,.22-0.65,0.81,0.81,0,0,1,1.09,0,0.84,0.84,0,0,1,.23.65,0.86,0.86,0,0,1-.23.65,0.76,0.76,0,0,1-.54.21,0.75,0.75,0,0,1-.55-0.21A0.88,0.88,0,0,1,382.23,164.53Zm1.41,10.88h-1.3v-8.56h1.3v8.56Z"/><path class="cls-1" d="M392.25,175.42v-5.54a2.24,2.24,0,0,0-.48-1.56,1.94,1.94,0,0,0-1.49-.52,2.46,2.46,0,0,0-2,.73,3.67,3.67,0,0,0-.62,2.4v4.49h-1.3v-8.56h1.05l0.21,1.17h0.06a2.64,2.64,0,0,1,1.12-1,3.63,3.63,0,0,1,1.6-.35,3.25,3.25,0,0,1,2.33.75,3.18,3.18,0,0,1,.78,2.39v5.59h-1.3Z"/><path class="cls-1" d="M403.22,166.85v0.82l-1.59.19a2.79,2.79,0,0,1,.56,1.71,2.53,2.53,0,0,1-.86,2,3.47,3.47,0,0,1-2.36.75,3.94,3.94,0,0,1-.72-0.06,1.28,1.28,0,0,0-.83,1.1,0.56,0.56,0,0,0,.29.52,2.11,2.11,0,0,0,1,.17h1.52a3.39,3.39,0,0,1,2.14.59,2,2,0,0,1,.75,1.7,2.43,2.43,0,0,1-1.14,2.17,6.11,6.11,0,0,1-3.33.75,4.55,4.55,0,0,1-2.59-.62,2,2,0,0,1-.91-1.77,2,2,0,0,1,.5-1.35,2.54,2.54,0,0,1,1.41-.77,1.36,1.36,0,0,1-.55-0.46,1.22,1.22,0,0,1-.22-0.73,1.38,1.38,0,0,1,.25-0.82,2.63,2.63,0,0,1,.79-0.68,2.31,2.31,0,0,1-1.08-.93,2.73,2.73,0,0,1-.42-1.5,2.77,2.77,0,0,1,.84-2.17,3.44,3.44,0,0,1,2.39-.76,4.33,4.33,0,0,1,1.21.16h3Zm-6.83,10a1.16,1.16,0,0,0,.59,1.05,3.24,3.24,0,0,0,1.68.36,4.69,4.69,0,0,0,2.42-.49,1.5,1.5,0,0,0,.79-1.32,1,1,0,0,0-.43-1,3.34,3.34,0,0,0-1.62-.27h-1.55a2,2,0,0,0-1.37.42A1.51,1.51,0,0,0,396.39,176.85Zm0.7-7.26a1.74,1.74,0,0,0,.51,1.36,2,2,0,0,0,1.41.46,1.65,1.65,0,0,0,1.9-1.84,1.7,1.7,0,0,0-1.92-1.93,1.9,1.9,0,0,0-1.41.49A2,2,0,0,0,397.09,169.6Z"/><path class="cls-1" d="M414.4,175.42l-0.26-1.22h-0.06a3.6,3.6,0,0,1-1.28,1.09,3.9,3.9,0,0,1-1.59.29,2.86,2.86,0,0,1-2-.66,2.39,2.39,0,0,1-.72-1.87q0-2.59,4.15-2.72l1.45,0v-0.53a2.17,2.17,0,0,0-.43-1.49,1.78,1.78,0,0,0-1.39-.48,5.65,5.65,0,0,0-2.42.66l-0.4-1a6.23,6.23,0,0,1,2.9-.73,3.26,3.26,0,0,1,2.27.68,2.84,2.84,0,0,1,.74,2.18v5.84h-1Zm-2.93-.91a2.63,2.63,0,0,0,1.9-.66,2.46,2.46,0,0,0,.69-1.86v-0.77l-1.3.05a4.71,4.71,0,0,0-2.23.48,1.45,1.45,0,0,0-.68,1.32,1.34,1.34,0,0,0,.43,1.07A1.77,1.77,0,0,0,411.47,174.5Z"/><path class="cls-1" d="M349,194.62V189a2.31,2.31,0,0,0-.44-1.54,1.69,1.69,0,0,0-1.36-.51,2.2,2.2,0,0,0-1.79.7,3.3,3.3,0,0,0-.58,2.14v4.78h-1.3V189a2.31,2.31,0,0,0-.44-1.54,1.7,1.7,0,0,0-1.37-.51,2.12,2.12,0,0,0-1.79.73,4,4,0,0,0-.57,2.39v4.49h-1.3v-8.56h1.05l0.21,1.17h0.06a2.55,2.55,0,0,1,1-1,3.16,3.16,0,0,1,1.5-.35,2.54,2.54,0,0,1,2.63,1.45h0.06a2.73,2.73,0,0,1,1.11-1.06,3.44,3.44,0,0,1,1.66-.39,2.9,2.9,0,0,1,2.18.75,3.34,3.34,0,0,1,.72,2.39v5.59H349Z"/><path class="cls-1" d="M354.16,186.05v5.55a2.24,2.24,0,0,0,.48,1.56,1.94,1.94,0,0,0,1.49.52,2.43,2.43,0,0,0,2-.73,3.7,3.7,0,0,0,.62-2.4v-4.5H360v8.56h-1.07l-0.19-1.15h-0.07a2.58,2.58,0,0,1-1.11,1,3.71,3.71,0,0,1-1.61.34,3.27,3.27,0,0,1-2.34-.74,3.16,3.16,0,0,1-.78-2.37v-5.6h1.31Z"/><path class="cls-1" d="M368.28,192.28a2.14,2.14,0,0,1-.89,1.84,4.19,4.19,0,0,1-2.5.65,5.44,5.44,0,0,1-2.66-.54V193a6.39,6.39,0,0,0,1.32.49,5.54,5.54,0,0,0,1.36.18,3.09,3.09,0,0,0,1.56-.32,1.12,1.12,0,0,0,.11-1.84,6.81,6.81,0,0,0-1.69-.84,9.18,9.18,0,0,1-1.7-.78,2.32,2.32,0,0,1-.75-0.75,2,2,0,0,1-.25-1,1.92,1.92,0,0,1,.85-1.65,4,4,0,0,1,2.34-.61,6.83,6.83,0,0,1,2.7.56l-0.46,1.05a6.21,6.21,0,0,0-2.34-.53,2.69,2.69,0,0,0-1.39.29,0.89,0.89,0,0,0-.47.8,1,1,0,0,0,.18.59,1.73,1.73,0,0,0,.57.46,12.65,12.65,0,0,0,1.5.63,5.6,5.6,0,0,1,2.06,1.12A2,2,0,0,1,368.28,192.28Z"/><path class="cls-1" d="M370.28,183.73a0.86,0.86,0,0,1,.22-0.65,0.81,0.81,0,0,1,1.09,0,0.84,0.84,0,0,1,.23.65,0.86,0.86,0,0,1-.23.65,0.76,0.76,0,0,1-.54.21,0.75,0.75,0,0,1-.55-0.21A0.88,0.88,0,0,1,370.28,183.73Zm1.41,10.88h-1.3v-8.56h1.3v8.56Z"/><path class="cls-1" d="M377.86,194.77a3.65,3.65,0,0,1-2.88-1.14,4.71,4.71,0,0,1-1-3.24,4.85,4.85,0,0,1,1-3.32,3.73,3.73,0,0,1,2.95-1.17,5.86,5.86,0,0,1,1.23.13,4.07,4.07,0,0,1,1,.31l-0.4,1.1a6.08,6.08,0,0,0-.94-0.29,4.18,4.18,0,0,0-.9-0.11q-2.61,0-2.61,3.33a4,4,0,0,0,.64,2.42,2.22,2.22,0,0,0,1.89.84,5.77,5.77,0,0,0,2.2-.46v1.15A4.68,4.68,0,0,1,377.86,194.77Z"/><path class="cls-1" d="M389.64,194.77a3.65,3.65,0,0,1-2.88-1.14,4.71,4.71,0,0,1-1-3.24,4.85,4.85,0,0,1,1-3.32,3.73,3.73,0,0,1,2.95-1.17A5.86,5.86,0,0,1,391,186a4.07,4.07,0,0,1,1,.31l-0.4,1.1a6.08,6.08,0,0,0-.94-0.29,4.18,4.18,0,0,0-.9-0.11q-2.61,0-2.61,3.33a4,4,0,0,0,.64,2.42,2.22,2.22,0,0,0,1.89.84,5.77,5.77,0,0,0,2.2-.46v1.15A4.68,4.68,0,0,1,389.64,194.77Z"/><path class="cls-1" d="M395.13,194.62h-1.3V182.46h1.3v12.16Z"/><path class="cls-1" d="M403.14,194.62l-0.26-1.22h-0.06a3.59,3.59,0,0,1-1.28,1.09,3.9,3.9,0,0,1-1.59.29,2.86,2.86,0,0,1-2-.66,2.39,2.39,0,0,1-.72-1.87q0-2.59,4.15-2.72l1.45,0V189a2.17,2.17,0,0,0-.43-1.49A1.78,1.78,0,0,0,401,187a5.65,5.65,0,0,0-2.42.66l-0.4-1a6.1,6.1,0,0,1,1.39-.54,6,6,0,0,1,1.51-.2,3.26,3.26,0,0,1,2.27.68,2.84,2.84,0,0,1,.74,2.18v5.84h-1Zm-2.93-.91a2.63,2.63,0,0,0,1.9-.66,2.46,2.46,0,0,0,.69-1.86v-0.77l-1.3.05a4.72,4.72,0,0,0-2.23.48,1.45,1.45,0,0,0-.68,1.32,1.33,1.33,0,0,0,.43,1.07A1.77,1.77,0,0,0,400.21,193.7Z"/><path class="cls-1" d="M412.3,192.28a2.14,2.14,0,0,1-.89,1.84,4.19,4.19,0,0,1-2.5.65,5.44,5.44,0,0,1-2.66-.54V193a6.39,6.39,0,0,0,1.32.49,5.54,5.54,0,0,0,1.36.18,3.09,3.09,0,0,0,1.56-.32,1.12,1.12,0,0,0,.11-1.84,6.81,6.81,0,0,0-1.69-.84,9.18,9.18,0,0,1-1.7-.78,2.32,2.32,0,0,1-.75-0.75,2,2,0,0,1-.25-1,1.92,1.92,0,0,1,.85-1.65,4,4,0,0,1,2.34-.61,6.83,6.83,0,0,1,2.7.56l-0.46,1.05a6.21,6.21,0,0,0-2.34-.53,2.69,2.69,0,0,0-1.39.29,0.89,0.89,0,0,0-.47.8,1,1,0,0,0,.18.59,1.73,1.73,0,0,0,.57.46,12.65,12.65,0,0,0,1.5.63,5.6,5.6,0,0,1,2.06,1.12A2,2,0,0,1,412.3,192.28Z"/><path class="cls-1" d="M419.93,192.28a2.14,2.14,0,0,1-.89,1.84,4.19,4.19,0,0,1-2.5.65,5.44,5.44,0,0,1-2.66-.54V193a6.39,6.39,0,0,0,1.32.49,5.54,5.54,0,0,0,1.36.18,3.09,3.09,0,0,0,1.56-.32,1.12,1.12,0,0,0,.11-1.84,6.81,6.81,0,0,0-1.69-.84,9.18,9.18,0,0,1-1.7-.78,2.32,2.32,0,0,1-.75-0.75,2,2,0,0,1-.25-1,1.92,1.92,0,0,1,.85-1.65,4,4,0,0,1,2.34-.61,6.83,6.83,0,0,1,2.7.56l-0.46,1.05A6.21,6.21,0,0,0,417,187a2.69,2.69,0,0,0-1.39.29,0.89,0.89,0,0,0-.47.8,1,1,0,0,0,.18.59,1.73,1.73,0,0,0,.57.46,12.65,12.65,0,0,0,1.5.63,5.6,5.6,0,0,1,2.06,1.12A2,2,0,0,1,419.93,192.28Z"/><path class="cls-4" d="M353.39,333.75l-1.17.17a8.48,8.48,0,0,0-1.39.28c-0.27.07-.57,0.12-0.87,0.22l-1,.34a16.16,16.16,0,0,0-4.51,2.51,17.08,17.08,0,0,0-4.34,5.1,17.27,17.27,0,0,0-2.06,7.61,17,17,0,0,0,2.07,8.54,17.74,17.74,0,0,0,2.8,3.75,18.51,18.51,0,0,0,3.84,2.88,18.31,18.31,0,0,0,4.56,1.69A16.71,16.71,0,0,0,361,366a18.31,18.31,0,0,0,4.21-2.44,18.51,18.51,0,0,0,3.29-3.5,17.75,17.75,0,0,0,2.12-4.17,17,17,0,0,0,.58-8.77,17.27,17.27,0,0,0-3.33-7.14,17.08,17.08,0,0,0-5.15-4.28,16.16,16.16,0,0,0-4.87-1.71l-1-.17c-0.32,0-.62,0-0.9-0.06a8.49,8.49,0,0,0-1.42,0l-1.19,0-0.8-9.36,1.84-.07a16.08,16.08,0,0,1,2.21.06c0.43,0,.9,0,1.4.11l1.57,0.26a25.56,25.56,0,0,1,7.62,2.68A26.14,26.14,0,0,1,379.54,359a27.12,27.12,0,0,1-3.32,6.51,26.15,26.15,0,0,1-11.71,9.27,26.11,26.11,0,0,1-15.11,1.3,26.15,26.15,0,0,1-13.12-7.14,27.12,27.12,0,0,1-4.38-5.85,26.11,26.11,0,0,1,6.76-33.17,25.55,25.55,0,0,1,7-3.94l1.51-.52c0.48-.15.94-0.24,1.36-0.35a16.08,16.08,0,0,1,2.17-.44l1.82-.24Z"/><path class="cls-1" d="M343.33,360.82l0.47,0.52,0.62,0.57a6.25,6.25,0,0,0,.87.73,15.78,15.78,0,0,0,6.33,3,17.08,17.08,0,0,0,4.69.26,15.57,15.57,0,0,0,12.81-9.44,15.24,15.24,0,0,0,1.2-5.64,15.81,15.81,0,0,0-3.45-10.1,16.81,16.81,0,0,0-3.49-3.16,15.42,15.42,0,0,0-6.54-2.45c-0.85-.07-1.51-0.14-2-0.13l-0.7,0-0.52-11.89,1.23,0a32.24,32.24,0,0,1,3.49.22,27.34,27.34,0,0,1,11.6,4.34,28.67,28.67,0,0,1,6.15,5.57A27.71,27.71,0,0,1,382.22,351a27.16,27.16,0,0,1-2.13,10,27.47,27.47,0,0,1-22.64,16.68,28.92,28.92,0,0,1-8.29-.46A27.68,27.68,0,0,1,338,372a14.86,14.86,0,0,1-1.53-1.29l-1.09-1c-0.56-.58-0.83-0.91-0.83-0.91Z"/><path class="cls-1" d="M390.6,265.14q0-6.75,2.85-10t8.54-3.3a15.52,15.52,0,0,1,3,.23v3.84a12.47,12.47,0,0,0-2.74-.31,9.4,9.4,0,0,0-4,.75,5,5,0,0,0-2.34,2.21,10.13,10.13,0,0,0-.92,4.15h0.2a5.28,5.28,0,0,1,4.93-2.64,6.1,6.1,0,0,1,4.77,1.91,7.61,7.61,0,0,1,1.73,5.29A7.93,7.93,0,0,1,404.6,273a7.54,7.54,0,0,1-5.69,2.12,8.15,8.15,0,0,1-4.39-1.17,7.57,7.57,0,0,1-2.89-3.41A13,13,0,0,1,390.6,265.14Zm8.21,6.13a2.85,2.85,0,0,0,2.36-1,4.62,4.62,0,0,0,.82-2.95,4.07,4.07,0,0,0-.77-2.62,2.81,2.81,0,0,0-2.33-1,3.56,3.56,0,0,0-2.5.95,2.91,2.91,0,0,0-1,2.21,5,5,0,0,0,1,3.13A3,3,0,0,0,398.81,271.26Z"/><path class="cls-1" d="M423.94,257.14a5.35,5.35,0,0,1-1.29,3.62,6.69,6.69,0,0,1-3.62,2.05v0.09a7.24,7.24,0,0,1,4.17,1.67,4.68,4.68,0,0,1,1.42,3.58,6.07,6.07,0,0,1-2.38,5.11q-2.38,1.83-6.79,1.83a16.5,16.5,0,0,1-6.56-1.23v-4.09a14.87,14.87,0,0,0,2.91,1.09,12.21,12.21,0,0,0,3.14.42,6.1,6.1,0,0,0,3.51-.81,3,3,0,0,0,1.13-2.6,2.34,2.34,0,0,0-1.31-2.27,9.65,9.65,0,0,0-4.17-.67h-1.73v-3.68h1.76a8.16,8.16,0,0,0,3.86-.69,2.5,2.5,0,0,0,1.22-2.37q0-2.58-3.23-2.58a7.39,7.39,0,0,0-2.28.37,11.13,11.13,0,0,0-2.57,1.29L408.9,254a12.36,12.36,0,0,1,7.42-2.24,9.58,9.58,0,0,1,5.57,1.43A4.59,4.59,0,0,1,423.94,257.14Z"/><path class="cls-1" d="M431.85,266.66a4.45,4.45,0,0,1-.71,2.74,2.45,2.45,0,0,1-2.07.92,2.39,2.39,0,0,1-2-.94,4.43,4.43,0,0,1-.71-2.72q0-3.62,2.74-3.62a2.43,2.43,0,0,1,2.06.94A4.35,4.35,0,0,1,431.85,266.66Zm-3.51,0a4.71,4.71,0,0,0,.18,1.5,0.62,0.62,0,0,0,.57.5q0.76,0,.76-2t-0.76-2a0.61,0.61,0,0,0-.57.49A4.64,4.64,0,0,0,428.33,266.67Zm9-3.47-6.43,11.59H429l6.43-11.59h1.9Zm2.66,8.09a4.44,4.44,0,0,1-.71,2.73,2.45,2.45,0,0,1-2.07.92,2.39,2.39,0,0,1-2-.94,4.41,4.41,0,0,1-.71-2.71q0-3.62,2.74-3.62a2.44,2.44,0,0,1,2.06.94A4.36,4.36,0,0,1,440,271.29Zm-3.51,0a4.72,4.72,0,0,0,.18,1.5,0.62,0.62,0,0,0,.57.5q0.76,0,.76-2t-0.76-2a0.61,0.61,0,0,0-.57.49A4.65,4.65,0,0,0,436.45,271.3Z"/><path class="cls-4" d="M353.39,248.57l-1.17.17a8.49,8.49,0,0,0-1.39.28c-0.27.07-.57,0.12-0.87,0.22l-1,.34a16.16,16.16,0,0,0-4.51,2.51,17.08,17.08,0,0,0-4.34,5.1,17.27,17.27,0,0,0-2.06,7.61,17,17,0,0,0,2.07,8.54,17.75,17.75,0,0,0,2.8,3.75,18.51,18.51,0,0,0,3.84,2.88,18.31,18.31,0,0,0,4.56,1.69,16.71,16.71,0,0,0,9.68-.83,18.31,18.31,0,0,0,4.21-2.44,18.51,18.51,0,0,0,3.29-3.5,17.75,17.75,0,0,0,2.12-4.17,17,17,0,0,0,.58-8.77,17.27,17.27,0,0,0-3.33-7.14,17.08,17.08,0,0,0-5.15-4.28,16.16,16.16,0,0,0-4.87-1.71l-1-.17c-0.32,0-.62,0-0.9-0.06a8.49,8.49,0,0,0-1.42,0l-1.19,0-0.8-9.36,1.84-.07a16.08,16.08,0,0,1,2.21.06c0.43,0,.9,0,1.4.11l1.57,0.26a25.56,25.56,0,0,1,7.62,2.68,26.14,26.14,0,0,1,12.32,31.53,27.12,27.12,0,0,1-3.32,6.51,26.15,26.15,0,0,1-11.71,9.27,26.11,26.11,0,0,1-15.11,1.3,26.15,26.15,0,0,1-13.12-7.14,27.12,27.12,0,0,1-4.38-5.85,26.11,26.11,0,0,1,6.76-33.17,25.55,25.55,0,0,1,7-3.94l1.51-.52c0.48-.15.94-0.24,1.36-0.35a16.08,16.08,0,0,1,2.17-.44l1.82-.24Z"/><path class="cls-1" d="M344,276.35l0.51,0.47A18.69,18.69,0,0,0,346,278c0.36,0.22.76,0.46,1.18,0.73s0.94,0.47,1.46.73a16,16,0,0,0,3.76,1.06,5.68,5.68,0,0,0,1.09.13c0.37,0,.75.06,1.14,0.07a17.29,17.29,0,0,0,2.4-.18A15.28,15.28,0,0,0,362,279a15.71,15.71,0,0,0,7.32-8.23,15.46,15.46,0,0,0,0-11,16,16,0,0,0-2.59-4.45,15.64,15.64,0,0,0-9.93-5.45c-0.83-.06-1.49-0.13-1.94-0.12l-0.69,0-0.52-11.89,1.21,0a32.87,32.87,0,0,1,3.43.21,27.54,27.54,0,0,1,17.56,9.62,27.89,27.89,0,0,1,4.6,7.88,27.32,27.32,0,0,1-21.69,36.78,29.13,29.13,0,0,1-4.22.3c-0.68,0-1.36-.07-2-0.11a13.89,13.89,0,0,1-1.93-.23,27.85,27.85,0,0,1-6.66-1.91c-0.93-.44-1.8-0.87-2.59-1.29l-2.08-1.3a30.31,30.31,0,0,1-2.69-2.14l-0.89-.83Z"/><path class="cls-10" d="M138.75,364.28h-6.53v-12.6q0-2.3.1-4.2a14,14,0,0,1-1.5,1.53l-2.7,2.23-3.34-4.1,8.17-6.66h5.8v23.8Z"/><path class="cls-10" d="M153.76,348.69a7.27,7.27,0,0,1,3.7,1,6.58,6.58,0,0,1,2.57,2.69,8.49,8.49,0,0,1,.92,4,7.76,7.76,0,0,1-2.4,6.12q-2.4,2.13-7.27,2.13a15.56,15.56,0,0,1-6.8-1.29V358a17.11,17.11,0,0,0,3.2,1.07,13.58,13.58,0,0,0,3.07.42,4.36,4.36,0,0,0,2.75-.76,2.68,2.68,0,0,0,1-2.24,2.55,2.55,0,0,0-1-2.13,4.76,4.76,0,0,0-3-.77,10.65,10.65,0,0,0-3.27.57L144.88,353l0.9-12.57h13.58v5.36h-8.11L151,349a14.65,14.65,0,0,1,1.81-.27Z"/><path class="cls-10" d="M180.85,352.41q0,6.32-2.12,9.25t-6.48,2.94a7.36,7.36,0,0,1-6.43-3.07q-2.17-3.07-2.17-9.12,0-6.35,2.12-9.31t6.48-3a7.35,7.35,0,0,1,6.42,3.08Q180.85,346.31,180.85,352.41Zm-10.79,0a20.32,20.32,0,0,0,.5,5.55,1.71,1.71,0,0,0,3.39,0,30.72,30.72,0,0,0,0-11,1.84,1.84,0,0,0-1.69-1.59,1.82,1.82,0,0,0-1.69,1.53A20.69,20.69,0,0,0,170.05,352.41Z"/><path class="cls-10" d="M137.08,279.43h-6.53v-12.6q0-2.3.1-4.2a13.92,13.92,0,0,1-1.5,1.53l-2.7,2.23-3.34-4.1,8.17-6.66h5.8v23.8Z"/><path class="cls-10" d="M158.31,274.82h-2.62v4.61h-6.35v-4.61h-9.49V270.1l9.9-14.47h5.94V270h2.62v4.8Zm-9-4.8v-2.77q0-.78.06-2.11a13.87,13.87,0,0,1,.09-1.39h-0.18a17.2,17.2,0,0,1-1.25,2.34L145.42,270h3.92Z"/><path class="cls-10" d="M162.88,279.43L171.06,261h-10.3v-5.32h17.17v3.79l-8.38,20h-6.66Z"/><path class="cls-2" d="M195.83,279.52a3.71,3.71,0,0,1-1.53-.31,2.88,2.88,0,0,1-1.16-.95h-0.09a11.48,11.48,0,0,1,.09,1.42v3.52h-1.3V270.8h1.05l0.18,1.17h0.06a3,3,0,0,1,1.16-1,3.54,3.54,0,0,1,1.52-.31,3.16,3.16,0,0,1,2.63,1.16,6.2,6.2,0,0,1,0,6.54A3.17,3.17,0,0,1,195.83,279.52Zm-0.19-7.77a2.3,2.3,0,0,0-1.9.73,3.74,3.74,0,0,0-.6,2.31v0.29a4.28,4.28,0,0,0,.6,2.58,2.29,2.29,0,0,0,1.93.78,2,2,0,0,0,1.74-.9,4.26,4.26,0,0,0,.63-2.48,4.1,4.1,0,0,0-.63-2.46A2.07,2.07,0,0,0,195.65,271.74Z"/><path class="cls-2" d="M204.42,278.45a4.2,4.2,0,0,0,.66-0.05,4.44,4.44,0,0,0,.51-0.11v1a2.41,2.41,0,0,1-.62.17,4.7,4.7,0,0,1-.74.07q-2.48,0-2.48-2.62v-5.09h-1.23v-0.62l1.23-.54,0.55-1.83H203v2h2.48v1H203v5a1.73,1.73,0,0,0,.37,1.19A1.28,1.28,0,0,0,204.42,278.45Z"/><path class="cls-2" d="M212.83,277a2.15,2.15,0,0,1-.89,1.84,4.18,4.18,0,0,1-2.5.65,5.43,5.43,0,0,1-2.66-.54v-1.2a6.45,6.45,0,0,0,1.32.49,5.51,5.51,0,0,0,1.36.18,3.1,3.1,0,0,0,1.56-.32,1.12,1.12,0,0,0,.11-1.84,6.82,6.82,0,0,0-1.69-.84,9.15,9.15,0,0,1-1.7-.78,2.32,2.32,0,0,1-.75-0.75,2,2,0,0,1-.25-1,1.92,1.92,0,0,1,.85-1.65,4,4,0,0,1,2.34-.61,6.84,6.84,0,0,1,2.7.56l-0.46,1.05a6.2,6.2,0,0,0-2.34-.53,2.69,2.69,0,0,0-1.39.29,0.89,0.89,0,0,0-.47.8,1,1,0,0,0,.18.59,1.73,1.73,0,0,0,.57.46,12.75,12.75,0,0,0,1.5.63,5.61,5.61,0,0,1,2.06,1.12A2,2,0,0,1,212.83,277Z"/><path class="cls-2" d="M197.83,362.72a3.7,3.7,0,0,1-1.53-.31,2.86,2.86,0,0,1-1.16-.95h-0.09a11.49,11.49,0,0,1,.09,1.42v3.52h-1.3V354h1.05l0.18,1.17h0.06a3,3,0,0,1,1.16-1,3.54,3.54,0,0,1,1.52-.31,3.17,3.17,0,0,1,2.63,1.16,6.2,6.2,0,0,1,0,6.54A3.17,3.17,0,0,1,197.83,362.72Zm-0.19-7.77a2.3,2.3,0,0,0-1.9.73,3.74,3.74,0,0,0-.6,2.31v0.29a4.28,4.28,0,0,0,.6,2.58,2.29,2.29,0,0,0,1.93.78,2,2,0,0,0,1.74-.9,4.26,4.26,0,0,0,.63-2.48,4.1,4.1,0,0,0-.63-2.46A2.07,2.07,0,0,0,197.65,354.94Z"/><path class="cls-2" d="M206.42,361.65a4.2,4.2,0,0,0,.66-0.05,4.05,4.05,0,0,0,.51-0.11v1a2.33,2.33,0,0,1-.62.17,4.7,4.7,0,0,1-.74.07q-2.48,0-2.48-2.62V355h-1.23v-0.62l1.23-.54,0.55-1.83H205v2h2.48v1H205v5a1.73,1.73,0,0,0,.37,1.19A1.28,1.28,0,0,0,206.42,361.65Z"/><path class="cls-2" d="M214.83,360.22a2.14,2.14,0,0,1-.89,1.84,4.18,4.18,0,0,1-2.5.65,5.43,5.43,0,0,1-2.66-.54V361a6.34,6.34,0,0,0,1.32.49,5.51,5.51,0,0,0,1.36.18,3.09,3.09,0,0,0,1.56-.32,1.12,1.12,0,0,0,.11-1.84,6.86,6.86,0,0,0-1.69-.84,9.15,9.15,0,0,1-1.7-.78,2.31,2.31,0,0,1-.75-0.75,2,2,0,0,1-.25-1,1.92,1.92,0,0,1,.85-1.65,4,4,0,0,1,2.34-.61,6.84,6.84,0,0,1,2.7.56l-0.46,1.05a6.22,6.22,0,0,0-2.34-.53,2.69,2.69,0,0,0-1.39.29,0.9,0.9,0,0,0-.47.8,1,1,0,0,0,.18.59,1.72,1.72,0,0,0,.57.46,12.41,12.41,0,0,0,1.5.63,5.61,5.61,0,0,1,2.06,1.12A2,2,0,0,1,214.83,360.22Z"/></svg>