<svg id="Layer_1" data-name="Layer 1" xmlns="http://www.w3.org/2000/svg" width="234.92" height="185.04" viewBox="0 0 234.92 185.04"><defs><style>.cls-1{fill:#4b4b4b;}.cls-2{fill:none;}.cls-2,.cls-3{stroke:#d8d2cc;stroke-linecap:round;stroke-miterlimit:10;stroke-width:1.11px;}.cls-3{fill:#d8d2cc;}.cls-4{fill:#899cc1;}.cls-5{fill:#42649f;}.cls-6{fill:#001970;}</style></defs><title>homepage-feature-1</title><path class="cls-1" d="M22.75,30H21.36v-4a1.74,1.74,0,0,0-.3-1.12,1.17,1.17,0,0,0-1-.37,1.52,1.52,0,0,0-1.27.52,2.86,2.86,0,0,0-.41,1.74V30H17V20.93h1.38v2.31a10.8,10.8,0,0,1-.07,1.19h0.09a1.91,1.91,0,0,1,.78-0.73,2.52,2.52,0,0,1,1.17-.26,2.09,2.09,0,0,1,2.36,2.37V30Z"/><path class="cls-1" d="M24.58,21.85a0.76,0.76,0,0,1,.2-0.57,0.79,0.79,0,0,1,.58-0.2,0.77,0.77,0,0,1,.57.2,0.76,0.76,0,0,1,.2.57,0.75,0.75,0,0,1-.2.55,0.76,0.76,0,0,1-.57.2,0.78,0.78,0,0,1-.58-0.2A0.75,0.75,0,0,1,24.58,21.85ZM26,30H24.66V23.56H26V30Z"/><path class="cls-1" d="M33.48,23.56v0.76l-1.11.21a1.79,1.79,0,0,1,.25.5,2,2,0,0,1,.1.63A1.94,1.94,0,0,1,32,27.24a2.89,2.89,0,0,1-1.9.57,3.09,3.09,0,0,1-.56,0,0.78,0.78,0,0,0-.45.64,0.36,0.36,0,0,0,.21.33,1.8,1.8,0,0,0,.76.11h1.13a2.51,2.51,0,0,1,1.63.46,1.61,1.61,0,0,1,.56,1.32,1.92,1.92,0,0,1-.91,1.7,4.78,4.78,0,0,1-2.62.6,3.62,3.62,0,0,1-2-.47,1.52,1.52,0,0,1-.7-1.34,1.42,1.42,0,0,1,.38-1,2,2,0,0,1,1.06-.57,1,1,0,0,1-.45-0.38A1,1,0,0,1,28,28.63,0.94,0.94,0,0,1,28.17,28a2.37,2.37,0,0,1,.61-0.5A1.8,1.8,0,0,1,28,26.81a2.08,2.08,0,0,1-.31-1.15A2.05,2.05,0,0,1,28.31,24a2.8,2.8,0,0,1,1.9-.58,4.61,4.61,0,0,1,.58,0l0.45,0.08h2.24Zm-5.09,7.49a0.76,0.76,0,0,0,.4.69,2.21,2.21,0,0,0,1.13.24,3.41,3.41,0,0,0,1.68-.32,1,1,0,0,0,.55-0.86,0.64,0.64,0,0,0-.3-0.6A2.42,2.42,0,0,0,30.72,30h-1a1.47,1.47,0,0,0-.94.28A0.91,0.91,0,0,0,28.39,31.05ZM29,25.66a1.3,1.3,0,0,0,.31.94,1.19,1.19,0,0,0,.9.33,1.09,1.09,0,0,0,1.2-1.28,1.45,1.45,0,0,0-.3-1,1.12,1.12,0,0,0-.9-0.34,1.16,1.16,0,0,0-.91.34A1.43,1.43,0,0,0,29,25.66Z"/><path class="cls-1" d="M40.38,30H39v-4a1.74,1.74,0,0,0-.3-1.12,1.17,1.17,0,0,0-1-.37,1.52,1.52,0,0,0-1.27.52,2.86,2.86,0,0,0-.41,1.74V30H34.68V20.93h1.38v2.31A10.8,10.8,0,0,1,36,24.43h0.09a1.91,1.91,0,0,1,.78-0.73A2.52,2.52,0,0,1,38,23.45a2.09,2.09,0,0,1,2.36,2.37V30Z"/><path class="cls-1" d="M45.13,30.16a3.13,3.13,0,0,1-2.36-.88,3.35,3.35,0,0,1-.85-2.43,3.67,3.67,0,0,1,.79-2.5,2.73,2.73,0,0,1,2.17-.91,2.67,2.67,0,0,1,2,.78,3,3,0,0,1,.74,2.14v0.74H43.33a2.13,2.13,0,0,0,.51,1.45,1.78,1.78,0,0,0,1.35.51A5,5,0,0,0,46.26,29a5.61,5.61,0,0,0,1.06-.36v1.12a4.23,4.23,0,0,1-1,.34A6.25,6.25,0,0,1,45.13,30.16Zm-0.25-5.67a1.38,1.38,0,0,0-1.05.42,2,2,0,0,0-.47,1.21H46.3a1.79,1.79,0,0,0-.39-1.22A1.32,1.32,0,0,0,44.88,24.49Z"/><path class="cls-1" d="M52.5,23.45a3.31,3.31,0,0,1,.69.06l-0.13,1.28a2.6,2.6,0,0,0-.61-0.07,1.76,1.76,0,0,0-1.34.54,2,2,0,0,0-.51,1.4V30H49.21V23.56h1.08l0.18,1.14h0.07a2.57,2.57,0,0,1,.84-0.92A2,2,0,0,1,52.5,23.45Z"/><path class="cls-1" d="M21.4,40a1.7,1.7,0,0,1-.69,1.46,3.31,3.31,0,0,1-2,.51,4.68,4.68,0,0,1-2.08-.39V40.35a5.11,5.11,0,0,0,2.13.53q1.27,0,1.27-.77a0.61,0.61,0,0,0-.14-0.41,1.66,1.66,0,0,0-.46-0.34,8,8,0,0,0-.9-0.4A4.15,4.15,0,0,1,17,38.09a1.6,1.6,0,0,1-.4-1.12,1.48,1.48,0,0,1,.67-1.29,3.18,3.18,0,0,1,1.83-.46,5.17,5.17,0,0,1,2.16.46l-0.45,1a4.81,4.81,0,0,0-1.76-.43q-1.09,0-1.09.62a0.62,0.62,0,0,0,.28.52,6.25,6.25,0,0,0,1.24.58,5.66,5.66,0,0,1,1.17.57,1.7,1.7,0,0,1,.54.59A1.72,1.72,0,0,1,21.4,40Z"/><path class="cls-1" d="M25.5,41.93a2.84,2.84,0,0,1-2.24-.86,3.59,3.59,0,0,1-.76-2.46,3.61,3.61,0,0,1,.8-2.51,3,3,0,0,1,2.31-.88,4.33,4.33,0,0,1,1.85.38L27,36.7a4.17,4.17,0,0,0-1.44-.34q-1.68,0-1.68,2.23a2.67,2.67,0,0,0,.42,1.64,1.45,1.45,0,0,0,1.23.55,3.52,3.52,0,0,0,1.74-.46v1.2a2.72,2.72,0,0,1-.79.31A4.73,4.73,0,0,1,25.5,41.93Z"/><path class="cls-1" d="M32.88,41.81l-0.28-.9h0a2.65,2.65,0,0,1-.94.81,3,3,0,0,1-1.22.21,2.06,2.06,0,0,1-1.49-.52A1.93,1.93,0,0,1,28.37,40a1.71,1.71,0,0,1,.74-1.51,4.29,4.29,0,0,1,2.27-.56l1.12,0V37.51a1.31,1.31,0,0,0-.29-0.93,1.18,1.18,0,0,0-.9-0.31,3.11,3.11,0,0,0-1,.15,7.21,7.21,0,0,0-.88.35l-0.45-1a4.79,4.79,0,0,1,1.15-.42,5.31,5.31,0,0,1,1.18-.14,2.8,2.8,0,0,1,1.87.54,2.11,2.11,0,0,1,.63,1.69v4.37h-1Zm-2.05-.94a1.71,1.71,0,0,0,1.2-.42,1.52,1.52,0,0,0,.45-1.17V38.72l-0.83,0a2.85,2.85,0,0,0-1.42.33,1,1,0,0,0-.44.89,0.87,0.87,0,0,0,.26.67A1.11,1.11,0,0,0,30.83,40.87Z"/><path class="cls-1" d="M37.17,41.81H35.79V32.7h1.38v9.12Z"/><path class="cls-1" d="M42,41.93A3.13,3.13,0,0,1,39.6,41a3.35,3.35,0,0,1-.85-2.43,3.67,3.67,0,0,1,.79-2.5,2.73,2.73,0,0,1,2.17-.91,2.67,2.67,0,0,1,2,.78,3,3,0,0,1,.74,2.14v0.74H40.17a2.13,2.13,0,0,0,.51,1.45,1.78,1.78,0,0,0,1.35.51,5,5,0,0,0,1.07-.11,5.61,5.61,0,0,0,1.06-.36v1.12a4.23,4.23,0,0,1-1,.34A6.25,6.25,0,0,1,42,41.93Zm-0.25-5.67a1.38,1.38,0,0,0-1.05.42,2,2,0,0,0-.47,1.21h2.94a1.79,1.79,0,0,0-.39-1.22A1.32,1.32,0,0,0,41.71,36.26Z"/><path class="cls-1" d="M21.4,51.73a1.7,1.7,0,0,1-.69,1.46,3.31,3.31,0,0,1-2,.51,4.68,4.68,0,0,1-2.08-.39V52.12a5.11,5.11,0,0,0,2.13.53q1.27,0,1.27-.77a0.61,0.61,0,0,0-.14-0.41,1.66,1.66,0,0,0-.46-0.34,8,8,0,0,0-.9-0.4A4.15,4.15,0,0,1,17,49.86a1.6,1.6,0,0,1-.4-1.12,1.48,1.48,0,0,1,.67-1.29A3.18,3.18,0,0,1,19.13,47a5.17,5.17,0,0,1,2.16.46l-0.45,1A4.81,4.81,0,0,0,19.09,48Q18,48,18,48.67a0.62,0.62,0,0,0,.28.52,6.25,6.25,0,0,0,1.24.58,5.66,5.66,0,0,1,1.17.57,1.7,1.7,0,0,1,.54.59A1.72,1.72,0,0,1,21.4,51.73Z"/><path class="cls-1" d="M25.5,53.7a2.84,2.84,0,0,1-2.24-.86,4.35,4.35,0,0,1,0-5A3,3,0,0,1,25.61,47a4.33,4.33,0,0,1,1.85.38L27,48.47a4.17,4.17,0,0,0-1.44-.34q-1.68,0-1.68,2.23A2.67,2.67,0,0,0,24.34,52a1.45,1.45,0,0,0,1.23.55,3.52,3.52,0,0,0,1.74-.46v1.2a2.72,2.72,0,0,1-.79.31A4.73,4.73,0,0,1,25.5,53.7Z"/><path class="cls-1" d="M34.58,50.33a3.54,3.54,0,0,1-.81,2.48,2.92,2.92,0,0,1-2.27.89,3.11,3.11,0,0,1-1.61-.41,2.71,2.71,0,0,1-1.07-1.18,4,4,0,0,1-.37-1.78,3.51,3.51,0,0,1,.81-2.46A2.93,2.93,0,0,1,31.53,47a2.85,2.85,0,0,1,2.23.91A3.5,3.5,0,0,1,34.58,50.33Zm-4.72,0q0,2.24,1.66,2.24t1.64-2.24q0-2.22-1.65-2.22a1.41,1.41,0,0,0-1.26.57A2.92,2.92,0,0,0,29.86,50.33Z"/><path class="cls-1" d="M39.45,47a3.31,3.31,0,0,1,.69.06L40,48.32a2.6,2.6,0,0,0-.61-0.07,1.76,1.76,0,0,0-1.34.54,2,2,0,0,0-.51,1.4v3.39H36.16V47.1h1.08l0.18,1.14h0.07a2.57,2.57,0,0,1,.84-0.92A2,2,0,0,1,39.45,47Z"/><path class="cls-1" d="M44.16,53.7a3.13,3.13,0,0,1-2.36-.88,3.35,3.35,0,0,1-.85-2.43,3.67,3.67,0,0,1,.79-2.5A2.73,2.73,0,0,1,43.91,47a2.67,2.67,0,0,1,2,.78,3,3,0,0,1,.74,2.14v0.74H42.36a2.13,2.13,0,0,0,.51,1.45,1.78,1.78,0,0,0,1.35.51,5,5,0,0,0,1.07-.11,5.61,5.61,0,0,0,1.06-.36v1.12a4.23,4.23,0,0,1-1,.34A6.25,6.25,0,0,1,44.16,53.7ZM43.91,48a1.38,1.38,0,0,0-1.05.42,2,2,0,0,0-.47,1.21h2.94a1.79,1.79,0,0,0-.39-1.22A1.32,1.32,0,0,0,43.91,48Z"/><path class="cls-1" d="M62.72,175.68v0.76l-1.11.21a1.79,1.79,0,0,1,.25.5,2,2,0,0,1,.1.63,1.94,1.94,0,0,1-.69,1.58,2.89,2.89,0,0,1-1.9.57,3.09,3.09,0,0,1-.56,0,0.78,0.78,0,0,0-.45.64,0.36,0.36,0,0,0,.21.33,1.8,1.8,0,0,0,.76.11h1.13a2.51,2.51,0,0,1,1.63.46,1.61,1.61,0,0,1,.56,1.32,1.92,1.92,0,0,1-.91,1.7,4.78,4.78,0,0,1-2.62.6,3.62,3.62,0,0,1-2-.47,1.52,1.52,0,0,1-.7-1.34,1.42,1.42,0,0,1,.38-1,2,2,0,0,1,1.06-.57,1,1,0,0,1-.45-0.38,1,1,0,0,1-.18-0.55,0.94,0.94,0,0,1,.21-0.62,2.37,2.37,0,0,1,.61-0.5,1.8,1.8,0,0,1-.82-0.71,2.08,2.08,0,0,1-.31-1.15,2.05,2.05,0,0,1,.67-1.63,2.8,2.8,0,0,1,1.9-.58,4.61,4.61,0,0,1,.58,0l0.45,0.08h2.24Zm-5.09,7.49a0.76,0.76,0,0,0,.4.69,2.21,2.21,0,0,0,1.13.24,3.41,3.41,0,0,0,1.68-.32,1,1,0,0,0,.55-0.86,0.64,0.64,0,0,0-.3-0.6,2.42,2.42,0,0,0-1.12-.18h-1a1.47,1.47,0,0,0-.94.28A0.91,0.91,0,0,0,57.62,183.17Zm0.59-5.39a1.3,1.3,0,0,0,.31.94,1.19,1.19,0,0,0,.9.33,1.09,1.09,0,0,0,1.2-1.28,1.45,1.45,0,0,0-.3-1,1.12,1.12,0,0,0-.9-0.34,1.16,1.16,0,0,0-.91.34A1.43,1.43,0,0,0,58.22,177.78Z"/><path class="cls-1" d="M67.2,175.56a3.31,3.31,0,0,1,.69.06l-0.13,1.28a2.6,2.6,0,0,0-.61-0.07,1.76,1.76,0,0,0-1.34.54,2,2,0,0,0-.51,1.4v3.39H63.92v-6.48H65l0.18,1.14h0.07a2.57,2.57,0,0,1,.84-0.92A2,2,0,0,1,67.2,175.56Z"/><path class="cls-1" d="M71.92,182.28a3.13,3.13,0,0,1-2.36-.88A3.35,3.35,0,0,1,68.7,179a3.67,3.67,0,0,1,.79-2.5,2.73,2.73,0,0,1,2.17-.91,2.67,2.67,0,0,1,2,.78,3,3,0,0,1,.74,2.14v0.74H70.12a2.13,2.13,0,0,0,.51,1.45,1.78,1.78,0,0,0,1.35.51,5,5,0,0,0,1.07-.11,5.61,5.61,0,0,0,1.06-.36v1.12a4.23,4.23,0,0,1-1,.34A6.25,6.25,0,0,1,71.92,182.28Zm-0.25-5.67a1.38,1.38,0,0,0-1.05.42,2,2,0,0,0-.47,1.21h2.94A1.79,1.79,0,0,0,72.7,177,1.32,1.32,0,0,0,71.67,176.61Z"/><path class="cls-1" d="M80.06,182.16l-0.28-.9h0a2.65,2.65,0,0,1-.94.81,3,3,0,0,1-1.22.21,2.06,2.06,0,0,1-1.49-.52,1.93,1.93,0,0,1-.54-1.46,1.71,1.71,0,0,1,.74-1.51,4.29,4.29,0,0,1,2.27-.56l1.12,0v-0.35a1.31,1.31,0,0,0-.29-0.93,1.18,1.18,0,0,0-.9-0.31,3.11,3.11,0,0,0-1,.15,7.21,7.21,0,0,0-.88.35l-0.45-1a4.79,4.79,0,0,1,1.15-.42,5.31,5.31,0,0,1,1.18-.14,2.8,2.8,0,0,1,1.87.54A2.11,2.11,0,0,1,81,177.8v4.37h-1ZM78,181.22a1.71,1.71,0,0,0,1.2-.42,1.52,1.52,0,0,0,.45-1.17v-0.56l-0.83,0a2.85,2.85,0,0,0-1.42.33,1,1,0,0,0-.44.89,0.87,0.87,0,0,0,.26.67A1.11,1.11,0,0,0,78,181.22Z"/><path class="cls-1" d="M85.38,181.17a3.35,3.35,0,0,0,1-.16v1a2.78,2.78,0,0,1-.59.17,4.06,4.06,0,0,1-.75.07,1.78,1.78,0,0,1-2-2.06v-3.49H82.21v-0.61l0.95-.5,0.47-1.37h0.85v1.44h1.85v1H84.48v3.47a1,1,0,0,0,.25.74A0.91,0.91,0,0,0,85.38,181.17Z"/><path class="cls-1" d="M90.51,182.28a3.13,3.13,0,0,1-2.36-.88A3.35,3.35,0,0,1,87.3,179a3.67,3.67,0,0,1,.79-2.5,2.73,2.73,0,0,1,2.17-.91,2.67,2.67,0,0,1,2,.78,3,3,0,0,1,.74,2.14v0.74H88.71a2.13,2.13,0,0,0,.51,1.45,1.78,1.78,0,0,0,1.35.51,5,5,0,0,0,1.07-.11,5.61,5.61,0,0,0,1.06-.36v1.12a4.23,4.23,0,0,1-1,.34A6.25,6.25,0,0,1,90.51,182.28Zm-0.25-5.67a1.38,1.38,0,0,0-1.05.42,2,2,0,0,0-.47,1.21h2.94a1.79,1.79,0,0,0-.39-1.22A1.32,1.32,0,0,0,90.26,176.61Z"/><path class="cls-1" d="M97.88,175.56a3.31,3.31,0,0,1,.69.06l-0.13,1.28a2.6,2.6,0,0,0-.61-0.07,1.76,1.76,0,0,0-1.34.54,2,2,0,0,0-.51,1.4v3.39H94.6v-6.48h1.08l0.18,1.14h0.07a2.57,2.57,0,0,1,.84-0.92A2,2,0,0,1,97.88,175.56Z"/><path class="cls-1" d="M106.94,182.16l-0.28-.9h0a2.65,2.65,0,0,1-.94.81,3,3,0,0,1-1.22.21,2.06,2.06,0,0,1-1.49-.52,1.93,1.93,0,0,1-.54-1.46,1.71,1.71,0,0,1,.74-1.51,4.29,4.29,0,0,1,2.27-.56l1.12,0v-0.35a1.31,1.31,0,0,0-.29-0.93,1.18,1.18,0,0,0-.9-0.31,3.11,3.11,0,0,0-1,.15,7.21,7.21,0,0,0-.88.35l-0.45-1a4.79,4.79,0,0,1,1.15-.42,5.31,5.31,0,0,1,1.18-.14,2.8,2.8,0,0,1,1.87.54,2.11,2.11,0,0,1,.63,1.69v4.37h-1Zm-2.05-.94a1.71,1.71,0,0,0,1.2-.42,1.52,1.52,0,0,0,.45-1.17v-0.56l-0.83,0a2.85,2.85,0,0,0-1.42.33,1,1,0,0,0-.44.89,0.87,0.87,0,0,0,.26.67A1.11,1.11,0,0,0,104.89,181.22Z"/><path class="cls-1" d="M112.46,182.28a2.84,2.84,0,0,1-2.24-.86,4.35,4.35,0,0,1,0-5,3,3,0,0,1,2.31-.88,4.33,4.33,0,0,1,1.85.38L114,177.05a4.17,4.17,0,0,0-1.44-.34q-1.68,0-1.68,2.23a2.67,2.67,0,0,0,.42,1.64,1.45,1.45,0,0,0,1.23.55,3.52,3.52,0,0,0,1.74-.46v1.2a2.72,2.72,0,0,1-.79.31A4.73,4.73,0,0,1,112.46,182.28Z"/><path class="cls-1" d="M118.4,182.28a2.84,2.84,0,0,1-2.24-.86,4.35,4.35,0,0,1,0-5,3,3,0,0,1,2.31-.88,4.33,4.33,0,0,1,1.85.38l-0.42,1.11a4.17,4.17,0,0,0-1.44-.34q-1.68,0-1.68,2.23a2.67,2.67,0,0,0,.42,1.64,1.45,1.45,0,0,0,1.23.55,3.52,3.52,0,0,0,1.74-.46v1.2a2.72,2.72,0,0,1-.79.31A4.73,4.73,0,0,1,118.4,182.28Z"/><path class="cls-1" d="M124.56,182.28a3.13,3.13,0,0,1-2.36-.88,3.35,3.35,0,0,1-.85-2.43,3.67,3.67,0,0,1,.79-2.5,2.73,2.73,0,0,1,2.17-.91,2.67,2.67,0,0,1,2,.78,3,3,0,0,1,.74,2.14v0.74h-4.32a2.13,2.13,0,0,0,.51,1.45,1.78,1.78,0,0,0,1.35.51,5,5,0,0,0,1.07-.11,5.61,5.61,0,0,0,1.06-.36v1.12a4.23,4.23,0,0,1-1,.34A6.25,6.25,0,0,1,124.56,182.28Zm-0.25-5.67a1.38,1.38,0,0,0-1.05.42,2,2,0,0,0-.47,1.21h2.94a1.79,1.79,0,0,0-.39-1.22A1.32,1.32,0,0,0,124.31,176.61Z"/><path class="cls-1" d="M133,180.32a1.7,1.7,0,0,1-.69,1.46,3.31,3.31,0,0,1-2,.51,4.68,4.68,0,0,1-2.08-.39V180.7a5.11,5.11,0,0,0,2.13.53q1.27,0,1.27-.77a0.61,0.61,0,0,0-.14-0.41,1.66,1.66,0,0,0-.46-0.34,8,8,0,0,0-.9-0.4,4.15,4.15,0,0,1-1.51-.87,1.6,1.6,0,0,1-.4-1.12,1.48,1.48,0,0,1,.67-1.29,3.18,3.18,0,0,1,1.83-.46,5.17,5.17,0,0,1,2.16.46l-0.45,1a4.81,4.81,0,0,0-1.76-.43q-1.09,0-1.09.62a0.62,0.62,0,0,0,.28.52,6.25,6.25,0,0,0,1.24.58,5.66,5.66,0,0,1,1.17.57,1.7,1.7,0,0,1,.54.59A1.72,1.72,0,0,1,133,180.32Z"/><path class="cls-1" d="M138.84,180.32a1.7,1.7,0,0,1-.69,1.46,3.31,3.31,0,0,1-2,.51,4.68,4.68,0,0,1-2.08-.39V180.7a5.11,5.11,0,0,0,2.13.53q1.27,0,1.27-.77a0.61,0.61,0,0,0-.14-0.41,1.66,1.66,0,0,0-.46-0.34,8,8,0,0,0-.9-0.4,4.15,4.15,0,0,1-1.51-.87,1.6,1.6,0,0,1-.4-1.12,1.48,1.48,0,0,1,.67-1.29,3.18,3.18,0,0,1,1.83-.46,5.17,5.17,0,0,1,2.16.46l-0.45,1a4.81,4.81,0,0,0-1.76-.43q-1.09,0-1.09.62a0.62,0.62,0,0,0,.28.52,6.25,6.25,0,0,0,1.24.58,5.66,5.66,0,0,1,1.17.57,1.7,1.7,0,0,1,.54.59A1.72,1.72,0,0,1,138.84,180.32Z"/><path class="cls-1" d="M145.86,181.17a3.35,3.35,0,0,0,1-.16v1a2.78,2.78,0,0,1-.59.17,4.06,4.06,0,0,1-.75.07,1.78,1.78,0,0,1-2-2.06v-3.49h-0.88v-0.61l0.95-.5,0.47-1.37H145v1.44h1.85v1H145v3.47a1,1,0,0,0,.25.74A0.91,0.91,0,0,0,145.86,181.17Z"/><path class="cls-1" d="M153.91,178.91a3.54,3.54,0,0,1-.81,2.48,2.92,2.92,0,0,1-2.27.89,3.11,3.11,0,0,1-1.61-.41,2.71,2.71,0,0,1-1.07-1.18,4,4,0,0,1-.37-1.78,3.51,3.51,0,0,1,.81-2.46,2.93,2.93,0,0,1,2.28-.88,2.85,2.85,0,0,1,2.23.91A3.5,3.5,0,0,1,153.91,178.91Zm-4.72,0q0,2.24,1.66,2.24t1.64-2.24q0-2.22-1.65-2.22a1.41,1.41,0,0,0-1.26.57A2.92,2.92,0,0,0,149.19,178.91Z"/><path class="cls-1" d="M162.67,182.16l-0.28-.9h0a2.65,2.65,0,0,1-.94.81,3,3,0,0,1-1.22.21,2.06,2.06,0,0,1-1.49-.52,1.93,1.93,0,0,1-.54-1.46,1.71,1.71,0,0,1,.74-1.51,4.29,4.29,0,0,1,2.27-.56l1.12,0v-0.35a1.31,1.31,0,0,0-.29-0.93,1.18,1.18,0,0,0-.9-0.31,3.11,3.11,0,0,0-1,.15,7.21,7.21,0,0,0-.88.35l-0.45-1a4.79,4.79,0,0,1,1.15-.42,5.31,5.31,0,0,1,1.18-.14,2.8,2.8,0,0,1,1.87.54,2.11,2.11,0,0,1,.63,1.69v4.37h-1Zm-2.05-.94a1.71,1.71,0,0,0,1.2-.42,1.52,1.52,0,0,0,.45-1.17v-0.56l-0.83,0a2.85,2.85,0,0,0-1.42.33,1,1,0,0,0-.44.89,0.87,0.87,0,0,0,.26.67A1.11,1.11,0,0,0,160.61,181.22Z"/><path class="cls-1" d="M168.86,175.56a3.31,3.31,0,0,1,.69.06l-0.13,1.28a2.6,2.6,0,0,0-.61-0.07,1.76,1.76,0,0,0-1.34.54,2,2,0,0,0-.51,1.4v3.39h-1.38v-6.48h1.08l0.18,1.14h0.07a2.57,2.57,0,0,1,.84-0.92A2,2,0,0,1,168.86,175.56Z"/><path class="cls-1" d="M173.16,181.17a3.35,3.35,0,0,0,1-.16v1a2.78,2.78,0,0,1-.59.17,4.06,4.06,0,0,1-.75.07,1.78,1.78,0,0,1-2-2.06v-3.49H170v-0.61l0.95-.5,0.47-1.37h0.85v1.44h1.85v1h-1.85v3.47a1,1,0,0,0,.25.74A0.91,0.91,0,0,0,173.16,181.17Z"/><path class="cls-1" d="M179.82,180.32a1.7,1.7,0,0,1-.69,1.46,3.31,3.31,0,0,1-2,.51,4.68,4.68,0,0,1-2.08-.39V180.7a5.11,5.11,0,0,0,2.13.53q1.27,0,1.27-.77a0.61,0.61,0,0,0-.14-0.41,1.66,1.66,0,0,0-.46-0.34,8,8,0,0,0-.9-0.4,4.15,4.15,0,0,1-1.51-.87,1.6,1.6,0,0,1-.4-1.12,1.48,1.48,0,0,1,.67-1.29,3.18,3.18,0,0,1,1.83-.46,5.17,5.17,0,0,1,2.16.46l-0.45,1a4.81,4.81,0,0,0-1.76-.43q-1.09,0-1.09.62a0.62,0.62,0,0,0,.28.52,6.25,6.25,0,0,0,1.24.58,5.66,5.66,0,0,1,1.17.57,1.7,1.7,0,0,1,.54.59A1.72,1.72,0,0,1,179.82,180.32Z"/><line class="cls-2" x1="20.24" y1="163.82" x2="232.97" y2="163.82"/><line class="cls-2" x1="6.91" y1="150.43" x2="6.91" y2="12.24"/><line class="cls-2" x1="21.37" y1="164.68" x2="229.62" y2="164.68"/><polyline class="cls-3" points="224.88 170.42 224.88 159.57 234.37 164.91"/><line class="cls-2" x1="6.05" y1="151.86" x2="6.05" y2="5.01"/><polygon class="cls-3" points="0.95 10.6 6.29 1.12 11.79 10.6 0.95 10.6"/><path class="cls-4" d="M63.45,93.13c-3.16-1.13-1-2.53-2.87-2.8s-1.93,2.58-2,4.53l-0.05,4.69v0l-0.31,27.91a15.58,15.58,0,0,0-8.08-2.18c-6.36-.07-11.55,3.11-11.6,7.09s5.08,7.28,11.44,7.34c5.48,0.06,10.09-2.29,11.29-5.5a2,2,0,0,0,.82-1.56l0.34-31.05a17.76,17.76,0,0,1,6.68,3.76c5.09,4.65-2.46,16.26-3.25,18.77s4.32-5.09,6-7,5.93-7.37,6.31-12.4S66.61,94.26,63.45,93.13Z"/><path class="cls-5" d="M132.29,57.28c-3.16-1.13-1-2.53-2.87-2.8s-1.93,2.58-2,4.53l-0.05,4.69v0l-0.31,27.91A15.57,15.57,0,0,0,119,89.45c-6.36-.07-11.55,3.11-11.6,7.09s5.08,7.28,11.44,7.34c5.48,0.06,10.09-2.29,11.29-5.5a2,2,0,0,0,.82-1.56l0.34-31.05A17.77,17.77,0,0,1,138,69.54c5.09,4.65-2.46,16.26-3.25,18.77s4.32-5.09,6-7,5.93-7.37,6.31-12.4S135.45,58.41,132.29,57.28Z"/><path class="cls-6" d="M201.13,31.18c-3.16-1.13-1-2.53-2.87-2.8s-1.93,2.58-2,4.53l-0.05,4.69v0l-0.31,27.91a15.57,15.57,0,0,0-8.08-2.18c-6.36-.07-11.55,3.11-11.6,7.09s5.08,7.28,11.44,7.34c5.48,0.06,10.09-2.29,11.29-5.5a2,2,0,0,0,.82-1.56l0.34-31.05a17.77,17.77,0,0,1,6.68,3.76c5.09,4.65-2.46,16.26-3.25,18.77s4.32-5.09,6-7,5.93-7.37,6.31-12.4S204.29,32.31,201.13,31.18Z"/></svg>