<svg id="Layer_1" data-name="Layer 1" xmlns="http://www.w3.org/2000/svg" width="439.02" height="393.18" viewBox="0 0 439.02 393.18"><defs><style>.cls-1{fill:#001970;}.cls-2{fill:#7c756c;}.cls-3{fill:#c9920e;}.cls-4{fill:#323232;}.cls-5{fill:#ece8e5;}.cls-6{fill:#716c5c;}.cls-7,.cls-8{fill:none;stroke-miterlimit:10;}.cls-7{stroke:#b1a89c;}.cls-8{stroke:#dfdcd6;}.cls-9{fill:#fff;}</style></defs><title>homepage-feature-right</title><path class="cls-1" d="M170.88,113.66h2.54l-5.25,15h-2.58l-5.23-15h2.52L166,123q0.25,0.67.52,1.72t0.36,1.56q0.13-.78.41-1.8t0.45-1.52Z"/><path class="cls-1" d="M175.4,128.65v-15h2.45v15H175.4Z"/><path class="cls-1" d="M190.46,124.58a3.77,3.77,0,0,1-1.45,3.14,6.29,6.29,0,0,1-4,1.14,9.52,9.52,0,0,1-4.16-.79v-2.32a11.32,11.32,0,0,0,2.18.76,9.24,9.24,0,0,0,2.15.28,3.42,3.42,0,0,0,2.15-.55,1.81,1.81,0,0,0,.69-1.49,1.86,1.86,0,0,0-.64-1.43,9.57,9.57,0,0,0-2.62-1.38,6.94,6.94,0,0,1-2.89-1.9,4,4,0,0,1-.84-2.56,3.59,3.59,0,0,1,1.33-3,5.53,5.53,0,0,1,3.58-1.08,10.51,10.51,0,0,1,4.29.94l-0.78,2a9.36,9.36,0,0,0-3.57-.84,2.74,2.74,0,0,0-1.8.52,1.7,1.7,0,0,0-.62,1.37,1.93,1.93,0,0,0,.25,1,2.51,2.51,0,0,0,.81.78,13.7,13.7,0,0,0,2,1,11.11,11.11,0,0,1,2.42,1.28,3.77,3.77,0,0,1,1.13,1.34A4,4,0,0,1,190.46,124.58Z"/><path class="cls-1" d="M205.11,113.66v9.7a5.76,5.76,0,0,1-.71,2.91,4.75,4.75,0,0,1-2.06,1.92,7.16,7.16,0,0,1-3.22.67,6,6,0,0,1-4.34-1.48,5.34,5.34,0,0,1-1.55-4.06v-9.66h2.46v9.48a3.79,3.79,0,0,0,.86,2.74,3.55,3.55,0,0,0,2.65.88q3.47,0,3.47-3.64v-9.46h2.45Z"/><path class="cls-1" d="M218.24,128.65l-1.5-4.16H211l-1.47,4.16H207l5.61-15.05h2.67l5.61,15.05h-2.6Zm-2.14-6.28-1.4-4.08q-0.15-.41-0.43-1.29t-0.37-1.29a23,23,0,0,1-.81,2.76l-1.35,3.91h4.37Z"/><path class="cls-1" d="M222.83,128.65v-15h2.45v12.89h6.35v2.1h-8.8Z"/><path class="cls-1" d="M249,128.65l-1.5-4.16h-5.73l-1.47,4.16h-2.58l5.61-15.05H246l5.61,15.05H249Zm-2.14-6.28-1.4-4.08q-0.15-.41-0.43-1.29t-0.37-1.29a23,23,0,0,1-.81,2.76l-1.35,3.91h4.37Z"/><path class="cls-1" d="M256,122.66v6h-2.45v-15h4.24a7,7,0,0,1,4.3,1.09,3.9,3.9,0,0,1,1.39,3.28,4.1,4.1,0,0,1-2.91,4l4.24,6.63H262l-3.59-6H256Zm0-2h1.7a3.89,3.89,0,0,0,2.48-.64,2.31,2.31,0,0,0,.77-1.89,2,2,0,0,0-.83-1.83,4.55,4.55,0,0,0-2.5-.55H256v4.9Z"/><path class="cls-1" d="M272.15,128.65H269.7V115.76h-4.41v-2.1h11.27v2.1h-4.41v12.89Z"/><path class="cls-1" d="M287.5,124.58a3.78,3.78,0,0,1-1.45,3.14,6.3,6.3,0,0,1-4,1.14,9.52,9.52,0,0,1-4.16-.79v-2.32a11.32,11.32,0,0,0,2.18.76,9.24,9.24,0,0,0,2.15.28,3.42,3.42,0,0,0,2.15-.55,1.81,1.81,0,0,0,.69-1.49,1.86,1.86,0,0,0-.64-1.43,9.57,9.57,0,0,0-2.62-1.38,6.94,6.94,0,0,1-2.89-1.9,4,4,0,0,1-.84-2.56,3.59,3.59,0,0,1,1.33-3,5.53,5.53,0,0,1,3.58-1.08,10.51,10.51,0,0,1,4.29.94l-0.78,2a9.36,9.36,0,0,0-3.57-.84,2.74,2.74,0,0,0-1.8.52,1.7,1.7,0,0,0-.62,1.37,1.93,1.93,0,0,0,.25,1,2.52,2.52,0,0,0,.81.78,13.73,13.73,0,0,0,2,1,11.16,11.16,0,0,1,2.42,1.28,3.77,3.77,0,0,1,1.13,1.34A4,4,0,0,1,287.5,124.58Z"/><path class="cls-2" d="M4.48,199.88l3-5.71H9l-3.81,7v4.43H3.8v-4.37L0,194.17H1.45Z"/><path class="cls-2" d="M14,205.74a3.93,3.93,0,0,1-3-1.16,4.48,4.48,0,0,1-1.1-3.21,5,5,0,0,1,1-3.29,3.39,3.39,0,0,1,2.74-1.22,3.23,3.23,0,0,1,2.55,1.06,4.06,4.06,0,0,1,.94,2.79v0.82H11.2a3.4,3.4,0,0,0,.76,2.29,2.64,2.64,0,0,0,2,.78,6.91,6.91,0,0,0,2.73-.58v1.16a6.89,6.89,0,0,1-1.3.43A7.31,7.31,0,0,1,14,205.74ZM13.6,198a2.12,2.12,0,0,0-1.64.67,3.09,3.09,0,0,0-.72,1.86h4.48a2.85,2.85,0,0,0-.55-1.88A1.92,1.92,0,0,0,13.6,198Z"/><path class="cls-2" d="M24.58,205.59l-0.26-1.22H24.26A3.6,3.6,0,0,1,23,205.46a3.9,3.9,0,0,1-1.59.29,2.86,2.86,0,0,1-2-.66,2.4,2.4,0,0,1-.72-1.87q0-2.59,4.15-2.72l1.45,0v-0.53a2.17,2.17,0,0,0-.43-1.49,1.78,1.78,0,0,0-1.39-.48,5.65,5.65,0,0,0-2.42.66l-0.4-1a6.06,6.06,0,0,1,1.39-.54,6,6,0,0,1,1.51-.2,3.26,3.26,0,0,1,2.27.68,2.84,2.84,0,0,1,.74,2.18v5.84h-1Zm-2.93-.91a2.63,2.63,0,0,0,1.9-.66,2.46,2.46,0,0,0,.69-1.86v-0.77l-1.3.05a4.71,4.71,0,0,0-2.23.48,1.45,1.45,0,0,0-.68,1.32,1.34,1.34,0,0,0,.43,1.07A1.77,1.77,0,0,0,21.65,204.67Z"/><path class="cls-2" d="M32.12,196.87a5.07,5.07,0,0,1,1,.09L33,198.17A4.42,4.42,0,0,0,32,198a2.28,2.28,0,0,0-1.78.84,3.08,3.08,0,0,0-.74,2.1v4.59h-1.3V197h1.07l0.15,1.59h0.06a3.75,3.75,0,0,1,1.15-1.29A2.58,2.58,0,0,1,32.12,196.87Z"/><path class="cls-1" d="M255.39,2.7a6.31,6.31,0,0,1,6.3,6.3V81a6.31,6.31,0,0,1-6.3,6.3h-72a6.31,6.31,0,0,1-6.3-6.3V9a6.31,6.31,0,0,1,6.3-6.3h72m0-2.7h-72a9,9,0,0,0-9,9V81a9,9,0,0,0,9,9h72a9,9,0,0,0,9-9V9a9,9,0,0,0-9-9h0Z"/><path class="cls-3" d="M220.27,39.75a6.15,6.15,0,1,0-6.15,6.15A6.16,6.16,0,0,0,220.27,39.75Zm-6.15,4.35a4.35,4.35,0,1,1,4.35-4.35A4.36,4.36,0,0,1,214.12,44.1Z"/><path class="cls-3" d="M219.39,61.18A4.65,4.65,0,1,0,224,65.83,4.65,4.65,0,0,0,219.39,61.18Zm0,7.5a2.85,2.85,0,1,1,2.85-2.85A2.85,2.85,0,0,1,219.39,68.68Z"/><path class="cls-3" d="M234.07,55.05a4.65,4.65,0,1,0,4.65,4.65A4.65,4.65,0,0,0,234.07,55.05Zm0,7.5a2.85,2.85,0,1,1,2.85-2.85A2.85,2.85,0,0,1,234.07,62.55Z"/><path class="cls-3" d="M240.2,40.35A4.65,4.65,0,1,0,244.85,45,4.65,4.65,0,0,0,240.2,40.35Zm0,7.5A2.85,2.85,0,1,1,243,45,2.85,2.85,0,0,1,240.2,47.85Z"/><path class="cls-3" d="M234.07,34.95a4.65,4.65,0,1,0-4.65-4.65A4.65,4.65,0,0,0,234.07,34.95Zm0-7.5a2.85,2.85,0,1,1-2.85,2.85A2.85,2.85,0,0,1,234.07,27.45Z"/><path class="cls-1" d="M242.15,22.09a32.19,32.19,0,0,0-22.91-9.49,19.65,19.65,0,0,0-9.63,2.14,13.29,13.29,0,0,0-5.36,5.59c-2.27,4.35-2.58,9.89-2.58,15.22,0,2.65-.45,6.77-3.06,8.11,0.08-7.48.08-13.34,0.08-13.42V29.32a10.2,10.2,0,0,0,.9-3.71c0-4.07-2.93-8-3.06-8.2l-1.44-1.92-1.44,1.92c-0.12.17-3.06,4.13-3.06,8.2a10.2,10.2,0,0,0,.9,3.71v0.92c0,0.08,0,6.18.09,13.87-2.55.15-4.44,2.37-4.44,5.27A24.43,24.43,0,0,0,192,63.56c0.08,2.16.17,4.05,0.26,5.68,0.14,2.32.29,4.12,0.46,5.36a12.35,12.35,0,0,0,.33,1.73,2.12,2.12,0,0,0,2,1.82h0a2.12,2.12,0,0,0,2-1.81,12.33,12.33,0,0,0,.33-1.73c0.16-1.15.3-2.79,0.43-4.87a34.65,34.65,0,0,0,21.34,7.66h0A32.41,32.41,0,0,0,242.15,22.09Zm-48.86,8.15h3.6s0,1.81,0,4.71H193.3C193.29,32,193.29,30.24,193.29,30.24Zm1.8-11.75s2.7,3.6,2.7,7.12a8.41,8.41,0,0,1-.68,2.83h-4a8.42,8.42,0,0,1-.68-2.83C192.39,22.09,195.09,18.49,195.09,18.49Zm-6.15,30.89c0-1.65.91-3.31,2.66-3.47,0,2.4.07,4.91,0.12,7.41s0.1,4.66.16,6.72A21.79,21.79,0,0,1,188.94,49.38Zm6.16,27h0c-1.37,0-1.7-26.89-1.78-39.6h3.55C196.79,49.46,196.47,76.35,195.09,76.35Zm45.81-9.69a30.42,30.42,0,0,1-21.66,8.94,32.86,32.86,0,0,1-21-7.9L198,67.5c0.18-3.66.33-8.42,0.44-14.17,0.05-2.61.09-5.22,0.12-7.71,3.13-1,4.88-4.53,4.88-10.07,0-5.1.29-10.38,2.38-14.39,2.37-4.55,6.75-6.77,13.39-6.77A30.63,30.63,0,0,1,240.9,66.66Z"/><path class="cls-2" d="M81.34,175.42H75V164h6.37v1.18h-5v3.68H81V170H76.3v4.2h5v1.19Z"/><path class="cls-2" d="M83.56,164.53a0.86,0.86,0,0,1,.22-0.65,0.81,0.81,0,0,1,1.09,0,0.85,0.85,0,0,1,.23.65,0.86,0.86,0,0,1-.23.65,0.76,0.76,0,0,1-.54.21,0.75,0.75,0,0,1-.55-0.21A0.88,0.88,0,0,1,83.56,164.53ZM85,175.42h-1.3v-8.56H85v8.56Z"/><path class="cls-2" d="M94.73,166.85v0.82l-1.59.19a2.79,2.79,0,0,1,.56,1.71,2.53,2.53,0,0,1-.86,2,3.47,3.47,0,0,1-2.36.75,3.94,3.94,0,0,1-.72-0.06,1.28,1.28,0,0,0-.83,1.1,0.56,0.56,0,0,0,.29.52,2.11,2.11,0,0,0,1,.17h1.52a3.39,3.39,0,0,1,2.14.59,2,2,0,0,1,.75,1.7,2.43,2.43,0,0,1-1.14,2.17,6.11,6.11,0,0,1-3.33.75,4.55,4.55,0,0,1-2.59-.62,2,2,0,0,1-.91-1.77,2,2,0,0,1,.5-1.35,2.54,2.54,0,0,1,1.41-.77,1.36,1.36,0,0,1-.55-0.46,1.22,1.22,0,0,1-.22-0.73,1.38,1.38,0,0,1,.25-0.82,2.63,2.63,0,0,1,.79-0.68,2.31,2.31,0,0,1-1.08-.93,2.73,2.73,0,0,1-.42-1.5,2.77,2.77,0,0,1,.84-2.17,3.44,3.44,0,0,1,2.39-.76,4.34,4.34,0,0,1,1.21.16h3Zm-6.83,10a1.16,1.16,0,0,0,.59,1.05,3.24,3.24,0,0,0,1.68.36,4.69,4.69,0,0,0,2.42-.49,1.5,1.5,0,0,0,.79-1.32,1,1,0,0,0-.43-1,3.34,3.34,0,0,0-1.62-.27H89.77a2,2,0,0,0-1.37.42A1.51,1.51,0,0,0,87.9,176.85Zm0.7-7.26a1.74,1.74,0,0,0,.51,1.36,2,2,0,0,0,1.41.46,1.65,1.65,0,0,0,1.9-1.84,1.7,1.7,0,0,0-1.92-1.93,1.9,1.9,0,0,0-1.41.49A2,2,0,0,0,88.6,169.6Z"/><path class="cls-2" d="M102.35,175.42v-5.54a2.24,2.24,0,0,0-.48-1.56,1.94,1.94,0,0,0-1.49-.52,2.44,2.44,0,0,0-2,.73,3.72,3.72,0,0,0-.62,2.41v4.48h-1.3V163.26h1.3v3.68a8.05,8.05,0,0,1-.06,1.1H97.8a2.64,2.64,0,0,1,1.09-1,3.54,3.54,0,0,1,1.61-.36,3.3,3.3,0,0,1,2.36.75,3.14,3.14,0,0,1,.79,2.37v5.59h-1.3Z"/><path class="cls-2" d="M109.07,174.5a4.26,4.26,0,0,0,.66-0.05,4.44,4.44,0,0,0,.51-0.11v1a2.41,2.41,0,0,1-.62.17,4.7,4.7,0,0,1-.74.07q-2.48,0-2.48-2.62v-5.09h-1.23v-0.62l1.23-.54,0.55-1.83h0.75v2h2.48v1H107.7v5a1.73,1.73,0,0,0,.37,1.19A1.28,1.28,0,0,0,109.07,174.5Z"/><path class="cls-2" d="M117.81,175.42v-5.54a2.24,2.24,0,0,0-.48-1.56,1.94,1.94,0,0,0-1.49-.52,2.44,2.44,0,0,0-2,.73,3.72,3.72,0,0,0-.62,2.41v4.48H112V163.26h1.3v3.68a8.05,8.05,0,0,1-.06,1.1h0.08a2.64,2.64,0,0,1,1.09-1,3.54,3.54,0,0,1,1.61-.36,3.3,3.3,0,0,1,2.36.75,3.14,3.14,0,0,1,.79,2.37v5.59h-1.3Z"/><path class="cls-2" d="M121.06,171.72v-1.19h3.84v1.19h-3.84Z"/><path class="cls-2" d="M133.93,166.85v0.82l-1.59.19a2.79,2.79,0,0,1,.56,1.71,2.53,2.53,0,0,1-.86,2,3.47,3.47,0,0,1-2.36.75,3.94,3.94,0,0,1-.72-0.06,1.28,1.28,0,0,0-.83,1.1,0.56,0.56,0,0,0,.29.52,2.11,2.11,0,0,0,1,.17h1.52a3.39,3.39,0,0,1,2.14.59,2,2,0,0,1,.75,1.7,2.43,2.43,0,0,1-1.14,2.17,6.11,6.11,0,0,1-3.33.75,4.55,4.55,0,0,1-2.59-.62,2,2,0,0,1-.91-1.77,2,2,0,0,1,.5-1.35,2.54,2.54,0,0,1,1.41-.77,1.36,1.36,0,0,1-.55-0.46,1.22,1.22,0,0,1-.22-0.73,1.38,1.38,0,0,1,.25-0.82,2.63,2.63,0,0,1,.79-0.68,2.31,2.31,0,0,1-1.08-.93,2.73,2.73,0,0,1-.42-1.5,2.77,2.77,0,0,1,.84-2.17,3.44,3.44,0,0,1,2.39-.76,4.34,4.34,0,0,1,1.21.16h3Zm-6.83,10a1.16,1.16,0,0,0,.59,1.05,3.24,3.24,0,0,0,1.68.36,4.69,4.69,0,0,0,2.42-.49,1.5,1.5,0,0,0,.79-1.32,1,1,0,0,0-.43-1,3.34,3.34,0,0,0-1.62-.27H129a2,2,0,0,0-1.38.42A1.51,1.51,0,0,0,127.1,176.85Zm0.7-7.26a1.74,1.74,0,0,0,.51,1.36,2,2,0,0,0,1.41.46,1.65,1.65,0,0,0,1.9-1.84,1.7,1.7,0,0,0-1.92-1.93,1.9,1.9,0,0,0-1.41.49A2,2,0,0,0,127.81,169.6Z"/><path class="cls-2" d="M139.6,166.7a5.08,5.08,0,0,1,1,.09l-0.18,1.2a4.42,4.42,0,0,0-.94-0.12,2.28,2.28,0,0,0-1.78.84,3.08,3.08,0,0,0-.74,2.1v4.59h-1.3v-8.56h1.07l0.15,1.59H137a3.75,3.75,0,0,1,1.15-1.29A2.58,2.58,0,0,1,139.6,166.7Z"/><path class="cls-2" d="M147.49,175.42l-0.26-1.22h-0.06a3.61,3.61,0,0,1-1.28,1.09,3.91,3.91,0,0,1-1.59.29,2.86,2.86,0,0,1-2-.66,2.39,2.39,0,0,1-.72-1.87q0-2.59,4.15-2.72l1.45,0v-0.53a2.17,2.17,0,0,0-.43-1.49,1.78,1.78,0,0,0-1.39-.48,5.65,5.65,0,0,0-2.42.66l-0.4-1a6.06,6.06,0,0,1,1.39-.54,6,6,0,0,1,1.51-.2,3.26,3.26,0,0,1,2.27.68,2.84,2.84,0,0,1,.74,2.18v5.84h-1Zm-2.93-.91a2.63,2.63,0,0,0,1.9-.66,2.46,2.46,0,0,0,.69-1.86v-0.77l-1.3.05a4.71,4.71,0,0,0-2.23.48,1.45,1.45,0,0,0-.68,1.32,1.34,1.34,0,0,0,.43,1.07A1.77,1.77,0,0,0,144.56,174.5Z"/><path class="cls-2" d="M156.95,174.27h-0.07a3,3,0,0,1-2.69,1.3,3.18,3.18,0,0,1-2.61-1.15,5.05,5.05,0,0,1-.93-3.27,5.14,5.14,0,0,1,.94-3.29,3.15,3.15,0,0,1,2.61-1.17,3.11,3.11,0,0,1,2.67,1.27H157l-0.05-.62,0-.6v-3.48h1.3v12.16h-1.05Zm-2.59.22a2.36,2.36,0,0,0,1.93-.72,3.65,3.65,0,0,0,.6-2.33v-0.27a4.3,4.3,0,0,0-.61-2.6,2.3,2.3,0,0,0-1.93-.78,2,2,0,0,0-1.75.89,4.41,4.41,0,0,0-.61,2.5,4.23,4.23,0,0,0,.6,2.48A2,2,0,0,0,154.35,174.49Z"/><path class="cls-2" d="M164.54,175.57a3.93,3.93,0,0,1-3-1.16,4.48,4.48,0,0,1-1.1-3.21,5,5,0,0,1,1-3.29,3.39,3.39,0,0,1,2.74-1.22,3.23,3.23,0,0,1,2.55,1.06,4.06,4.06,0,0,1,.94,2.79v0.82h-5.9a3.39,3.39,0,0,0,.76,2.29,2.64,2.64,0,0,0,2,.78,6.9,6.9,0,0,0,2.73-.58V175a6.88,6.88,0,0,1-1.3.43A7.31,7.31,0,0,1,164.54,175.57Zm-0.35-7.79a2.12,2.12,0,0,0-1.64.67,3.09,3.09,0,0,0-.72,1.86h4.48a2.85,2.85,0,0,0-.55-1.88A1.93,1.93,0,0,0,164.19,167.78Z"/><path class="cls-2" d="M179.32,175.42l-0.26-1.22H179a3.61,3.61,0,0,1-1.28,1.09,3.91,3.91,0,0,1-1.59.29,2.86,2.86,0,0,1-2-.66,2.39,2.39,0,0,1-.72-1.87q0-2.59,4.15-2.72l1.45,0v-0.53a2.17,2.17,0,0,0-.43-1.49,1.78,1.78,0,0,0-1.39-.48,5.65,5.65,0,0,0-2.42.66l-0.4-1a6.06,6.06,0,0,1,1.39-.54,6,6,0,0,1,1.51-.2,3.26,3.26,0,0,1,2.27.68,2.84,2.84,0,0,1,.74,2.18v5.84h-1Zm-2.93-.91a2.63,2.63,0,0,0,1.9-.66A2.46,2.46,0,0,0,179,172v-0.77l-1.3.05a4.71,4.71,0,0,0-2.23.48,1.45,1.45,0,0,0-.68,1.32,1.34,1.34,0,0,0,.43,1.07A1.77,1.77,0,0,0,176.39,174.5Z"/><path class="cls-2" d="M184.83,175.42l-3.25-8.56H183l1.84,5.08a24.15,24.15,0,0,1,.73,2.31h0.06a17.39,17.39,0,0,1,.54-1.71q0.46-1.3,2.05-5.68h1.39l-3.25,8.56h-1.52Z"/><path class="cls-2" d="M194.59,175.57a3.93,3.93,0,0,1-3-1.16,4.48,4.48,0,0,1-1.1-3.21,5,5,0,0,1,1-3.29,3.39,3.39,0,0,1,2.74-1.22,3.23,3.23,0,0,1,2.55,1.06,4.06,4.06,0,0,1,.94,2.79v0.82h-5.9a3.39,3.39,0,0,0,.76,2.29,2.64,2.64,0,0,0,2,.78,6.9,6.9,0,0,0,2.73-.58V175a6.88,6.88,0,0,1-1.3.43A7.31,7.31,0,0,1,194.59,175.57Zm-0.35-7.79a2.12,2.12,0,0,0-1.64.67,3.09,3.09,0,0,0-.72,1.86h4.48a2.85,2.85,0,0,0-.55-1.88A1.93,1.93,0,0,0,194.24,167.78Z"/><path class="cls-2" d="M203.85,166.7a5.08,5.08,0,0,1,1,.09L204.7,168a4.42,4.42,0,0,0-.94-0.12,2.28,2.28,0,0,0-1.78.84,3.08,3.08,0,0,0-.74,2.1v4.59h-1.3v-8.56H201l0.15,1.59h0.06a3.75,3.75,0,0,1,1.15-1.29A2.58,2.58,0,0,1,203.85,166.7Z"/><path class="cls-2" d="M211.74,175.42l-0.26-1.22h-0.06a3.61,3.61,0,0,1-1.28,1.09,3.91,3.91,0,0,1-1.59.29,2.86,2.86,0,0,1-2-.66,2.39,2.39,0,0,1-.72-1.87q0-2.59,4.15-2.72l1.45,0v-0.53a2.17,2.17,0,0,0-.43-1.49,1.78,1.78,0,0,0-1.39-.48,5.65,5.65,0,0,0-2.42.66l-0.4-1a6.06,6.06,0,0,1,1.39-.54,6,6,0,0,1,1.51-.2,3.26,3.26,0,0,1,2.27.68,2.84,2.84,0,0,1,.74,2.18v5.84h-1Zm-2.93-.91a2.63,2.63,0,0,0,1.9-.66,2.46,2.46,0,0,0,.69-1.86v-0.77l-1.3.05a4.71,4.71,0,0,0-2.23.48,1.45,1.45,0,0,0-.68,1.32,1.34,1.34,0,0,0,.43,1.07A1.77,1.77,0,0,0,208.81,174.5Z"/><path class="cls-2" d="M222.39,166.85v0.82l-1.59.19a2.79,2.79,0,0,1,.56,1.71,2.53,2.53,0,0,1-.86,2,3.47,3.47,0,0,1-2.36.75,3.94,3.94,0,0,1-.72-0.06,1.28,1.28,0,0,0-.83,1.1,0.56,0.56,0,0,0,.29.52,2.11,2.11,0,0,0,1,.17h1.52a3.39,3.39,0,0,1,2.14.59,2,2,0,0,1,.75,1.7,2.43,2.43,0,0,1-1.14,2.17,6.11,6.11,0,0,1-3.33.75,4.55,4.55,0,0,1-2.59-.62,2,2,0,0,1-.91-1.77,2,2,0,0,1,.5-1.35,2.54,2.54,0,0,1,1.41-.77,1.36,1.36,0,0,1-.55-0.46,1.22,1.22,0,0,1-.22-0.73,1.38,1.38,0,0,1,.25-0.82,2.63,2.63,0,0,1,.79-0.68,2.31,2.31,0,0,1-1.08-.93,2.73,2.73,0,0,1-.42-1.5,2.77,2.77,0,0,1,.84-2.17,3.44,3.44,0,0,1,2.39-.76,4.34,4.34,0,0,1,1.21.16h3Zm-6.83,10a1.16,1.16,0,0,0,.59,1.05,3.24,3.24,0,0,0,1.68.36,4.69,4.69,0,0,0,2.42-.49,1.5,1.5,0,0,0,.79-1.32,1,1,0,0,0-.43-1,3.34,3.34,0,0,0-1.62-.27h-1.55a2,2,0,0,0-1.37.42A1.51,1.51,0,0,0,215.56,176.85Zm0.7-7.26a1.74,1.74,0,0,0,.51,1.36,2,2,0,0,0,1.41.46,1.65,1.65,0,0,0,1.9-1.84,1.7,1.7,0,0,0-1.92-1.93,1.9,1.9,0,0,0-1.41.49A2,2,0,0,0,216.26,169.6Z"/><path class="cls-2" d="M227.76,175.57a3.94,3.94,0,0,1-3-1.16,4.48,4.48,0,0,1-1.1-3.21,5,5,0,0,1,1-3.29,3.39,3.39,0,0,1,2.74-1.22,3.23,3.23,0,0,1,2.55,1.06,4.06,4.06,0,0,1,.94,2.79v0.82H225a3.39,3.39,0,0,0,.76,2.29,2.63,2.63,0,0,0,2,.78,6.9,6.9,0,0,0,2.73-.58V175a6.9,6.9,0,0,1-1.3.43A7.32,7.32,0,0,1,227.76,175.57Zm-0.35-7.79a2.12,2.12,0,0,0-1.64.67,3.09,3.09,0,0,0-.72,1.86h4.48a2.86,2.86,0,0,0-.55-1.88A1.93,1.93,0,0,0,227.41,167.78Z"/><path class="cls-2" d="M242.8,173.08a2.15,2.15,0,0,1-.89,1.84,4.19,4.19,0,0,1-2.5.65,5.43,5.43,0,0,1-2.66-.54v-1.2a6.41,6.41,0,0,0,1.32.49,5.53,5.53,0,0,0,1.36.18,3.1,3.1,0,0,0,1.56-.32,1.12,1.12,0,0,0,.11-1.84,6.82,6.82,0,0,0-1.69-.84,9.18,9.18,0,0,1-1.7-.78A2.32,2.32,0,0,1,237,170a2,2,0,0,1-.25-1,1.92,1.92,0,0,1,.85-1.65,4,4,0,0,1,2.34-.61,6.84,6.84,0,0,1,2.7.56l-0.46,1.05a6.2,6.2,0,0,0-2.34-.53,2.68,2.68,0,0,0-1.39.29,0.89,0.89,0,0,0-.47.8,1,1,0,0,0,.18.59,1.73,1.73,0,0,0,.57.46,12.67,12.67,0,0,0,1.5.63,5.61,5.61,0,0,1,2.06,1.12A2,2,0,0,1,242.8,173.08Z"/><path class="cls-2" d="M248.33,175.57a3.65,3.65,0,0,1-2.88-1.14,4.71,4.71,0,0,1-1-3.24,4.85,4.85,0,0,1,1-3.32,3.72,3.72,0,0,1,2.95-1.17,5.84,5.84,0,0,1,1.23.13,4.06,4.06,0,0,1,1,.31l-0.4,1.1a6.09,6.09,0,0,0-.94-0.29,4.19,4.19,0,0,0-.9-0.11q-2.61,0-2.61,3.33a4,4,0,0,0,.64,2.42,2.21,2.21,0,0,0,1.89.84,5.77,5.77,0,0,0,2.2-.46v1.15A4.68,4.68,0,0,1,248.33,175.57Z"/><path class="cls-2" d="M259.92,171.13a4.72,4.72,0,0,1-1.05,3.27,3.72,3.72,0,0,1-2.91,1.18,3.86,3.86,0,0,1-2-.54,3.55,3.55,0,0,1-1.37-1.55,5.37,5.37,0,0,1-.48-2.36,4.71,4.71,0,0,1,1-3.26A3.7,3.7,0,0,1,256,166.7a3.62,3.62,0,0,1,2.86,1.2A4.71,4.71,0,0,1,259.92,171.13Zm-6.52,0a4.06,4.06,0,0,0,.66,2.5,2.6,2.6,0,0,0,3.86,0,4,4,0,0,0,.66-2.5,4,4,0,0,0-.66-2.48,2.32,2.32,0,0,0-1.95-.85,2.28,2.28,0,0,0-1.92.84A4,4,0,0,0,253.39,171.13Z"/><path class="cls-2" d="M266.1,166.7a5.09,5.09,0,0,1,1,.09l-0.18,1.2a4.44,4.44,0,0,0-.94-0.12,2.28,2.28,0,0,0-1.78.84,3.08,3.08,0,0,0-.74,2.1v4.59h-1.3v-8.56h1.07l0.15,1.59h0.06a3.73,3.73,0,0,1,1.15-1.29A2.58,2.58,0,0,1,266.1,166.7Z"/><path class="cls-2" d="M272.34,175.57a3.93,3.93,0,0,1-3-1.16,4.47,4.47,0,0,1-1.1-3.21,5,5,0,0,1,1-3.29A3.39,3.39,0,0,1,272,166.7a3.23,3.23,0,0,1,2.55,1.06,4.06,4.06,0,0,1,.94,2.79v0.82h-5.9a3.39,3.39,0,0,0,.76,2.29,2.63,2.63,0,0,0,2,.78,6.9,6.9,0,0,0,2.73-.58V175a6.9,6.9,0,0,1-1.3.43A7.32,7.32,0,0,1,272.34,175.57ZM272,167.78a2.12,2.12,0,0,0-1.64.67,3.08,3.08,0,0,0-.72,1.86h4.48a2.86,2.86,0,0,0-.55-1.88A1.93,1.93,0,0,0,272,167.78Z"/><path class="cls-2" d="M283.22,173.08a2.15,2.15,0,0,1-.89,1.84,4.19,4.19,0,0,1-2.5.65,5.43,5.43,0,0,1-2.66-.54v-1.2a6.41,6.41,0,0,0,1.32.49,5.53,5.53,0,0,0,1.36.18,3.1,3.1,0,0,0,1.56-.32,1.12,1.12,0,0,0,.11-1.84,6.82,6.82,0,0,0-1.69-.84,9.18,9.18,0,0,1-1.7-.78,2.32,2.32,0,0,1-.75-0.75,2,2,0,0,1-.25-1,1.92,1.92,0,0,1,.85-1.65,4,4,0,0,1,2.34-.61,6.84,6.84,0,0,1,2.7.56l-0.46,1.05a6.2,6.2,0,0,0-2.34-.53,2.68,2.68,0,0,0-1.39.29,0.89,0.89,0,0,0-.47.8,1,1,0,0,0,.18.59,1.73,1.73,0,0,0,.57.46,12.67,12.67,0,0,0,1.5.63,5.61,5.61,0,0,1,2.06,1.12A2,2,0,0,1,283.22,173.08Z"/><path class="cls-4" d="M15.37,361.28h-9v-1.89l3.23-3.26q1.43-1.47,1.87-2a4.48,4.48,0,0,0,.63-1.05,2.67,2.67,0,0,0,.19-1,1.46,1.46,0,0,0-.43-1.15,1.65,1.65,0,0,0-1.14-.38,3.27,3.27,0,0,0-1.45.34,7.48,7.48,0,0,0-1.47,1l-1.48-1.75a9.63,9.63,0,0,1,1.57-1.14,5.78,5.78,0,0,1,1.36-.51,7,7,0,0,1,1.65-.18,4.89,4.89,0,0,1,2.13.44,3.39,3.39,0,0,1,1.43,1.23,3.27,3.27,0,0,1,.51,1.81,4.43,4.43,0,0,1-.31,1.67,6.4,6.4,0,0,1-1,1.6,23.67,23.67,0,0,1-2.31,2.33l-1.65,1.56V359h5.6v2.29Z"/><path class="cls-4" d="M25.58,354.85a9,9,0,0,1-1.1,5,3.83,3.83,0,0,1-3.4,1.62,3.78,3.78,0,0,1-3.35-1.67,8.83,8.83,0,0,1-1.13-4.93,9,9,0,0,1,1.1-5,3.81,3.81,0,0,1,3.38-1.61,3.79,3.79,0,0,1,3.36,1.69A8.85,8.85,0,0,1,25.58,354.85Zm-6.28,0a10,10,0,0,0,.41,3.39,1.41,1.41,0,0,0,1.38,1,1.43,1.43,0,0,0,1.37-1,13.74,13.74,0,0,0,0-6.77,1.42,1.42,0,0,0-2.74,0A10,10,0,0,0,19.29,354.85Z"/><path class="cls-4" d="M35.85,354.85a9,9,0,0,1-1.1,5,3.83,3.83,0,0,1-3.4,1.62A3.78,3.78,0,0,1,28,359.79a8.83,8.83,0,0,1-1.13-4.93,9,9,0,0,1,1.1-5,3.81,3.81,0,0,1,3.38-1.61,3.79,3.79,0,0,1,3.36,1.69A8.85,8.85,0,0,1,35.85,354.85Zm-6.28,0a10,10,0,0,0,.41,3.39,1.41,1.41,0,0,0,1.38,1,1.43,1.43,0,0,0,1.37-1,13.74,13.74,0,0,0,0-6.77,1.42,1.42,0,0,0-2.74,0A10,10,0,0,0,29.57,354.85Z"/><path class="cls-4" d="M41.64,348.26a4.87,4.87,0,0,1,3,.84,2.68,2.68,0,0,1,1.13,2.26,3,3,0,0,1-.54,1.75,4.64,4.64,0,0,1-1.76,1.38,6.23,6.23,0,0,1,2.07,1.61,3,3,0,0,1,.63,1.84,3.06,3.06,0,0,1-1.24,2.54,5.17,5.17,0,0,1-3.26,1,5.44,5.44,0,0,1-3.31-.9,3,3,0,0,1-1.2-2.54,3.37,3.37,0,0,1,.58-2,4.85,4.85,0,0,1,1.88-1.5A4.82,4.82,0,0,1,38,353.08a3.25,3.25,0,0,1-.48-1.73,2.66,2.66,0,0,1,1.14-2.23A4.86,4.86,0,0,1,41.64,348.26Zm-2,9.6a1.42,1.42,0,0,0,.53,1.18,2.76,2.76,0,0,0,3,0,1.45,1.45,0,0,0,.5-1.15,1.57,1.57,0,0,0-.5-1.1,6.39,6.39,0,0,0-1.61-1.09Q39.64,356.54,39.64,357.86Zm2-7.61a1.69,1.69,0,0,0-1.12.36,1.18,1.18,0,0,0-.43,1,1.46,1.46,0,0,0,.34.94,3.72,3.72,0,0,0,1.23.86,3.43,3.43,0,0,0,1.2-.83,1.5,1.5,0,0,0,.34-1,1.16,1.16,0,0,0-.44-1A1.74,1.74,0,0,0,41.63,350.25Z"/><path class="cls-4" d="M15.37,273.5h-9v-1.89l3.23-3.26q1.43-1.47,1.87-2a4.48,4.48,0,0,0,.63-1.05,2.67,2.67,0,0,0,.19-1,1.46,1.46,0,0,0-.43-1.15,1.65,1.65,0,0,0-1.14-.38,3.27,3.27,0,0,0-1.45.34,7.48,7.48,0,0,0-1.47,1l-1.48-1.75a9.63,9.63,0,0,1,1.57-1.14,5.77,5.77,0,0,1,1.36-.51,7,7,0,0,1,1.65-.18,4.89,4.89,0,0,1,2.13.44,3.39,3.39,0,0,1,1.43,1.23,3.27,3.27,0,0,1,.51,1.81,4.43,4.43,0,0,1-.31,1.67,6.39,6.39,0,0,1-1,1.59,23.65,23.65,0,0,1-2.31,2.33l-1.65,1.56v0.12h5.6v2.29Z"/><path class="cls-4" d="M25.58,267.08a9,9,0,0,1-1.1,5,3.83,3.83,0,0,1-3.4,1.62A3.78,3.78,0,0,1,17.73,272a8.83,8.83,0,0,1-1.13-4.93,9,9,0,0,1,1.1-5,3.81,3.81,0,0,1,3.38-1.61,3.79,3.79,0,0,1,3.36,1.69A8.85,8.85,0,0,1,25.58,267.08Zm-6.28,0a10,10,0,0,0,.41,3.39,1.41,1.41,0,0,0,1.38,1,1.43,1.43,0,0,0,1.37-1,13.74,13.74,0,0,0,0-6.77,1.42,1.42,0,0,0-2.74,0A10,10,0,0,0,19.29,267.08Z"/><path class="cls-4" d="M33.66,273.5H30.94v-7.44l0-1.22,0-1.34q-0.68.68-.94,0.89l-1.48,1.19-1.31-1.63,4.14-3.3h2.23V273.5Z"/><path class="cls-4" d="M37.13,268q0-3.81,1.61-5.68a6,6,0,0,1,4.83-1.86,8.76,8.76,0,0,1,1.72.13v2.17a7,7,0,0,0-1.55-.18,5.31,5.31,0,0,0-2.28.42,2.84,2.84,0,0,0-1.32,1.25,5.73,5.73,0,0,0-.52,2.35h0.11a3,3,0,0,1,2.79-1.49,3.45,3.45,0,0,1,2.7,1.08,4.3,4.3,0,0,1,1,3A4.49,4.49,0,0,1,45,272.48a4.27,4.27,0,0,1-3.22,1.2,4.6,4.6,0,0,1-2.48-.66,4.28,4.28,0,0,1-1.63-1.92A7.33,7.33,0,0,1,37.13,268Zm4.64,3.46a1.61,1.61,0,0,0,1.34-.58,2.62,2.62,0,0,0,.47-1.67,2.3,2.3,0,0,0-.43-1.48,1.59,1.59,0,0,0-1.31-.54,2,2,0,0,0-1.41.54,1.65,1.65,0,0,0-.58,1.25,2.83,2.83,0,0,0,.55,1.77A1.68,1.68,0,0,0,41.77,271.51Z"/><rect class="cls-5" x="74.4" y="333.43" width="227.32" height="37.92"/><rect class="cls-1" x="74.4" y="333.43" width="113.66" height="37.92"/><rect class="cls-5" x="74.4" y="248.24" width="227.32" height="37.92"/><rect class="cls-1" x="74.4" y="248.24" width="111.39" height="37.92"/><path class="cls-6" d="M153,194a7.55,7.55,0,0,1,.38-2.42,6,6,0,0,1,1.09-2h0.79a6.87,6.87,0,0,0-1.06,2.07,7.69,7.69,0,0,0-.35,2.32,7.42,7.42,0,0,0,.36,2.29,7.13,7.13,0,0,0,1,2h-0.78a5.77,5.77,0,0,1-1.09-1.94A7.39,7.39,0,0,1,153,194Z"/><path class="cls-6" d="M163.37,193.14a5.22,5.22,0,0,1-.58,2.76,2.16,2.16,0,0,1-3.54,0,5.11,5.11,0,0,1-.6-2.74,5.22,5.22,0,0,1,.58-2.77,2.16,2.16,0,0,1,3.54,0A5.09,5.09,0,0,1,163.37,193.14Zm-3.9,0a5.23,5.23,0,0,0,.37,2.27,1.32,1.32,0,0,0,2.34,0,7.19,7.19,0,0,0,0-4.51,1.32,1.32,0,0,0-2.34,0A5.19,5.19,0,0,0,159.46,193.14Z"/><path class="cls-6" d="M166.87,194.41v-0.74h2.4v0.74h-2.4Z"/><path class="cls-6" d="M177.19,191.26a1.63,1.63,0,0,1-.38,1.12,1.92,1.92,0,0,1-1.09.58v0a2,2,0,0,1,1.27.55,1.61,1.61,0,0,1,.42,1.15,1.87,1.87,0,0,1-.71,1.57,3.22,3.22,0,0,1-2,.55,5.86,5.86,0,0,1-1-.09,3.55,3.55,0,0,1-.92-0.3v-0.77a4.68,4.68,0,0,0,2,.47q1.85,0,1.85-1.45,0-1.3-2-1.3h-0.7v-0.7h0.71a2.14,2.14,0,0,0,1.32-.37,1.21,1.21,0,0,0,.49-1,1,1,0,0,0-.36-0.82,1.48,1.48,0,0,0-1-.3,3,3,0,0,0-.88.13,4,4,0,0,0-.95.47l-0.41-.55a3.42,3.42,0,0,1,1-.54,3.68,3.68,0,0,1,1.21-.2,2.47,2.47,0,0,1,1.62.48A1.6,1.6,0,0,1,177.19,191.26Z"/><path class="cls-6" d="M183.21,193.14a5.22,5.22,0,0,1-.58,2.76,2.16,2.16,0,0,1-3.54,0,5.11,5.11,0,0,1-.6-2.74,5.22,5.22,0,0,1,.58-2.77,2.16,2.16,0,0,1,3.54,0A5.09,5.09,0,0,1,183.21,193.14Zm-3.9,0a5.23,5.23,0,0,0,.37,2.27,1.32,1.32,0,0,0,2.34,0,7.19,7.19,0,0,0,0-4.51,1.32,1.32,0,0,0-2.34,0A5.19,5.19,0,0,0,179.31,193.14Z"/><path class="cls-6" d="M188.93,193.14a5.22,5.22,0,0,1-.58,2.76,2.16,2.16,0,0,1-3.54,0,5.11,5.11,0,0,1-.6-2.74,5.22,5.22,0,0,1,.58-2.77,2.16,2.16,0,0,1,3.54,0A5.09,5.09,0,0,1,188.93,193.14Zm-3.9,0a5.23,5.23,0,0,0,.37,2.27,1.32,1.32,0,0,0,2.34,0,7.19,7.19,0,0,0,0-4.51,1.32,1.32,0,0,0-2.34,0A5.19,5.19,0,0,0,185,193.14Z"/><path class="cls-6" d="M197,194.82a1.75,1.75,0,0,1-.68,1.47,3,3,0,0,1-1.86.53,4.65,4.65,0,0,1-2-.33v-0.8a5.17,5.17,0,0,0,1,.29,5,5,0,0,0,1,.11,2.07,2.07,0,0,0,1.25-.31,1,1,0,0,0,.42-0.88,1.13,1.13,0,0,0-.15-0.61,1.38,1.38,0,0,0-.5-0.44,7,7,0,0,0-1.06-.45,3.38,3.38,0,0,1-1.42-.84,1.86,1.86,0,0,1-.43-1.27,1.59,1.59,0,0,1,.62-1.31,2.58,2.58,0,0,1,1.64-.49,4.84,4.84,0,0,1,2,.39l-0.26.72a4.42,4.42,0,0,0-1.72-.37,1.66,1.66,0,0,0-1,.28,0.93,0.93,0,0,0-.37.79,1.21,1.21,0,0,0,.14.61,1.29,1.29,0,0,0,.46.43,5.74,5.74,0,0,0,1,.44,3.94,3.94,0,0,1,1.55.86A1.69,1.69,0,0,1,197,194.82Z"/><path class="cls-6" d="M201.55,190.22a2.33,2.33,0,0,0-1.86.78,3.16,3.16,0,0,0-.68,2.15,3.22,3.22,0,0,0,.66,2.17,2.33,2.33,0,0,0,1.87.76,6.39,6.39,0,0,0,1.7-.27v0.73a5.24,5.24,0,0,1-1.83.28,3.1,3.1,0,0,1-2.43-1,3.94,3.94,0,0,1-.86-2.72,4.29,4.29,0,0,1,.41-1.93,3,3,0,0,1,1.19-1.28,3.6,3.6,0,0,1,1.83-.45,4.42,4.42,0,0,1,2,.41l-0.35.71A3.78,3.78,0,0,0,201.55,190.22Z"/><path class="cls-6" d="M209.29,196.72l-0.89-2.27h-2.86l-0.88,2.27h-0.84l2.82-7.17h0.7l2.81,7.17h-0.86Zm-1.15-3-0.83-2.21q-0.16-.42-0.33-1a9.12,9.12,0,0,1-.31,1l-0.84,2.21h2.31Z"/><path class="cls-6" d="M211.13,196.72v-7.14H212V196h3.15v0.75h-4Z"/><path class="cls-6" d="M220.3,196.72h-4v-7.14h4v0.74h-3.15v2.3h3v0.73h-3V196h3.15v0.74Z"/><path class="cls-6" d="M226.06,194a7.37,7.37,0,0,1-.38,2.39,5.73,5.73,0,0,1-1.09,1.93h-0.78a7,7,0,0,0,1-2,7.42,7.42,0,0,0,.36-2.29,7.72,7.72,0,0,0-.35-2.32,6.89,6.89,0,0,0-1.06-2.07h0.79a6,6,0,0,1,1.09,2A7.6,7.6,0,0,1,226.06,194Z"/><line class="cls-7" x1="74.4" y1="204.64" x2="301.72" y2="204.64"/><line class="cls-8" x1="4.05" y1="309.82" x2="425.6" y2="309.82"/><line class="cls-8" x1="4.05" y1="222.41" x2="425.6" y2="222.41"/><line class="cls-8" x1="4.05" y1="392.68" x2="425.6" y2="392.68"/><line class="cls-7" x1="74.78" y1="199.71" x2="74.78" y2="210.32"/><line class="cls-7" x1="188.06" y1="201.23" x2="188.06" y2="208.81"/><line class="cls-7" x1="301.72" y1="199.34" x2="301.72" y2="209.94"/><path class="cls-1" d="M406.21,271.12h-2.74v4.71h-4.7v-4.71h-9.7v-3.34l10-14.68h4.43v14.29h2.74v3.73Zm-7.43-3.73v-3.86q0-1,.08-2.8T399,258.6h-0.12a17.34,17.34,0,0,1-1.38,2.49l-4.17,6.3h5.47Z"/><path class="cls-1" d="M423.88,275.83H408v-3.34l5.71-5.77q2.53-2.6,3.31-3.6a8,8,0,0,0,1.12-1.86,4.72,4.72,0,0,0,.34-1.77,2.58,2.58,0,0,0-.75-2,2.93,2.93,0,0,0-2-.67,5.79,5.79,0,0,0-2.57.61,13.27,13.27,0,0,0-2.6,1.73L407.92,256a17,17,0,0,1,2.78-2,10.19,10.19,0,0,1,2.41-.91,12.36,12.36,0,0,1,2.92-.32,8.66,8.66,0,0,1,3.76.78,6,6,0,0,1,2.53,2.18,5.79,5.79,0,0,1,.9,3.2,7.83,7.83,0,0,1-.55,2.95A11.33,11.33,0,0,1,421,264.7a41.75,41.75,0,0,1-4.08,4.12L414,271.57v0.22h9.9v4Z"/><path class="cls-1" d="M430.9,267.7a4.44,4.44,0,0,1-.71,2.74,2.45,2.45,0,0,1-2.07.92,2.39,2.39,0,0,1-2-.94,4.43,4.43,0,0,1-.71-2.71q0-3.62,2.73-3.62a2.44,2.44,0,0,1,2.06.94A4.35,4.35,0,0,1,430.9,267.7Zm-3.51,0a4.72,4.72,0,0,0,.18,1.5,0.62,0.62,0,0,0,.58.5q0.76,0,.76-2t-0.76-2a0.61,0.61,0,0,0-.58.49A4.64,4.64,0,0,0,427.39,267.71Zm9-3.47-6.43,11.59H428l6.43-11.59h1.9Zm2.66,8.09a4.43,4.43,0,0,1-.71,2.73,2.45,2.45,0,0,1-2.07.92,2.39,2.39,0,0,1-2-.94,4.42,4.42,0,0,1-.71-2.71q0-3.62,2.74-3.62a2.44,2.44,0,0,1,2.06.94A4.35,4.35,0,0,1,439,272.33Zm-3.51,0a4.72,4.72,0,0,0,.18,1.5,0.62,0.62,0,0,0,.58.5q0.76,0,.76-2t-0.76-2a0.61,0.61,0,0,0-.58.49A4.65,4.65,0,0,0,435.5,272.34Z"/><path class="cls-1" d="M340.3,167.4a4.94,4.94,0,0,1-.6,2.69A2,2,0,0,1,338,171a1.92,1.92,0,0,1-1.7-.93,4.9,4.9,0,0,1-.61-2.67,5,5,0,0,1,.58-2.67,1.92,1.92,0,0,1,1.72-.9,2,2,0,0,1,1.74.93A4.81,4.81,0,0,1,340.3,167.4Zm-3.58,0a5.23,5.23,0,0,0,.29,2,1,1,0,0,0,.94.66q1.28,0,1.28-2.66T338,164.76a1,1,0,0,0-.94.66A5.16,5.16,0,0,0,336.73,167.4Zm8.45-3.41-6.34,11.42h-1.15L344,164h1.15Zm2,8a4.92,4.92,0,0,1-.6,2.68,2,2,0,0,1-1.75.91,1.91,1.91,0,0,1-1.71-.93,6.33,6.33,0,0,1,0-5.34,1.92,1.92,0,0,1,1.72-.9,2,2,0,0,1,1.73.92A4.73,4.73,0,0,1,347.19,172Zm-3.59,0a5.22,5.22,0,0,0,.29,2,1,1,0,0,0,.95.66,1,1,0,0,0,1-.65,4.88,4.88,0,0,0,.31-2,4.77,4.77,0,0,0-.31-2,1,1,0,0,0-1-.64,1,1,0,0,0-.95.64A5.1,5.1,0,0,0,343.6,172Z"/><path class="cls-1" d="M356.3,174.5a4.27,4.27,0,0,0,.66-0.05,4.47,4.47,0,0,0,.51-0.11v1a2.41,2.41,0,0,1-.62.17,4.7,4.7,0,0,1-.74.07q-2.48,0-2.48-2.62v-5.09h-1.23v-0.62l1.23-.54,0.55-1.83h0.75v2h2.48v1h-2.48v5a1.73,1.73,0,0,0,.37,1.19A1.28,1.28,0,0,0,356.3,174.5Z"/><path class="cls-1" d="M364.45,175.42l-0.26-1.22h-0.06a3.62,3.62,0,0,1-1.28,1.09,3.91,3.91,0,0,1-1.59.29,2.86,2.86,0,0,1-2-.66,2.39,2.39,0,0,1-.72-1.87q0-2.59,4.15-2.72l1.45,0v-0.53a2.17,2.17,0,0,0-.43-1.49,1.78,1.78,0,0,0-1.39-.48,5.65,5.65,0,0,0-2.42.66l-0.4-1a6.06,6.06,0,0,1,1.39-.54,6,6,0,0,1,1.51-.2,3.26,3.26,0,0,1,2.27.68,2.84,2.84,0,0,1,.74,2.18v5.84h-1Zm-2.93-.91a2.63,2.63,0,0,0,1.9-.66,2.46,2.46,0,0,0,.69-1.86v-0.77l-1.3.05a4.71,4.71,0,0,0-2.23.48,1.45,1.45,0,0,0-.68,1.32,1.34,1.34,0,0,0,.43,1.07A1.77,1.77,0,0,0,361.52,174.5Z"/><path class="cls-1" d="M369.37,171a15,15,0,0,1,1-1.25l2.77-2.93h1.54l-3.47,3.65,3.71,4.91h-1.57l-3-4-1,.84v3.2h-1.28V163.26h1.28v6.45q0,0.43-.06,1.33h0.06Z"/><path class="cls-1" d="M376.37,164.53a0.86,0.86,0,0,1,.22-0.65,0.81,0.81,0,0,1,1.09,0,0.85,0.85,0,0,1,.23.65,0.86,0.86,0,0,1-.23.65,0.76,0.76,0,0,1-.54.21,0.75,0.75,0,0,1-.55-0.21A0.88,0.88,0,0,1,376.37,164.53Zm1.41,10.88h-1.3v-8.56h1.3v8.56Z"/><path class="cls-1" d="M386.39,175.42v-5.54a2.24,2.24,0,0,0-.48-1.56,1.94,1.94,0,0,0-1.49-.52,2.46,2.46,0,0,0-2,.73,3.67,3.67,0,0,0-.62,2.4v4.49h-1.3v-8.56h1.05L381.8,168h0.06a2.64,2.64,0,0,1,1.12-1,3.62,3.62,0,0,1,1.6-.35,3.25,3.25,0,0,1,2.33.75,3.18,3.18,0,0,1,.78,2.39v5.59h-1.3Z"/><path class="cls-1" d="M397.36,166.85v0.82l-1.59.19a2.79,2.79,0,0,1,.56,1.71,2.53,2.53,0,0,1-.86,2,3.47,3.47,0,0,1-2.36.75,3.94,3.94,0,0,1-.72-0.06,1.27,1.27,0,0,0-.83,1.1,0.56,0.56,0,0,0,.29.52,2.11,2.11,0,0,0,1,.17h1.52a3.4,3.4,0,0,1,2.14.59,2,2,0,0,1,.75,1.7,2.43,2.43,0,0,1-1.14,2.17,6.11,6.11,0,0,1-3.33.75,4.55,4.55,0,0,1-2.59-.62,2,2,0,0,1-.91-1.77,2,2,0,0,1,.5-1.35,2.54,2.54,0,0,1,1.41-.77,1.36,1.36,0,0,1-.55-0.46,1.22,1.22,0,0,1-.22-0.73,1.38,1.38,0,0,1,.25-0.82,2.62,2.62,0,0,1,.79-0.68,2.31,2.31,0,0,1-1.08-.93,2.73,2.73,0,0,1-.42-1.5,2.77,2.77,0,0,1,.84-2.17,3.44,3.44,0,0,1,2.39-.76,4.34,4.34,0,0,1,1.21.16h3Zm-6.83,10a1.16,1.16,0,0,0,.59,1.05,3.24,3.24,0,0,0,1.68.36,4.69,4.69,0,0,0,2.42-.49,1.5,1.5,0,0,0,.79-1.32,1,1,0,0,0-.43-1,3.34,3.34,0,0,0-1.62-.27H392.4a2,2,0,0,0-1.37.42A1.51,1.51,0,0,0,390.53,176.85Zm0.7-7.26a1.74,1.74,0,0,0,.51,1.36,2,2,0,0,0,1.41.46,1.65,1.65,0,0,0,1.9-1.84,1.7,1.7,0,0,0-1.92-1.93,1.9,1.9,0,0,0-1.41.49A2,2,0,0,0,391.23,169.6Z"/><path class="cls-1" d="M408.54,175.42l-0.26-1.22h-0.06a3.62,3.62,0,0,1-1.28,1.09,3.91,3.91,0,0,1-1.59.29,2.86,2.86,0,0,1-2-.66,2.39,2.39,0,0,1-.72-1.87q0-2.59,4.15-2.72l1.45,0v-0.53a2.17,2.17,0,0,0-.43-1.49,1.78,1.78,0,0,0-1.39-.48,5.65,5.65,0,0,0-2.42.66l-0.4-1a6.06,6.06,0,0,1,1.39-.54,6,6,0,0,1,1.51-.2,3.26,3.26,0,0,1,2.27.68,2.84,2.84,0,0,1,.74,2.18v5.84h-1Zm-2.93-.91a2.63,2.63,0,0,0,1.9-.66,2.46,2.46,0,0,0,.69-1.86v-0.77l-1.3.05a4.71,4.71,0,0,0-2.23.48,1.45,1.45,0,0,0-.68,1.32,1.34,1.34,0,0,0,.43,1.07A1.77,1.77,0,0,0,405.61,174.5Z"/><path class="cls-1" d="M418,175.42v-5.54a2.24,2.24,0,0,0-.48-1.56,1.94,1.94,0,0,0-1.49-.52,2.46,2.46,0,0,0-2,.73,3.67,3.67,0,0,0-.62,2.4v4.49h-1.3v-8.56h1.05l0.21,1.17h0.06a2.64,2.64,0,0,1,1.12-1,3.62,3.62,0,0,1,1.6-.35,3.25,3.25,0,0,1,2.33.75,3.18,3.18,0,0,1,.78,2.39v5.59H418Z"/><path class="cls-1" d="M346.63,194.62l-0.26-1.22h-0.06a3.61,3.61,0,0,1-1.28,1.09,3.9,3.9,0,0,1-1.59.29,2.86,2.86,0,0,1-2-.66,2.39,2.39,0,0,1-.72-1.87q0-2.59,4.15-2.72l1.45,0V189a2.17,2.17,0,0,0-.43-1.49,1.78,1.78,0,0,0-1.39-.48,5.65,5.65,0,0,0-2.42.66l-0.4-1a6.1,6.1,0,0,1,1.39-.54,6,6,0,0,1,1.51-.2,3.26,3.26,0,0,1,2.27.68,2.84,2.84,0,0,1,.74,2.18v5.84h-1Zm-2.93-.91a2.63,2.63,0,0,0,1.9-.66,2.46,2.46,0,0,0,.69-1.86v-0.77l-1.3.05a4.72,4.72,0,0,0-2.23.48,1.45,1.45,0,0,0-.68,1.32,1.33,1.33,0,0,0,.43,1.07A1.77,1.77,0,0,0,343.7,193.7Z"/><path class="cls-1" d="M354.17,185.9a5.08,5.08,0,0,1,1,.09l-0.18,1.2a4.42,4.42,0,0,0-.94-0.12,2.28,2.28,0,0,0-1.78.84,3.08,3.08,0,0,0-.74,2.1v4.59h-1.3v-8.56h1.07l0.15,1.59h0.06a3.76,3.76,0,0,1,1.15-1.29A2.58,2.58,0,0,1,354.17,185.9Z"/><path class="cls-1" d="M359.56,193.7a4.61,4.61,0,0,0,1.17-.16v1a2.37,2.37,0,0,1-.62.17,4.65,4.65,0,0,1-.74.07q-2.48,0-2.48-2.62v-5.09h-1.23v-0.62l1.23-.54,0.55-1.83h0.75v2h2.48v1h-2.48v5a1.73,1.73,0,0,0,.37,1.19A1.28,1.28,0,0,0,359.56,193.7Z"/><path class="cls-1" d="M370,194.77a3.65,3.65,0,0,1-2.88-1.14,4.71,4.71,0,0,1-1-3.24,4.85,4.85,0,0,1,1-3.32,3.73,3.73,0,0,1,2.95-1.17,5.87,5.87,0,0,1,1.23.13,4.07,4.07,0,0,1,1,.31l-0.4,1.1a6.14,6.14,0,0,0-.94-0.29,4.18,4.18,0,0,0-.9-0.11q-2.61,0-2.61,3.33a4,4,0,0,0,.64,2.42,2.21,2.21,0,0,0,1.89.84,5.77,5.77,0,0,0,2.2-.46v1.15A4.68,4.68,0,0,1,370,194.77Z"/><path class="cls-1" d="M381.6,190.33a4.72,4.72,0,0,1-1.05,3.27,3.72,3.72,0,0,1-2.91,1.18,3.86,3.86,0,0,1-2-.54,3.55,3.55,0,0,1-1.37-1.55,5.39,5.39,0,0,1-.48-2.36,4.71,4.71,0,0,1,1-3.26,3.7,3.7,0,0,1,2.91-1.17,3.62,3.62,0,0,1,2.86,1.2A4.71,4.71,0,0,1,381.6,190.33Zm-6.52,0a4.06,4.06,0,0,0,.66,2.5,2.6,2.6,0,0,0,3.86,0,4,4,0,0,0,.66-2.5,4,4,0,0,0-.66-2.48,2.32,2.32,0,0,0-1.95-.85,2.28,2.28,0,0,0-1.92.84A4,4,0,0,0,375.08,190.33Z"/><path class="cls-1" d="M385.1,186.05v5.55a2.23,2.23,0,0,0,.48,1.56,1.94,1.94,0,0,0,1.49.52,2.43,2.43,0,0,0,2-.73,3.7,3.7,0,0,0,.62-2.4v-4.5h1.3v8.56h-1.07l-0.19-1.15h-0.07a2.59,2.59,0,0,1-1.11,1,3.72,3.72,0,0,1-1.61.34,3.27,3.27,0,0,1-2.34-.74,3.16,3.16,0,0,1-.78-2.37v-5.6h1.31Z"/><path class="cls-1" d="M397.6,185.9a5.08,5.08,0,0,1,1,.09l-0.18,1.2a4.42,4.42,0,0,0-.94-0.12,2.28,2.28,0,0,0-1.78.84A3.08,3.08,0,0,0,395,190v4.59h-1.3v-8.56h1.07l0.15,1.59H395a3.76,3.76,0,0,1,1.15-1.29A2.58,2.58,0,0,1,397.6,185.9Z"/><path class="cls-1" d="M405.75,192.28a2.14,2.14,0,0,1-.89,1.84,4.19,4.19,0,0,1-2.5.65,5.43,5.43,0,0,1-2.66-.54V193a6.39,6.39,0,0,0,1.32.49,5.53,5.53,0,0,0,1.36.18,3.09,3.09,0,0,0,1.56-.32,1.12,1.12,0,0,0,.11-1.84,6.83,6.83,0,0,0-1.69-.84,9.18,9.18,0,0,1-1.7-.78,2.32,2.32,0,0,1-.75-0.75,2,2,0,0,1-.25-1,1.92,1.92,0,0,1,.85-1.65,4,4,0,0,1,2.34-.61,6.84,6.84,0,0,1,2.7.56l-0.46,1.05a6.21,6.21,0,0,0-2.34-.53,2.68,2.68,0,0,0-1.39.29,0.89,0.89,0,0,0-.47.8,1,1,0,0,0,.18.59,1.73,1.73,0,0,0,.57.46,12.5,12.5,0,0,0,1.5.63,5.61,5.61,0,0,1,2.06,1.12A2,2,0,0,1,405.75,192.28Z"/><path class="cls-1" d="M411.48,194.77a3.93,3.93,0,0,1-3-1.16,4.47,4.47,0,0,1-1.1-3.21,5,5,0,0,1,1-3.29,3.39,3.39,0,0,1,2.74-1.22,3.23,3.23,0,0,1,2.55,1.06,4.06,4.06,0,0,1,.94,2.79v0.82h-5.9a3.39,3.39,0,0,0,.76,2.29,2.63,2.63,0,0,0,2,.78,6.9,6.9,0,0,0,2.73-.58v1.16a6.9,6.9,0,0,1-1.3.43A7.31,7.31,0,0,1,411.48,194.77ZM411.13,187a2.12,2.12,0,0,0-1.64.67,3.09,3.09,0,0,0-.72,1.86h4.48a2.85,2.85,0,0,0-.55-1.88A1.93,1.93,0,0,0,411.13,187Z"/><path class="cls-5" d="M352.44,249.7l-1.17.17a8.48,8.48,0,0,0-1.39.28c-0.27.07-.57,0.12-0.87,0.22l-1,.34a16.16,16.16,0,0,0-4.51,2.51,17.08,17.08,0,0,0-4.34,5.1,17.27,17.27,0,0,0-2.06,7.61,17,17,0,0,0,2.07,8.54,17.75,17.75,0,0,0,2.8,3.75,18.51,18.51,0,0,0,3.84,2.88,18.31,18.31,0,0,0,4.56,1.69,16.71,16.71,0,0,0,9.68-.83,18.31,18.31,0,0,0,4.21-2.44,18.51,18.51,0,0,0,3.29-3.5,17.75,17.75,0,0,0,2.12-4.17,17,17,0,0,0,.58-8.77,17.27,17.27,0,0,0-3.33-7.14,17.08,17.08,0,0,0-5.15-4.28,16.16,16.16,0,0,0-4.87-1.71l-1-.17c-0.32,0-.62,0-0.9-0.06a8.49,8.49,0,0,0-1.42,0l-1.19,0-0.8-9.36,1.84-.07a16.08,16.08,0,0,1,2.21.06c0.43,0,.9,0,1.4.11l1.57,0.26a25.55,25.55,0,0,1,7.62,2.68,26.14,26.14,0,0,1,12.32,31.53,27.12,27.12,0,0,1-3.32,6.51,26.15,26.15,0,0,1-11.71,9.27,26.11,26.11,0,0,1-15.11,1.3,26.15,26.15,0,0,1-13.12-7.14A27.12,27.12,0,0,1,331,279a26.11,26.11,0,0,1,6.76-33.17,25.55,25.55,0,0,1,7-3.94l1.51-.52c0.48-.15.94-0.24,1.36-0.35a16.08,16.08,0,0,1,2.17-.44l1.82-.24Z"/><path class="cls-1" d="M361.91,279.64l0.4-.23c0.25-.16.59-0.44,1.05-0.76a15.6,15.6,0,0,0,3.2-3.34,15.05,15.05,0,0,0,2.53-6A15.43,15.43,0,0,0,359.46,252a14.37,14.37,0,0,0-4.49-1,7.39,7.39,0,0,0-1.3,0l-0.46,0L352.69,239l0.81,0a16.88,16.88,0,0,1,2.29.07,26.25,26.25,0,0,1,8,1.78,27.33,27.33,0,0,1,17,30.71,27,27,0,0,1-4.49,10.59,27.5,27.5,0,0,1-5.63,5.89c-0.8.58-1.42,1.05-1.86,1.34l-0.7.42Z"/><path class="cls-1" d="M406.21,355h-2.74v4.71h-4.7V355h-9.7v-3.34l10-14.68h4.43v14.29h2.74V355Zm-7.43-3.73v-3.86q0-1,.08-2.8t0.12-2.13h-0.12a17.34,17.34,0,0,1-1.38,2.49l-4.17,6.3h5.47Z"/><path class="cls-1" d="M416.26,345.16a7.31,7.31,0,0,1,5.25,1.85,6.65,6.65,0,0,1,2,5.07,7.37,7.37,0,0,1-2.35,5.86q-2.35,2.05-6.72,2.05a13.15,13.15,0,0,1-6.13-1.23v-4.15a13.83,13.83,0,0,0,6,1.48q4.4,0,4.4-3.61,0-3.44-4.56-3.44a11.24,11.24,0,0,0-1.82.16,13.25,13.25,0,0,0-1.62.35l-1.91-1,0.85-11.58H421.9V341h-8.12l-0.42,4.46,0.54-.11A10.66,10.66,0,0,1,416.26,345.16Z"/><path class="cls-1" d="M430.9,351.54a4.44,4.44,0,0,1-.71,2.74,2.45,2.45,0,0,1-2.07.92,2.39,2.39,0,0,1-2-.94,4.43,4.43,0,0,1-.71-2.71q0-3.62,2.73-3.62a2.44,2.44,0,0,1,2.06.94A4.35,4.35,0,0,1,430.9,351.54Zm-3.51,0a4.72,4.72,0,0,0,.18,1.5,0.62,0.62,0,0,0,.58.5q0.76,0,.76-2t-0.76-2a0.61,0.61,0,0,0-.58.49A4.64,4.64,0,0,0,427.39,351.56Zm9-3.47-6.43,11.59H428l6.43-11.59h1.9Zm2.66,8.09a4.43,4.43,0,0,1-.71,2.73,2.45,2.45,0,0,1-2.07.92,2.39,2.39,0,0,1-2-.94,4.42,4.42,0,0,1-.71-2.71q0-3.62,2.74-3.62a2.44,2.44,0,0,1,2.06.94A4.35,4.35,0,0,1,439,356.17Zm-3.51,0a4.72,4.72,0,0,0,.18,1.5,0.62,0.62,0,0,0,.58.5q0.76,0,.76-2t-0.76-2a0.61,0.61,0,0,0-.58.49A4.65,4.65,0,0,0,435.5,356.19Z"/><path class="cls-5" d="M352.44,333.46l-1.17.17a8.48,8.48,0,0,0-1.39.28c-0.27.07-.57,0.12-0.87,0.22l-1,.34a16.16,16.16,0,0,0-4.51,2.51,17.08,17.08,0,0,0-4.34,5.1,17.27,17.27,0,0,0-2.06,7.61,17,17,0,0,0,2.07,8.54A17.74,17.74,0,0,0,342,362a18.51,18.51,0,0,0,3.84,2.88,18.31,18.31,0,0,0,4.56,1.69,16.71,16.71,0,0,0,9.68-.83,18.31,18.31,0,0,0,4.21-2.44,18.51,18.51,0,0,0,3.29-3.5,17.75,17.75,0,0,0,2.12-4.17,17,17,0,0,0,.58-8.77,17.27,17.27,0,0,0-3.33-7.14,17.08,17.08,0,0,0-5.15-4.28,16.16,16.16,0,0,0-4.87-1.71l-1-.17c-0.32,0-.62,0-0.9-0.06a8.49,8.49,0,0,0-1.42,0l-1.19,0-0.8-9.36,1.84-.07a16.08,16.08,0,0,1,2.21.06c0.43,0,.9,0,1.4.11l1.57,0.26a25.55,25.55,0,0,1,7.62,2.68,26.14,26.14,0,0,1,12.32,31.53,27.12,27.12,0,0,1-3.32,6.51,26.15,26.15,0,0,1-11.71,9.27,26.11,26.11,0,0,1-15.11,1.3,26.15,26.15,0,0,1-13.12-7.14,27.12,27.12,0,0,1-4.38-5.85,26.11,26.11,0,0,1,6.76-33.17,25.55,25.55,0,0,1,7-3.94l1.51-.52c0.48-.15.94-0.24,1.36-0.35a16.08,16.08,0,0,1,2.17-.44l1.82-.24Z"/><path class="cls-1" d="M359.29,364.67l0.46-.16c0.29-.14.71-0.34,1.26-0.59a16.53,16.53,0,0,0,4-3,15.38,15.38,0,0,0,4.09-13.89,15.61,15.61,0,0,0-9.17-11.2c-0.48-.17-0.93-0.37-1.38-0.51l-1.28-.35a17.22,17.22,0,0,0-2.13-.29,9,9,0,0,0-1.39,0l-0.49,0-0.52-11.89,0.87,0a19.35,19.35,0,0,1,2.45.08,29,29,0,0,1,3.78.54l2.27,0.61c0.79,0.24,1.6.58,2.45,0.9a27.51,27.51,0,0,1,16.21,19.81,27.28,27.28,0,0,1-7.22,24.54,28.41,28.41,0,0,1-7,5.22l-2.23,1-0.82.3Z"/><path class="cls-9" d="M135.8,364.28h-6.53v-12.6q0-2.3.1-4.2a14,14,0,0,1-1.5,1.53l-2.7,2.23-3.34-4.1,8.17-6.66h5.8v23.8Z"/><path class="cls-9" d="M150.81,348.69a7.27,7.27,0,0,1,3.7,1,6.58,6.58,0,0,1,2.57,2.69,8.48,8.48,0,0,1,.92,4,7.76,7.76,0,0,1-2.4,6.12q-2.4,2.13-7.27,2.13a15.56,15.56,0,0,1-6.8-1.29V358a17.12,17.12,0,0,0,3.2,1.07,13.59,13.59,0,0,0,3.07.42,4.36,4.36,0,0,0,2.75-.76,2.68,2.68,0,0,0,1-2.24,2.55,2.55,0,0,0-1-2.13,4.76,4.76,0,0,0-3-.77,10.65,10.65,0,0,0-3.27.57L141.93,353l0.9-12.57h13.58v5.36H148.3L148,349a14.64,14.64,0,0,1,1.81-.27Z"/><path class="cls-9" d="M177.9,352.41q0,6.32-2.12,9.25t-6.48,2.94a7.36,7.36,0,0,1-6.43-3.07q-2.17-3.07-2.17-9.12,0-6.35,2.12-9.31t6.48-3a7.35,7.35,0,0,1,6.42,3.08Q177.9,346.31,177.9,352.41Zm-10.79,0a20.3,20.3,0,0,0,.5,5.55,1.71,1.71,0,0,0,3.39,0,30.69,30.69,0,0,0,0-11,1.84,1.84,0,0,0-1.69-1.59,1.82,1.82,0,0,0-1.69,1.53A20.67,20.67,0,0,0,167.1,352.41Z"/><path class="cls-9" d="M136.13,278.43H129.6v-12.6q0-2.3.1-4.2a13.93,13.93,0,0,1-1.5,1.53l-2.7,2.23-3.34-4.1,8.17-6.66h5.8v23.8Z"/><path class="cls-9" d="M157.36,273.82h-2.62v4.61h-6.35v-4.61H138.9V269.1l9.9-14.47h5.94V269h2.62v4.8Zm-9-4.8v-2.77q0-.78.06-2.11a13.76,13.76,0,0,1,.09-1.39h-0.18a17.2,17.2,0,0,1-1.25,2.34L144.47,269h3.92Z"/><path class="cls-9" d="M177,265.52q0,7-3,10.11t-9.64,3.13a25.28,25.28,0,0,1-3.32-.16V273.5a15.34,15.34,0,0,0,2.8.26,8.65,8.65,0,0,0,5.32-1.42,5.7,5.7,0,0,0,2-4.5H171a5.91,5.91,0,0,1-1.25,1.69,4.27,4.27,0,0,1-1.51.8,7.67,7.67,0,0,1-2.23.28,6,6,0,0,1-4.83-2.07,8.57,8.57,0,0,1-1.74-5.7,7.79,7.79,0,0,1,8.43-8.45,8.27,8.27,0,0,1,6.76,2.9Q177,260.18,177,265.52Zm-9-6a2.16,2.16,0,0,0-1.72.77,3.73,3.73,0,0,0-.66,2.46,3.56,3.56,0,0,0,.57,2.12,2,2,0,0,0,1.74.79,2.55,2.55,0,0,0,1.84-.76,2.48,2.48,0,0,0,.78-1.84,4.25,4.25,0,0,0-.72-2.49A2.16,2.16,0,0,0,168,259.53Z"/><path class="cls-2" d="M195.32,279.11a3.71,3.71,0,0,1-1.53-.31,2.88,2.88,0,0,1-1.16-.95h-0.09a11.48,11.48,0,0,1,.09,1.42v3.52h-1.3V270.4h1.05l0.18,1.17h0.06a3,3,0,0,1,1.16-1,3.53,3.53,0,0,1,1.52-.31A3.16,3.16,0,0,1,198,271.4a6.2,6.2,0,0,1,0,6.54A3.17,3.17,0,0,1,195.32,279.11Zm-0.19-7.77a2.3,2.3,0,0,0-1.9.73,3.74,3.74,0,0,0-.6,2.31v0.29a4.28,4.28,0,0,0,.6,2.58,2.29,2.29,0,0,0,1.93.78,2,2,0,0,0,1.74-.9,4.26,4.26,0,0,0,.63-2.48,4.1,4.1,0,0,0-.63-2.46A2.07,2.07,0,0,0,195.14,271.34Z"/><path class="cls-2" d="M203.91,278a4.32,4.32,0,0,0,.66-0.05,4.44,4.44,0,0,0,.51-0.11v1a2.41,2.41,0,0,1-.62.17,4.7,4.7,0,0,1-.74.07q-2.48,0-2.48-2.62V271.4H200v-0.62l1.23-.54,0.55-1.83h0.75v2H205v1h-2.48v5a1.73,1.73,0,0,0,.37,1.19A1.28,1.28,0,0,0,203.91,278Z"/><path class="cls-2" d="M212.31,276.62a2.15,2.15,0,0,1-.89,1.84,4.19,4.19,0,0,1-2.5.65,5.43,5.43,0,0,1-2.66-.54v-1.2a6.45,6.45,0,0,0,1.32.49A5.56,5.56,0,0,0,209,278a3.1,3.1,0,0,0,1.56-.32,1.12,1.12,0,0,0,.11-1.84,6.79,6.79,0,0,0-1.69-.84,9.22,9.22,0,0,1-1.7-.78,2.32,2.32,0,0,1-.75-0.75,2,2,0,0,1-.25-1,1.92,1.92,0,0,1,.85-1.65,4,4,0,0,1,2.34-.61,6.84,6.84,0,0,1,2.7.56l-0.46,1.05a6.2,6.2,0,0,0-2.34-.53,2.68,2.68,0,0,0-1.39.29,0.89,0.89,0,0,0-.47.8,1,1,0,0,0,.18.59,1.74,1.74,0,0,0,.57.46,12.75,12.75,0,0,0,1.5.63,5.6,5.6,0,0,1,2.06,1.12A2,2,0,0,1,212.31,276.62Z"/><path class="cls-2" d="M197.32,362.31a3.71,3.71,0,0,1-1.53-.31,2.88,2.88,0,0,1-1.16-.95h-0.09a11.48,11.48,0,0,1,.09,1.42V366h-1.3V353.59h1.05l0.18,1.17h0.06a3,3,0,0,1,1.16-1,3.54,3.54,0,0,1,1.52-.31A3.16,3.16,0,0,1,200,354.6a6.2,6.2,0,0,1,0,6.54A3.17,3.17,0,0,1,197.32,362.31Zm-0.19-7.77a2.3,2.3,0,0,0-1.9.73,3.74,3.74,0,0,0-.6,2.31v0.29a4.28,4.28,0,0,0,.6,2.58,2.29,2.29,0,0,0,1.93.78,2,2,0,0,0,1.74-.9,4.26,4.26,0,0,0,.63-2.48,4.1,4.1,0,0,0-.63-2.46A2.07,2.07,0,0,0,197.14,354.54Z"/><path class="cls-2" d="M205.91,361.24a4.2,4.2,0,0,0,.66-0.05,4.44,4.44,0,0,0,.51-0.11v1a2.41,2.41,0,0,1-.62.17,4.7,4.7,0,0,1-.74.07q-2.48,0-2.48-2.62V354.6H202V354l1.23-.54,0.55-1.83h0.75v2H207v1h-2.48v5a1.73,1.73,0,0,0,.37,1.19A1.28,1.28,0,0,0,205.91,361.24Z"/><path class="cls-2" d="M214.31,359.82a2.15,2.15,0,0,1-.89,1.84,4.18,4.18,0,0,1-2.5.65,5.43,5.43,0,0,1-2.66-.54v-1.2a6.45,6.45,0,0,0,1.32.49,5.51,5.51,0,0,0,1.36.18,3.1,3.1,0,0,0,1.56-.32,1.12,1.12,0,0,0,.11-1.84,6.82,6.82,0,0,0-1.69-.84,9.15,9.15,0,0,1-1.7-.78,2.32,2.32,0,0,1-.75-0.75,2,2,0,0,1-.25-1,1.92,1.92,0,0,1,.85-1.65,4,4,0,0,1,2.34-.61,6.84,6.84,0,0,1,2.7.56l-0.46,1.05a6.2,6.2,0,0,0-2.34-.53,2.69,2.69,0,0,0-1.39.29,0.89,0.89,0,0,0-.47.8,1,1,0,0,0,.18.59,1.73,1.73,0,0,0,.57.46,12.75,12.75,0,0,0,1.5.63,5.61,5.61,0,0,1,2.06,1.12A2,2,0,0,1,214.31,359.82Z"/></svg>