<svg id="Layer_1" data-name="Layer 1" xmlns="http://www.w3.org/2000/svg" width="214.28" height="176.3" viewBox="0 0 214.28 176.3"><defs><style>.cls-1,.cls-7{fill:#001970;}.cls-10,.cls-11,.cls-2,.cls-3,.cls-4{fill:#00a896;}.cls-3,.cls-4{stroke:#00a896;}.cls-10,.cls-11,.cls-3,.cls-4,.cls-7{stroke-miterlimit:10;}.cls-3{stroke-width:1.11px;}.cls-5{fill:#899cc1;}.cls-6,.cls-9{fill:#fff;}.cls-6{opacity:0.75;}.cls-10,.cls-11,.cls-7{stroke:#fff;}.cls-7{stroke-width:1.5px;}.cls-8{fill:#a0ddd3;}.cls-9{opacity:0.85;}.cls-10{stroke-width:1.81px;}.cls-11{stroke-width:1.5px;}</style></defs><title>homepage-feature-2</title><path class="cls-1" d="M38.32,176.12h-9v-1.89L32.57,171q1.43-1.47,1.87-2a4.47,4.47,0,0,0,.63-1,2.67,2.67,0,0,0,.19-1,1.46,1.46,0,0,0-.43-1.15,1.65,1.65,0,0,0-1.14-.38,3.27,3.27,0,0,0-1.45.34,7.48,7.48,0,0,0-1.47,1l-1.48-1.75a9.63,9.63,0,0,1,1.57-1.14,5.78,5.78,0,0,1,1.36-.51,7,7,0,0,1,1.65-.18,4.89,4.89,0,0,1,2.13.44,3.39,3.39,0,0,1,1.43,1.23,3.27,3.27,0,0,1,.51,1.81,4.43,4.43,0,0,1-.31,1.67,6.4,6.4,0,0,1-1,1.6,23.64,23.64,0,0,1-2.31,2.33l-1.65,1.56v0.12h5.6v2.29Z"/><path class="cls-1" d="M48.53,169.7a9,9,0,0,1-1.1,5A3.83,3.83,0,0,1,44,176.3a3.78,3.78,0,0,1-3.35-1.67,8.83,8.83,0,0,1-1.13-4.93,9,9,0,0,1,1.1-5A3.81,3.81,0,0,1,44,163.07a3.79,3.79,0,0,1,3.36,1.69A8.85,8.85,0,0,1,48.53,169.7Zm-6.28,0a10,10,0,0,0,.41,3.39,1.43,1.43,0,0,0,2.75,0,13.73,13.73,0,0,0,0-6.77,1.42,1.42,0,0,0-2.74,0A10,10,0,0,0,42.24,169.7Z"/><path class="cls-1" d="M58.8,169.7a9,9,0,0,1-1.1,5,3.83,3.83,0,0,1-3.4,1.62,3.78,3.78,0,0,1-3.35-1.67,8.83,8.83,0,0,1-1.13-4.93,9,9,0,0,1,1.1-5,4.27,4.27,0,0,1,6.75.08A8.85,8.85,0,0,1,58.8,169.7Zm-6.28,0a10,10,0,0,0,.41,3.39,1.43,1.43,0,0,0,2.75,0,13.73,13.73,0,0,0,0-6.77,1.42,1.42,0,0,0-2.74,0A10,10,0,0,0,52.52,169.7Z"/><path class="cls-1" d="M64.59,163.11a4.87,4.87,0,0,1,3,.84,2.68,2.68,0,0,1,1.13,2.26,3,3,0,0,1-.54,1.75,4.64,4.64,0,0,1-1.76,1.38A6.23,6.23,0,0,1,68.47,171a3,3,0,0,1,.63,1.84,3.06,3.06,0,0,1-1.24,2.54,5.17,5.17,0,0,1-3.26,1,5.44,5.44,0,0,1-3.31-.9,3,3,0,0,1-1.2-2.54,3.37,3.37,0,0,1,.58-2,4.85,4.85,0,0,1,1.88-1.5A4.81,4.81,0,0,1,61,167.92a3.26,3.26,0,0,1-.48-1.73A2.66,2.66,0,0,1,61.61,164,4.86,4.86,0,0,1,64.59,163.11Zm-2,9.6a1.42,1.42,0,0,0,.53,1.18,2.76,2.76,0,0,0,3,0,1.44,1.44,0,0,0,.5-1.15,1.57,1.57,0,0,0-.5-1.1,6.38,6.38,0,0,0-1.61-1.09Q62.59,171.39,62.59,172.71Zm2-7.61a1.69,1.69,0,0,0-1.12.36,1.18,1.18,0,0,0-.43,1,1.46,1.46,0,0,0,.34.94,3.72,3.72,0,0,0,1.23.86,3.43,3.43,0,0,0,1.2-.83,1.5,1.5,0,0,0,.34-1,1.16,1.16,0,0,0-.44-1A1.74,1.74,0,0,0,64.58,165.09Z"/><path class="cls-2" d="M157.89,176.12h-9v-1.89l3.23-3.26q1.43-1.47,1.87-2a4.47,4.47,0,0,0,.63-1,2.67,2.67,0,0,0,.19-1,1.46,1.46,0,0,0-.43-1.15,1.66,1.66,0,0,0-1.14-.38,3.27,3.27,0,0,0-1.45.34,7.48,7.48,0,0,0-1.47,1l-1.48-1.75a9.63,9.63,0,0,1,1.57-1.14,5.78,5.78,0,0,1,1.36-.51,7,7,0,0,1,1.65-.18,4.89,4.89,0,0,1,2.13.44,3.39,3.39,0,0,1,1.43,1.23,3.27,3.27,0,0,1,.51,1.81,4.45,4.45,0,0,1-.31,1.67,6.46,6.46,0,0,1-1,1.6,23.77,23.77,0,0,1-2.31,2.33l-1.65,1.56v0.12h5.6v2.29Z"/><path class="cls-2" d="M168.09,169.7a9,9,0,0,1-1.1,5,3.83,3.83,0,0,1-3.4,1.62,3.78,3.78,0,0,1-3.35-1.67,8.82,8.82,0,0,1-1.13-4.93,9,9,0,0,1,1.1-5,4.27,4.27,0,0,1,6.75.08A8.86,8.86,0,0,1,168.09,169.7Zm-6.28,0a10,10,0,0,0,.41,3.39,1.43,1.43,0,0,0,2.75,0,13.72,13.72,0,0,0,0-6.77,1.42,1.42,0,0,0-2.74,0A10,10,0,0,0,161.81,169.7Z"/><path class="cls-2" d="M176.17,176.12h-2.72v-7.44l0-1.22,0-1.34q-0.68.68-.94,0.89l-1.48,1.19-1.31-1.63,4.14-3.3h2.23v12.85Z"/><path class="cls-2" d="M179.64,170.67q0-3.81,1.61-5.68a6,6,0,0,1,4.83-1.86,8.76,8.76,0,0,1,1.72.13v2.17a7,7,0,0,0-1.55-.18,5.32,5.32,0,0,0-2.28.42,2.84,2.84,0,0,0-1.32,1.25,5.73,5.73,0,0,0-.52,2.35h0.11a3,3,0,0,1,2.79-1.49,3.45,3.45,0,0,1,2.7,1.08,4.3,4.3,0,0,1,1,3,4.48,4.48,0,0,1-1.16,3.26,4.27,4.27,0,0,1-3.22,1.2,4.61,4.61,0,0,1-2.48-.66,4.29,4.29,0,0,1-1.63-1.92A7.35,7.35,0,0,1,179.64,170.67Zm4.64,3.46a1.61,1.61,0,0,0,1.34-.58,2.61,2.61,0,0,0,.47-1.67,2.29,2.29,0,0,0-.44-1.48,1.58,1.58,0,0,0-1.31-.54,2,2,0,0,0-1.41.54,1.65,1.65,0,0,0-.58,1.25,2.83,2.83,0,0,0,.55,1.77A1.68,1.68,0,0,0,184.28,174.13Z"/><circle class="cls-3" cx="168.95" cy="40.33" r="15.39"/><path class="cls-4" d="M181.22,59.5H155.86c-4.48,0-12.36,2.64-12.36,7.12v37.53c0,3.8,5.75,6.55,9.28,7.43,1.43,9.94,5.48,30.12,7.34,31.3,1.14,0.72,16.49.6,16.89,0,1.14-1.7,4.31-21.7,5.32-31.3,2.86-1.25,7.18-4.11,7.18-7.43V66.62C189.5,62.14,185.7,59.5,181.22,59.5Z"/><ellipse class="cls-1" cx="49.76" cy="18.64" rx="18.63" ry="18.64"/><path class="cls-1" d="M64.61,44H33.92C28.49,44,20,45,20,50.46V95.9c0,4.6,6.44,7.93,10.7,9,1.73,12,6.38,36.46,8.62,37.89,1.37,0.87,19.83.73,20.31,0,1.38-2.06,5.34-26.27,6.56-37.89,3.46-1.52,8.81-5,8.81-9V50.46C75,45,70,44,64.61,44Z"/><path class="cls-5" d="M49.59,55.85c-10.59-5.09-12.32,15.5-20.9,12-8.35-3.44-1.47-13-4.55-18.48-2.18-3.87-9.91-1.37-14.8,4C5.8,57.27,4,60.82,3.54,66c-3.77,16.77,8.54,35.41,30.85,46.13S78,125.24,87.19,105.8,71.91,66.58,49.59,55.85Zm7.65,22.6c-2.4,2.87-7,2.94-10.37.16s-4.08-7.37-1.69-10.24,7-2.94,10.38-.16S59.65,75.58,57.24,78.45Z"/><ellipse class="cls-6" cx="23.26" cy="87.35" rx="4.95" ry="5.74" transform="translate(-15.33 5.61) rotate(-10.36)"/><ellipse class="cls-6" cx="38.87" cy="99.42" rx="4.95" ry="5.74" transform="translate(-17.23 8.6) rotate(-10.35)"/><ellipse class="cls-6" cx="65.1" cy="108.2" rx="4.95" ry="5.74" transform="translate(-18.39 13.47) rotate(-10.36)"/><ellipse class="cls-6" cx="78.58" cy="94.99" rx="4.95" ry="5.74" transform="translate(-15.79 15.67) rotate(-10.35)"/><ellipse class="cls-6" cx="14.68" cy="69.37" rx="5.17" ry="4.45" transform="translate(-56.14 72.82) rotate(-80.84)"/><path class="cls-7" d="M70,81.73a11.62,11.62,0,0,1-3.9-3.93c-2.54-5.33,1.28-11.58,5.53-13.17,8.56-3.2,16.65,4,16.65,4s-7.5-.21-8.46,3.1-0.79,7.75-3,9.3A6.75,6.75,0,0,1,70,81.73Z"/><path class="cls-7" d="M70.27,82.48s-3.46-1.1-4.46-3.9c-0.09.29-14,4.36-17,7.25S17,125.67,19.56,128.16,57.71,102,61.33,97.66,70.27,82.48,70.27,82.48Z"/><path class="cls-8" d="M172.66,71.3c-8.73-4.11-10,12.81-17.09,10-6.88-2.78-1.29-10.67-3.85-15.15-1.81-3.16-8.15-1.06-12.13,3.41a16.55,16.55,0,0,0-4.68,10.43c-3,13.8,7.23,29,25.63,37.7s35.89,10.48,43.33-5.55S191.05,80,172.66,71.3Zm6.43,18.51c-2,2.37-5.77,2.46-8.52.2s-3.4-6-1.45-8.4,5.77-2.46,8.52-.2S181,87.44,179.08,89.81Z"/><ellipse class="cls-9" cx="151.22" cy="97.34" rx="4.07" ry="4.71" transform="translate(-15.54 30.02) rotate(-10.79)"/><ellipse class="cls-9" cx="164.12" cy="107.16" rx="4.07" ry="4.71" transform="translate(-17.17 32.64) rotate(-10.8)"/><ellipse class="cls-9" cx="185.72" cy="114.2" rx="4.06" ry="4.72" transform="translate(-18.1 36.8) rotate(-10.79)"/><ellipse class="cls-9" cx="196.71" cy="103.27" rx="4.07" ry="4.72" transform="translate(-15.86 38.66) rotate(-10.79)"/><ellipse class="cls-9" cx="144.06" cy="82.62" rx="4.24" ry="3.66" transform="translate(40.53 212.48) rotate(-81.27)"/><path class="cls-10" d="M197.25,93.9a9.25,9.25,0,0,1-3.11-3.13c-2-4.25,1-9.23,4.41-10.5,6.82-2.55,13.27,3.15,13.27,3.15s-6-.17-6.74,2.47-0.63,6.18-2.4,7.41A5.38,5.38,0,0,1,197.25,93.9Z"/><path class="cls-11" d="M197.7,94.5s-2.75-.88-3.55-3.11c-0.07.23-11.17,3.47-13.52,5.77s-25.41,31.75-23.34,33.74,30.4-20.86,33.28-24.31S197.7,94.5,197.7,94.5Z"/><ellipse class="cls-1" cx="5.59" cy="77.19" rx="5.59" ry="8.94"/><ellipse class="cls-2" cx="136.21" cy="83.55" rx="4.88" ry="7.76"/></svg>