<?xml version="1.0" encoding="utf-8"?>
<!-- Generator: Adobe Illustrator 18.0.0, SVG Export Plug-In . SVG Version: 6.00 Build 0)  -->
<!DOCTYPE svg PUBLIC "-//W3C//DTD SVG 1.1//EN" "http://www.w3.org/Graphics/SVG/1.1/DTD/svg11.dtd">
<svg version="1.1" id="Layer_1" xmlns="http://www.w3.org/2000/svg" xmlns:xlink="http://www.w3.org/1999/xlink" x="0px" y="0px"
	 viewBox="0 0 32 32" enable-background="new 0 0 32 32" xml:space="preserve">
<g>
	<path fill="#C9920E" d="M32,16c0,8.8-7.2,16-16,16C7.2,32,0,24.8,0,16C0,7.2,7.2,0,16,0C24.9,0,32,7.2,32,16z"/>
	<path fill="#8F6A19" d="M17.4,4.3c0,0,12.1,3,12,3.2c1,0.7,3.2,4.4,2.5,10.5c-0.9,7.4-6.6,11-6.6,11s-3.2,1.9-4.2,2
		c-0.1-0.1-4.8-3.5-4.8-3.5l-2.7-7.1l4.3-5.3l1.3-3.2V9L17.4,4.3z"/>
	<g>
		<path fill="#FFFFFF" d="M18.4,20.5h-4.9v-2.4c0-0.9,0.1-1.5,0.3-2c0.2-0.4,0.7-1,1.4-1.8l2.2-2.2c0.3-0.4,0.5-0.9,0.5-1.5
			c0-0.6-0.2-1.1-0.5-1.5c-0.3-0.4-0.8-0.6-1.3-0.6c-0.6,0-1,0.2-1.4,0.7c-0.4,0.5-0.6,1.1-0.7,1.9H8.9c0.2-2.1,1-3.8,2.3-5
			c1.3-1.2,3-1.8,5-1.8c2,0,3.6,0.5,4.9,1.6C22.3,7,23,8.5,23,10.4c0,0.9-0.1,1.5-0.3,1.9c-0.2,0.4-0.4,0.7-0.4,0.9
			c-0.1,0.2-0.3,0.4-0.6,0.8c-0.3,0.4-0.5,0.6-0.6,0.7c-0.5,0.5-1,1-1.5,1.4c-0.5,0.4-0.8,0.8-0.9,1.1c-0.1,0.3-0.2,0.7-0.2,1.3
			V20.5z M14,26.5c-0.5-0.5-0.8-1.2-0.8-2c0-0.8,0.3-1.5,0.8-2c0.5-0.5,1.2-0.8,2-0.8c0.8,0,1.5,0.3,2,0.8c0.5,0.5,0.8,1.2,0.8,2
			c0,0.8-0.3,1.5-0.8,2c-0.5,0.5-1.2,0.8-2,0.8C15.2,27.4,14.6,27.1,14,26.5z"/>
	</g>
</g>
</svg>
