<svg id="Layer_1" data-name="Layer 1" xmlns="http://www.w3.org/2000/svg" width="84" height="84" viewBox="0 0 84 84"><defs><style>.cls-1{fill:#899cc1;}</style></defs><title>icon-visual-arts</title><path class="cls-1" d="M75.6,2.52A5.89,5.89,0,0,1,81.48,8.4V75.6a5.89,5.89,0,0,1-5.88,5.88H8.4A5.89,5.89,0,0,1,2.52,75.6V8.4A5.89,5.89,0,0,1,8.4,2.52H75.6M75.6,0H8.4A8.4,8.4,0,0,0,0,8.4V75.6A8.4,8.4,0,0,0,8.4,84H75.6A8.4,8.4,0,0,0,84,75.6V8.4A8.4,8.4,0,0,0,75.6,0h0Z"/><path class="cls-1" d="M42.82,37.1a5.74,5.74,0,1,0-5.74,5.74A5.75,5.75,0,0,0,42.82,37.1Zm-5.74,4.06a4.06,4.06,0,1,1,4.06-4.06A4.07,4.07,0,0,1,37.08,41.16Z"/><path class="cls-1" d="M42,57.1a4.34,4.34,0,1,0,4.34,4.34A4.34,4.34,0,0,0,42,57.1Zm0,7a2.66,2.66,0,1,1,2.66-2.66A2.66,2.66,0,0,1,42,64.1Z"/><path class="cls-1" d="M55.7,51.38A4.34,4.34,0,1,0,60,55.72,4.34,4.34,0,0,0,55.7,51.38Zm0,7a2.66,2.66,0,1,1,2.66-2.66A2.66,2.66,0,0,1,55.7,58.38Z"/><path class="cls-1" d="M61.42,37.66A4.34,4.34,0,1,0,65.76,42,4.34,4.34,0,0,0,61.42,37.66Zm0,7A2.66,2.66,0,1,1,64.08,42,2.66,2.66,0,0,1,61.42,44.66Z"/><path class="cls-1" d="M55.7,32.62a4.34,4.34,0,1,0-4.34-4.34A4.34,4.34,0,0,0,55.7,32.62Zm0-7A2.66,2.66,0,1,1,53,28.28,2.66,2.66,0,0,1,55.7,25.62Z"/><path class="cls-1" d="M63.25,20.61a30,30,0,0,0-21.39-8.86,18.34,18.34,0,0,0-9,2,12.4,12.4,0,0,0-5,5.22c-2.12,4.06-2.41,9.23-2.41,14.2,0,2.47-.42,6.32-2.86,7.57,0.08-7,.08-12.45.08-12.53V27.36a9.52,9.52,0,0,0,.84-3.47c0-3.8-2.74-7.5-2.86-7.65l-1.34-1.79L18,16.25c-0.12.16-2.86,3.85-2.86,7.65A9.52,9.52,0,0,0,16,27.36v0.86C16,28.3,16,34,16,41.17c-2.38.14-4.15,2.21-4.15,4.92a22.8,22.8,0,0,0,4.53,13.24c0.07,2,.16,3.78.24,5.3,0.13,2.16.27,3.85,0.43,5a11.54,11.54,0,0,0,.31,1.61,2,2,0,0,0,1.89,1.69h0a2,2,0,0,0,1.91-1.69,11.51,11.51,0,0,0,.31-1.61c0.15-1.07.28-2.6,0.4-4.54a32.34,32.34,0,0,0,19.92,7.15h0A30.25,30.25,0,0,0,63.25,20.61ZM17.64,28.22H21s0,1.69,0,4.4H17.65C17.64,29.91,17.64,28.22,17.64,28.22Zm1.68-11s2.52,3.36,2.52,6.64a7.85,7.85,0,0,1-.64,2.64H17.44a7.85,7.85,0,0,1-.64-2.64C16.8,20.61,19.32,17.25,19.32,17.25ZM13.58,46.09a3,3,0,0,1,2.49-3.24c0,2.24.06,4.58,0.11,6.92s0.09,4.35.15,6.27A20.34,20.34,0,0,1,13.58,46.09Zm5.75,25.17h0c-1.28,0-1.59-25.1-1.66-37H21C20.91,46.16,20.6,71.26,19.32,71.26Zm42.75-9a28.39,28.39,0,0,1-20.22,8.35,30.67,30.67,0,0,1-19.59-7.37L22.06,63c0.17-3.42.31-7.86,0.41-13.23,0-2.43.08-4.88,0.11-7.2,2.92-.92,4.56-4.23,4.56-9.4,0-4.76.27-9.68,2.22-13.43,2.21-4.25,6.3-6.32,12.5-6.32A28.59,28.59,0,0,1,62.08,62.22Z"/></svg>