<svg id="Layer_1" data-name="Layer 1" xmlns="http://www.w3.org/2000/svg" width="23.4" height="23.4" viewBox="0 0 23.4 23.4"><defs><style>.cls-1{fill:#fff;}</style></defs><title>icon-link</title><path class="cls-1" d="M12.8,17.5a2.21,2.21,0,0,0,0-3.13L9,10.6a2.21,2.21,0,0,0-3.13,0L0.65,15.85A2.21,2.21,0,0,0,.65,19l3.77,3.77a2.21,2.21,0,0,0,3.13,0ZM7.25,20.09a1.76,1.76,0,0,1-2.49,0L3.2,18.57a1.76,1.76,0,0,1,0-2.49l2.89-2.89a1.76,1.76,0,0,1,2.49,0l1.56,1.56a1.76,1.76,0,0,1,0,2.49Z"/><path class="cls-1" d="M22.75,7.55a2.21,2.21,0,0,0,0-3.13L19,0.65a2.21,2.21,0,0,0-3.13,0L10.6,5.9A2.21,2.21,0,0,0,10.6,9l3.77,3.77a2.21,2.21,0,0,0,3.13,0Zm-5.54,2.59a1.76,1.76,0,0,1-2.49,0L13.15,8.61a1.76,1.76,0,0,1,0-2.49l2.89-2.89a1.76,1.76,0,0,1,2.49,0l1.56,1.56a1.76,1.76,0,0,1,0,2.49Z"/><path class="cls-1" d="M9.17,15.5a1,1,0,0,1-1.45,0l0,0a1,1,0,0,1,0-1.45L14.62,7.1a1,1,0,0,1,1.45,0l0,0a1,1,0,0,1,0,1.45Z"/></svg>