<svg id="Layer_1" data-name="Layer 1" xmlns="http://www.w3.org/2000/svg" width="83" height="83" viewBox="0 0 83 83"><defs><style>.cls-1{fill:#899cc1;}</style></defs><title>icon-music</title><path class="cls-1" d="M74.7,0H8.3A8.3,8.3,0,0,0,0,8.3V74.7A8.3,8.3,0,0,0,8.3,83H74.7A8.3,8.3,0,0,0,83,74.7V8.3A8.3,8.3,0,0,0,74.7,0Zm5.71,74.7a5.71,5.71,0,0,1-5.71,5.71H8.3A5.71,5.71,0,0,1,2.59,74.7V8.3A5.71,5.71,0,0,1,8.3,2.59H74.7A5.71,5.71,0,0,1,80.41,8.3V74.7Z"/><path class="cls-1" d="M23.93,60.27a12.68,12.68,0,0,0-4.67.39c-5,1.35-8.23,5.1-7.31,8.55a5.6,5.6,0,0,0,4,3.73,10.43,10.43,0,0,0,3.22.48A13.25,13.25,0,0,0,22.55,73C26.89,71.8,30,68.69,30,65.57V31.46L56.3,27.79V56.37a12.66,12.66,0,0,0-4.68.39,11.86,11.86,0,0,0-5.73,3.33A5.17,5.17,0,0,0,48.28,69a11.86,11.86,0,0,0,6.63,0c4.41-1.18,7.55-4.33,7.46-7.47V12.16L23.93,17.52V60.27Zm1.95,2.38V19.21L60.44,14.4V61.62c0.06,2.24-2.53,4.63-6,5.56a9.89,9.89,0,0,1-5.53,0,3.26,3.26,0,0,1-1.55-5.79,9.9,9.9,0,0,1,4.79-2.76,10.38,10.38,0,0,1,4.93-.17l1.19,0.28V25.56L28.07,29.77V65.58c0,2.22-2.58,4.58-6,5.5a9.89,9.89,0,0,1-5.53,0,3.75,3.75,0,0,1-2.7-2.38c-0.62-2.32,2.1-5.14,5.93-6.17a11.28,11.28,0,0,1,2.91-.39,8.93,8.93,0,0,1,2,.22Z"/><polygon class="cls-1" points="58.24 19.1 28.07 23.4 28.07 25.36 58.24 21.07 58.24 19.1"/></svg>