<svg id="Layer_1" data-name="Layer 1" xmlns="http://www.w3.org/2000/svg" width="27" height="22" viewBox="0 0 27 22"><defs><style>.cls-1{fill:#fff;}</style></defs><title>icon-chart</title><path class="cls-1" d="M27,1.37a1.41,1.41,0,0,0-.17-1A0.76,0.76,0,0,0,26.2,0H1.38A1.31,1.31,0,0,0,.46.41a1.62,1.62,0,0,0-.46,1v18.8a2.32,2.32,0,0,0,.46,1.18,1.65,1.65,0,0,0,.91.65H26.2a1.14,1.14,0,0,0,.62-0.65A2.14,2.14,0,0,0,27,20.17V1.37ZM10.34,18.71a0.57,0.57,0,0,1-.29.48,1.23,1.23,0,0,1-.71.2h-2a1.23,1.23,0,0,1-.71-0.2,0.57,0.57,0,0,1-.29-0.48V11.39a0.58,0.58,0,0,1,.29-0.48,1.24,1.24,0,0,1,.71-0.2h2a1.24,1.24,0,0,1,.71.2,0.58,0.58,0,0,1,.29.48v7.32Zm5.35,0a0.57,0.57,0,0,1-.29.48,1.23,1.23,0,0,1-.71.2h-2a1.24,1.24,0,0,1-.71-0.2,0.58,0.58,0,0,1-.29-0.48V3.53A0.58,0.58,0,0,1,12,3a1.25,1.25,0,0,1,.71-0.2h2a1.24,1.24,0,0,1,.71.2,0.58,0.58,0,0,1,.29.48V18.71Zm5.36,0a0.58,0.58,0,0,1-.29.48,1.23,1.23,0,0,1-.71.2H18a1.23,1.23,0,0,1-.71-0.2A0.58,0.58,0,0,1,17,18.71V6.51A0.57,0.57,0,0,1,17.33,6,1.24,1.24,0,0,1,18,5.83h2a1.23,1.23,0,0,1,.71.2,0.57,0.57,0,0,1,.29.48V18.71Z"/></svg>