<svg id="Layer_1" data-name="Layer 1" xmlns="http://www.w3.org/2000/svg" width="84" height="84" viewBox="0 0 84 84"><defs><style>.cls-1{fill:#889bc0;}</style></defs><title>icon-music</title><path class="cls-1" d="M75.6,0H8.4A8.4,8.4,0,0,0,0,8.4V75.6A8.4,8.4,0,0,0,8.4,84H75.6A8.4,8.4,0,0,0,84,75.6V8.4A8.4,8.4,0,0,0,75.6,0Zm5.77,75.6a5.78,5.78,0,0,1-5.77,5.77H8.4A5.78,5.78,0,0,1,2.63,75.6V8.4A5.78,5.78,0,0,1,8.4,2.63H75.6A5.78,5.78,0,0,1,81.38,8.4V75.6Z"/><path class="cls-1" d="M24.21,61a12.83,12.83,0,0,0-4.73.4c-5.08,1.36-8.33,5.16-7.4,8.65a5.67,5.67,0,0,0,4,3.77,10.56,10.56,0,0,0,3.26.49,13.4,13.4,0,0,0,3.45-.47c4.39-1.18,7.57-4.32,7.55-7.48V31.84L57,28.13V57.05a12.82,12.82,0,0,0-4.74.4,12,12,0,0,0-5.8,3.37,5.23,5.23,0,0,0,2.43,9.05,12,12,0,0,0,6.71,0c4.46-1.2,7.64-4.39,7.55-7.56v-50L24.22,17.73V61Zm2,2.4v-44l35-4.87v47.8C61.22,64.63,58.6,67,55.07,68a10,10,0,0,1-5.59,0,3.3,3.3,0,0,1-1.57-5.86,10,10,0,0,1,4.85-2.79,10.51,10.51,0,0,1,5-.17l1.21,0.28V25.87L28.41,30.13V66.37c0,2.24-2.61,4.64-6.09,5.57a10,10,0,0,1-5.59,0A3.79,3.79,0,0,1,14,69.53c-0.63-2.34,2.12-5.2,6-6.24a11.42,11.42,0,0,1,2.94-.4,9,9,0,0,1,2,.22Z"/><polygon class="cls-1" points="58.94 19.33 28.41 23.68 28.41 25.67 58.94 21.32 58.94 19.33"/></svg>