<svg id="Layer_1" data-name="Layer 1" xmlns="http://www.w3.org/2000/svg" width="26.76" height="21.75" viewBox="0 0 26.76 21.75"><defs><style>.cls-1{fill:#fff;}</style></defs><title>icon-twitter</title><path class="cls-1" d="M26.76,2.58a11,11,0,0,1-3.15.87A5.52,5.52,0,0,0,26,.4a11,11,0,0,1-3.49,1.33,5.49,5.49,0,0,0-9.36,5A15.59,15.59,0,0,1,1.86,1a5.5,5.5,0,0,0,1.7,7.33,5.49,5.49,0,0,1-2.49-.69V7.72a5.49,5.49,0,0,0,4.4,5.38A5.48,5.48,0,0,1,3,13.2,5.49,5.49,0,0,0,8.13,17a11,11,0,0,1-6.82,2.35A11.14,11.14,0,0,1,0,19.28a15.54,15.54,0,0,0,8.42,2.47A15.51,15.51,0,0,0,24,6.13c0-.24,0-0.47,0-0.71A11.17,11.17,0,0,0,26.76,2.58Z"/></svg>