<svg id="Layer_1" data-name="Layer 1" xmlns="http://www.w3.org/2000/svg" width="237.72" height="167.89" viewBox="0 0 237.72 167.89"><defs><style>.cls-1{fill:none;stroke:#d8d2cc;stroke-linecap:round;stroke-width:1.11px;}.cls-1,.cls-4{stroke-miterlimit:10;}.cls-2{fill:#001970;}.cls-3,.cls-4{fill:#00a896;}.cls-4{stroke:#fff;}</style></defs><title>homepage-feature-3</title><line class="cls-1" x1="0.55" y1="142.55" x2="213.29" y2="142.55"/><path class="cls-2" d="M38.53,167.71h-9v-1.89l3.23-3.26q1.43-1.47,1.87-2a4.47,4.47,0,0,0,.63-1,2.67,2.67,0,0,0,.19-1,1.46,1.46,0,0,0-.43-1.15,1.65,1.65,0,0,0-1.14-.38,3.27,3.27,0,0,0-1.45.34,7.48,7.48,0,0,0-1.47,1l-1.48-1.75a9.63,9.63,0,0,1,1.57-1.14,5.78,5.78,0,0,1,1.36-.51,7,7,0,0,1,1.65-.18,4.89,4.89,0,0,1,2.13.44,3.39,3.39,0,0,1,1.43,1.23,3.27,3.27,0,0,1,.51,1.81,4.43,4.43,0,0,1-.31,1.67,6.4,6.4,0,0,1-1,1.6,23.64,23.64,0,0,1-2.31,2.33l-1.65,1.56v0.12h5.6v2.29Z"/><path class="cls-2" d="M48.74,161.29a9,9,0,0,1-1.1,5,3.83,3.83,0,0,1-3.4,1.62,3.78,3.78,0,0,1-3.35-1.67,8.83,8.83,0,0,1-1.13-4.93,9,9,0,0,1,1.1-5,3.81,3.81,0,0,1,3.38-1.61,3.79,3.79,0,0,1,3.36,1.69A8.85,8.85,0,0,1,48.74,161.29Zm-6.28,0a10,10,0,0,0,.41,3.39,1.43,1.43,0,0,0,2.75,0,13.73,13.73,0,0,0,0-6.77,1.42,1.42,0,0,0-2.74,0A10,10,0,0,0,42.45,161.29Z"/><path class="cls-2" d="M59,161.29a9,9,0,0,1-1.1,5,3.83,3.83,0,0,1-3.4,1.62,3.78,3.78,0,0,1-3.35-1.67A8.83,8.83,0,0,1,50,161.29a9,9,0,0,1,1.1-5,4.27,4.27,0,0,1,6.75.08A8.85,8.85,0,0,1,59,161.29Zm-6.28,0a10,10,0,0,0,.41,3.39,1.43,1.43,0,0,0,2.75,0,13.73,13.73,0,0,0,0-6.77,1.42,1.42,0,0,0-2.74,0A10,10,0,0,0,52.73,161.29Z"/><path class="cls-2" d="M64.8,154.69a4.87,4.87,0,0,1,3,.84,2.68,2.68,0,0,1,1.13,2.26,3,3,0,0,1-.54,1.75,4.64,4.64,0,0,1-1.76,1.38,6.23,6.23,0,0,1,2.07,1.61,3,3,0,0,1,.63,1.84,3.06,3.06,0,0,1-1.24,2.54,5.17,5.17,0,0,1-3.26,1,5.44,5.44,0,0,1-3.31-.9,3,3,0,0,1-1.2-2.54,3.37,3.37,0,0,1,.58-2,4.85,4.85,0,0,1,1.88-1.5,4.81,4.81,0,0,1-1.58-1.49,3.26,3.26,0,0,1-.48-1.73,2.66,2.66,0,0,1,1.14-2.23A4.86,4.86,0,0,1,64.8,154.69Zm-2,9.6a1.42,1.42,0,0,0,.53,1.18,2.76,2.76,0,0,0,3,0,1.44,1.44,0,0,0,.5-1.15,1.57,1.57,0,0,0-.5-1.1,6.38,6.38,0,0,0-1.61-1.09Q62.8,163,62.8,164.29Zm2-7.61a1.69,1.69,0,0,0-1.12.36,1.18,1.18,0,0,0-.43,1,1.46,1.46,0,0,0,.34.94,3.72,3.72,0,0,0,1.23.86A3.43,3.43,0,0,0,66,159a1.5,1.5,0,0,0,.34-1,1.16,1.16,0,0,0-.44-1A1.74,1.74,0,0,0,64.79,156.68Z"/><path class="cls-3" d="M151.19,167.71h-9v-1.89l3.23-3.26q1.43-1.47,1.87-2a4.47,4.47,0,0,0,.63-1,2.67,2.67,0,0,0,.19-1,1.46,1.46,0,0,0-.43-1.15,1.65,1.65,0,0,0-1.14-.38,3.27,3.27,0,0,0-1.45.34,7.48,7.48,0,0,0-1.47,1l-1.48-1.75a9.63,9.63,0,0,1,1.57-1.14,5.78,5.78,0,0,1,1.36-.51,7,7,0,0,1,1.65-.18,4.89,4.89,0,0,1,2.13.44,3.39,3.39,0,0,1,1.43,1.23,3.27,3.27,0,0,1,.51,1.81,4.41,4.41,0,0,1-.31,1.67,6.34,6.34,0,0,1-1,1.6,23.5,23.5,0,0,1-2.31,2.33l-1.65,1.56v0.12h5.6v2.29Z"/><path class="cls-3" d="M161.39,161.29a9,9,0,0,1-1.1,5,3.83,3.83,0,0,1-3.4,1.62,3.79,3.79,0,0,1-3.35-1.67,8.84,8.84,0,0,1-1.13-4.93,9,9,0,0,1,1.1-5,4.27,4.27,0,0,1,6.75.08A8.84,8.84,0,0,1,161.39,161.29Zm-6.28,0a10,10,0,0,0,.41,3.39,1.41,1.41,0,0,0,1.38,1,1.43,1.43,0,0,0,1.37-1,13.74,13.74,0,0,0,0-6.77,1.42,1.42,0,0,0-2.74,0A10,10,0,0,0,155.11,161.29Z"/><path class="cls-3" d="M169.47,167.71h-2.72v-7.44l0-1.22,0-1.34q-0.68.68-.94,0.89l-1.48,1.19-1.31-1.63,4.14-3.3h2.23v12.85Z"/><path class="cls-3" d="M172.94,162.25q0-3.81,1.61-5.68a6,6,0,0,1,4.83-1.86,8.76,8.76,0,0,1,1.72.13V157a7,7,0,0,0-1.55-.18,5.31,5.31,0,0,0-2.28.42,2.83,2.83,0,0,0-1.32,1.25,5.73,5.73,0,0,0-.52,2.35h0.11a3,3,0,0,1,2.79-1.49,3.45,3.45,0,0,1,2.7,1.08,4.3,4.3,0,0,1,1,3,4.48,4.48,0,0,1-1.16,3.26,4.27,4.27,0,0,1-3.22,1.2,4.6,4.6,0,0,1-2.48-.66,4.27,4.27,0,0,1-1.63-1.92A7.31,7.31,0,0,1,172.94,162.25Zm4.64,3.46a1.61,1.61,0,0,0,1.34-.58,2.61,2.61,0,0,0,.47-1.67,2.31,2.31,0,0,0-.43-1.48,1.59,1.59,0,0,0-1.31-.54,2,2,0,0,0-1.41.54,1.64,1.64,0,0,0-.58,1.25,2.82,2.82,0,0,0,.55,1.77A1.68,1.68,0,0,0,177.58,165.72Z"/><path class="cls-2" d="M55.18,65.36l0.69,0.06A54,54,0,0,1,49,65.07c5,2.05,11,3.85,14.81-.65,0.43,2.37,5.3,3.43,5.4,2.85a24.92,24.92,0,0,1,3.06-1.11c-0.71.18-1.42,0.38-2.12,0.61,0.7-.23,1.41-0.43,2.12-0.61,6.53-1.91,13.64-1.17,21-.32,4.08,0.42,15.16.83,19.35,1.48,0.61,0.08,1.21.16,1.82,0.22l-2-.41c2.54-.66,4.85-1.3,7.08-1.73a4.32,4.32,0,0,0-1.41-1.13l1.14,0.22c1-1,3.43-1,4.55-1.4-0.24.52,0.65,0.61,1.44,0.68l-0.31-.34c3,0.19,6.42-.27,9.08-0.23a1.12,1.12,0,0,1,.82.36l2.54-.42c-0.19.69,2.12,0.59,0.91,1,1.9-.84,3.84-0.35,5.65-1.22A132,132,0,0,0,164,61l-0.17-.26c2.35-.48,4.4-1.87,7.26-1.44,2-.94,4.92-1.46,5.71-2.91,2.35-.22,3.28-1,5.58-1.35-0.6-.71,2.23-0.89,1.09-1.43-1.55-1-1.62-.13-2.93-0.93l0,0.24A151.48,151.48,0,0,0,162.28,51c-4.09.65-8.55,0.19-12.81,0.42-4.59.3-9.55,0.82-13.48,1.45-0.94.21-1.62-.38-2.43-0.7-3.62.36-8.23,0.16-12.31,0.59l0.2,0c-2.17.14-3.8-.58-5.92-0.44a0.66,0.66,0,0,1-.47.33c-0.38-.94-12.46,2.09-13.21,1.56-0.22,0-.45.09-0.68,0.12-4.48-.38-9.11-2.18-13-2a23.38,23.38,0,0,0-2.47,1.37c-0.68-.4-0.81.39-1.63,0.29-2.09-1.88-3.3-1.07-2.22-.41a44.08,44.08,0,0,1-4.94.2c-0.7.15-1.4,0.3-2.11,0.47a1,1,0,0,1-1.25-.56c-1.54.28-1.09-.19-2.71-0.37-0.39-.66-4.05,1.1-4.51.9l0.26-.1c-1.87-.1-3.12-1.37-4.95-1.41-5.08-.44-10.63.11-15.34-0.08,0,0.7,1-.16,1.1.76-2.78-.09-5.58-0.93-8.38-1a4.81,4.81,0,0,1-1.35-.75c-0.9-.25-0.53.34-1.18,0.25l-0.09-.63c-1,.52-1.4-0.68-2.3-0.41a0.59,0.59,0,0,1-.7.27c0-.67-1,0.06-0.94-0.55v0.05a1.14,1.14,0,0,1-.57-0.08c-0.37.24-3.8,2.1-4.18,2.39l-0.17-.11c-0.51,0-.73.52-0.43,0.64l-0.63,0,0.07,0-0.63,0a0.5,0.5,0,0,1-.07-0.66,1.33,1.33,0,0,1-1.12.25A21,21,0,0,1,28,54.62c-0.43.23-1.2-.11-1.66,0a10.09,10.09,0,0,0-2.58-1.09c-0.19,0-.33.79-0.77,0.46-0.22-.51-0.5,0-0.87-0.34a1.85,1.85,0,0,1,1.26-.14c-0.07-.6-1-0.4-1.38-0.57a12.17,12.17,0,0,1-1.5.18c0.23-.58-0.42-0.37-0.73-0.68-0.35-.07-0.57.17-0.43,0.37-0.11.63,1.39,0.36,0.9,1a1.34,1.34,0,0,0-1.18-.16c0,0.35.25,0.26,0,.59-0.41-.07-0.84.35-1.08,0a0.44,0.44,0,0,1,.37,0c-0.53,0,2.89-2.28,2.2-2.08,0.18,0.31-3,2.08-2.68,2.1S17.71,54.85,18,55l0.37-.42a0.75,0.75,0,0,1,.49,1c-0.77,0,2.19-2.38,1.53-2l0.27,0.16a1.09,1.09,0,0,1-1.31.07,0.82,0.82,0,0,1-.69.59l-0.11-.06c-0.32.18-.77,0.1-0.56,0.55,1.89-.07-1.24,3.48.59,3.66-0.77-.75.26-0.78,1.06-0.87a1.56,1.56,0,0,0,1,.82c0.5-.06.3-0.28,0.39-0.47,0.28,0.17.81,0.3,0.74,0.7,0.39-.48.63,0.3,1.09,0.13s0-.21.27-0.44c0.62,0,1.49.1,2,.19,0.19,0.37.77,1,.35,1.61-0.94-.07.36-0.94-0.62-0.81,0.42,0.85-.87.24-1,0.89a1.52,1.52,0,0,0,1.47.27l-0.11-.11a2.27,2.27,0,0,1,1.9.15c-0.12.3,0.1,0.52-.24,0.6l0.64,0c0.08-.1.17-0.19,0-0.26a0.65,0.65,0,0,1,.84.07c0.07,0.31,3.41-1.36,3.31-1.16,0.46,0,.57.46,1,0.13,0-.26-4.42,1.12-3.81,1,0.4,0.34,5.24-1.63,5.53-1,0.34,0,.76-0.1.67-0.42,0.58,0.15-.17.61,0.24,0.91,0-.05,0-0.16.1-0.15l0.4,0.4c0.9-.51,2.22.13,3.16-0.54a3.87,3.87,0,0,1-1.19,1.28l-0.11-.17a0.92,0.92,0,0,0-.57.53,1.9,1.9,0,0,0,1.67-.18,3.48,3.48,0,0,1,.33.26,1,1,0,0,1,0-.13c0.2,0.2.18,0.23,0.11,0.36a0.25,0.25,0,0,1,0,.07c0.36,0.93,2.26-.62,3.31-0.14,0.31-.14,0-0.16.41-0.34a19.27,19.27,0,0,0,2.94.85c0.36-.41.39-0.57,0-1l0.85,0.12c-0.77,1.08,1.59,1,.74,2.1a1.22,1.22,0,0,0,1.23.11,0.69,0.69,0,0,1,.72-0.71c0.83,0.35.63,0.22,1.32,0.56a1.46,1.46,0,0,1-.06.77c1.06-.46.93,0.76,1.93,0.68,0.63-.11,1.87-0.16,1.9-0.78C55.26,64.41,55.26,64.86,55.18,65.36Z"/><path class="cls-4" d="M183.79,43.83A11.62,11.62,0,0,1,187.47,48c2.26,5.46-1.89,11.5-6.22,12.86C172.53,63.55,164.84,56,164.84,56s7.47,0.61,8.61-2.64,1.2-7.7,3.49-9.13A6.75,6.75,0,0,1,183.79,43.83Z"/><path class="cls-3" d="M184.51,43.11s3.39,1.28,4.25,4.13c0.1-.28,14.23-3.61,17.33-6.34S240,2.81,237.58.18s-39.48,24.11-43.32,28.25S184.51,43.11,184.51,43.11Z"/></svg>